<svg version="1.1" xmlns="http://www.w3.org/2000/svg" xmlns:xlink="http://www.w3.org/1999/xlink" width="395" height="291"><defs/><g><text fill="#eeeeee" stroke="none" font-family="Arial" font-size="24px" font-style="normal" font-weight="normal" text-decoration="none" x="0" y="0"></text><text fill="#eeeeee" stroke="none" font-family="Arial" font-size="24px" font-style="normal" font-weight="normal" text-decoration="none" x="0" y="30"></text><text fill="#eeeeee" stroke="none" font-family="Arial" font-size="24px" font-style="normal" font-weight="normal" text-decoration="none" x="0" y="60"></text><text fill="#eeeeee" stroke="none" font-family="Arial" font-size="24px" font-style="normal" font-weight="normal" text-decoration="none" x="0" y="90"></text><text fill="#eeeeee" stroke="none" font-family="Arial" font-size="24px" font-style="normal" font-weight="normal" text-decoration="none" x="0" y="120"></text><text fill="#eeeeee" stroke="none" font-family="Arial" font-size="24px" font-style="normal" font-weight="normal" text-decoration="none" x="0" y="150"></text><text fill="#eeeeee" stroke="none" font-family="Arial" font-size="24px" font-style="normal" font-weight="normal" text-decoration="none" x="0" y="180"></text><text fill="#eeeeee" stroke="none" font-family="Arial" font-size="24px" font-style="normal" font-weight="normal" text-decoration="none" x="0" y="210"></text><text fill="#eeeeee" stroke="none" font-family="Arial" font-size="24px" font-style="normal" font-weight="normal" text-decoration="none" x="0" y="240"></text><text fill="#eeeeee" stroke="none" font-family="Arial" font-size="24px" font-style="normal" font-weight="normal" text-decoration="none" x="0" y="270"></text><text fill="#eeeeee" stroke="none" font-family="Arial" font-size="24px" font-style="normal" font-weight="normal" text-decoration="none" x="200" y="0"></text><text fill="#eeeeee" stroke="none" font-family="Arial" font-size="24px" font-style="normal" font-weight="normal" text-decoration="none" x="200" y="30"></text><text fill="#eeeeee" stroke="none" font-family="Arial" font-size="24px" font-style="normal" font-weight="normal" text-decoration="none" x="200" y="60"></text><text fill="#eeeeee" stroke="none" font-family="Arial" font-size="24px" font-style="normal" font-weight="normal" text-decoration="none" x="200" y="90"></text><text fill="#eeeeee" stroke="none" font-family="Arial" font-size="24px" font-style="normal" font-weight="normal" text-decoration="none" x="200" y="120"></text><text fill="#eeeeee" stroke="none" font-family="Arial" font-size="24px" font-style="normal" font-weight="normal" text-decoration="none" x="200" y="150"></text><text fill="#eeeeee" stroke="none" font-family="Arial" font-size="24px" font-style="normal" font-weight="normal" text-decoration="none" x="200" y="180"></text><text fill="#eeeeee" stroke="none" font-family="Arial" font-size="24px" font-style="normal" font-weight="normal" text-decoration="none" x="200" y="210"></text><text fill="#eeeeee" stroke="none" font-family="Arial" font-size="24px" font-style="normal" font-weight="normal" text-decoration="none" x="200" y="240"></text><text fill="#eeeeee" stroke="none" font-family="Arial" font-size="24px" font-style="normal" font-weight="normal" text-decoration="none" x="200" y="270"></text><g transform="translate(-142,-126) scale(1,1)"><rect fill="#C0C0C0" stroke="none" x="159" y="143" width="150" height="15" opacity="0.2"/></g><g transform="translate(-142,-126) scale(1,1)"><rect fill="#C0C0C0" stroke="none" x="159" y="157" width="375" height="257" opacity="0.2"/></g><g transform="translate(-142,-126) scale(1,1)"><rect fill="#ffffff" stroke="none" x="152" y="151" width="375" height="256"/></g><g transform="translate(-142,-126) scale(1,1)"><path fill="none" stroke="#000000" d="M 152 151 L 527 151 L 527 407 L 152 407 L 152 151 Z Z" stroke-miterlimit="10"/></g><g transform="translate(-142,-126) scale(1,1)"><rect fill="#ffffff" stroke="none" x="152" y="136" width="150" height="15"/></g><g transform="translate(-142,-126) scale(1,1)"><path fill="none" stroke="#000000" d="M 152 136 L 302 136 L 302 151 L 152 151 L 152 136 Z Z" stroke-miterlimit="10"/></g><g transform="translate(-142,-126) scale(1,1)"><rect fill="#ffffff" stroke="none" x="152" y="150" width="375" height="257"/></g><g transform="translate(-142,-126) scale(1,1)"><path fill="none" stroke="#000000" d="M 152 150 L 527 150 L 527 407 L 152 407 L 152 150 Z Z" stroke-miterlimit="10"/></g><g transform="translate(-142,-126) scale(1,1)"><g><path fill="none" stroke="none"/><text fill="#000000" stroke="none" font-family="Arial" font-size="13px" font-style="normal" font-weight="bold" text-decoration="none" x="321.069580078125" y="170.5">Bonus</text></g></g><g transform="translate(-142,-126) scale(1,1)"><rect fill="#C0C0C0" stroke="none" x="255" y="255" width="191.47607421875" height="60" opacity="0.2"/></g><g transform="translate(-142,-126) scale(1,1)"><rect fill="#ffffff" stroke="none" x="248" y="248" width="191.47607421875" height="60"/></g><g transform="translate(-142,-126) scale(1,1)"><path fill="none" stroke="#000000" d="M 248 248 L 439.47607421875 248 L 439.47607421875 308 L 248 308 L 248 248 Z Z" stroke-miterlimit="10"/></g><g transform="translate(-142,-126) scale(1,1)"><path fill="none" stroke="#000000" d="M 248 286 L 439.47607421875 286" stroke-miterlimit="10"/></g><g transform="translate(-142,-126) scale(1,1)"><g><path fill="none" stroke="none"/><text fill="#000000" stroke="none" font-family="Arial" font-size="13px" font-style="normal" font-weight="normal" text-decoration="none" x="311.57763671875" y="265.5">«interface»</text></g></g><g transform="translate(-142,-126) scale(1,1)"><g><path fill="none" stroke="none"/><text fill="#000000" stroke="none" font-family="Arial" font-size="13px" font-style="normal" font-weight="bold" text-decoration="none" x="323.501708984375" y="280.5">IBonus</text></g></g><g transform="translate(-142,-126) scale(1,1)"><g><path fill="none" stroke="none"/><text fill="#000000" stroke="none" font-family="Arial" font-size="13px" font-style="normal" font-weight="normal" text-decoration="none" x="253" y="303.5">+addBonus(o1: Dino, value: int)</text></g></g></g></svg>