<svg version="1.1" xmlns="http://www.w3.org/2000/svg" xmlns:xlink="http://www.w3.org/1999/xlink" width="652" height="380"><defs/><g><text fill="#eeeeee" stroke="none" font-family="Arial" font-size="24px" font-style="normal" font-weight="normal" text-decoration="none" x="0" y="0"></text><text fill="#eeeeee" stroke="none" font-family="Arial" font-size="24px" font-style="normal" font-weight="normal" text-decoration="none" x="0" y="30"></text><text fill="#eeeeee" stroke="none" font-family="Arial" font-size="24px" font-style="normal" font-weight="normal" text-decoration="none" x="0" y="60"></text><text fill="#eeeeee" stroke="none" font-family="Arial" font-size="24px" font-style="normal" font-weight="normal" text-decoration="none" x="0" y="90"></text><text fill="#eeeeee" stroke="none" font-family="Arial" font-size="24px" font-style="normal" font-weight="normal" text-decoration="none" x="0" y="120"></text><text fill="#eeeeee" stroke="none" font-family="Arial" font-size="24px" font-style="normal" font-weight="normal" text-decoration="none" x="0" y="150"></text><text fill="#eeeeee" stroke="none" font-family="Arial" font-size="24px" font-style="normal" font-weight="normal" text-decoration="none" x="0" y="180"></text><text fill="#eeeeee" stroke="none" font-family="Arial" font-size="24px" font-style="normal" font-weight="normal" text-decoration="none" x="0" y="210"></text><text fill="#eeeeee" stroke="none" font-family="Arial" font-size="24px" font-style="normal" font-weight="normal" text-decoration="none" x="0" y="240"></text><text fill="#eeeeee" stroke="none" font-family="Arial" font-size="24px" font-style="normal" font-weight="normal" text-decoration="none" x="0" y="270"></text><text fill="#eeeeee" stroke="none" font-family="Arial" font-size="24px" font-style="normal" font-weight="normal" text-decoration="none" x="0" y="300"></text><text fill="#eeeeee" stroke="none" font-family="Arial" font-size="24px" font-style="normal" font-weight="normal" text-decoration="none" x="0" y="330"></text><text fill="#eeeeee" stroke="none" font-family="Arial" font-size="24px" font-style="normal" font-weight="normal" text-decoration="none" x="0" y="360"></text><text fill="#eeeeee" stroke="none" font-family="Arial" font-size="24px" font-style="normal" font-weight="normal" text-decoration="none" x="200" y="0"></text><text fill="#eeeeee" stroke="none" font-family="Arial" font-size="24px" font-style="normal" font-weight="normal" text-decoration="none" x="200" y="30"></text><text fill="#eeeeee" stroke="none" font-family="Arial" font-size="24px" font-style="normal" font-weight="normal" text-decoration="none" x="200" y="60"></text><text fill="#eeeeee" stroke="none" font-family="Arial" font-size="24px" font-style="normal" font-weight="normal" text-decoration="none" x="200" y="90"></text><text fill="#eeeeee" stroke="none" font-family="Arial" font-size="24px" font-style="normal" font-weight="normal" text-decoration="none" x="200" y="120"></text><text fill="#eeeeee" stroke="none" font-family="Arial" font-size="24px" font-style="normal" font-weight="normal" text-decoration="none" x="200" y="150"></text><text fill="#eeeeee" stroke="none" font-family="Arial" font-size="24px" font-style="normal" font-weight="normal" text-decoration="none" x="200" y="180"></text><text fill="#eeeeee" stroke="none" font-family="Arial" font-size="24px" font-style="normal" font-weight="normal" text-decoration="none" x="200" y="210"></text><text fill="#eeeeee" stroke="none" font-family="Arial" font-size="24px" font-style="normal" font-weight="normal" text-decoration="none" x="200" y="240"></text><text fill="#eeeeee" stroke="none" font-family="Arial" font-size="24px" font-style="normal" font-weight="normal" text-decoration="none" x="200" y="270"></text><text fill="#eeeeee" stroke="none" font-family="Arial" font-size="24px" font-style="normal" font-weight="normal" text-decoration="none" x="200" y="300"></text><text fill="#eeeeee" stroke="none" font-family="Arial" font-size="24px" font-style="normal" font-weight="normal" text-decoration="none" x="200" y="330"></text><text fill="#eeeeee" stroke="none" font-family="Arial" font-size="24px" font-style="normal" font-weight="normal" text-decoration="none" x="200" y="360"></text><text fill="#eeeeee" stroke="none" font-family="Arial" font-size="24px" font-style="normal" font-weight="normal" text-decoration="none" x="400" y="0"></text><text fill="#eeeeee" stroke="none" font-family="Arial" font-size="24px" font-style="normal" font-weight="normal" text-decoration="none" x="400" y="30"></text><text fill="#eeeeee" stroke="none" font-family="Arial" font-size="24px" font-style="normal" font-weight="normal" text-decoration="none" x="400" y="60"></text><text fill="#eeeeee" stroke="none" font-family="Arial" font-size="24px" font-style="normal" font-weight="normal" text-decoration="none" x="400" y="90"></text><text fill="#eeeeee" stroke="none" font-family="Arial" font-size="24px" font-style="normal" font-weight="normal" text-decoration="none" x="400" y="120"></text><text fill="#eeeeee" stroke="none" font-family="Arial" font-size="24px" font-style="normal" font-weight="normal" text-decoration="none" x="400" y="150"></text><text fill="#eeeeee" stroke="none" font-family="Arial" font-size="24px" font-style="normal" font-weight="normal" text-decoration="none" x="400" y="180"></text><text fill="#eeeeee" stroke="none" font-family="Arial" font-size="24px" font-style="normal" font-weight="normal" text-decoration="none" x="400" y="210"></text><text fill="#eeeeee" stroke="none" font-family="Arial" font-size="24px" font-style="normal" font-weight="normal" text-decoration="none" x="400" y="240"></text><text fill="#eeeeee" stroke="none" font-family="Arial" font-size="24px" font-style="normal" font-weight="normal" text-decoration="none" x="400" y="270"></text><text fill="#eeeeee" stroke="none" font-family="Arial" font-size="24px" font-style="normal" font-weight="normal" text-decoration="none" x="400" y="300"></text><text fill="#eeeeee" stroke="none" font-family="Arial" font-size="24px" font-style="normal" font-weight="normal" text-decoration="none" x="400" y="330"></text><text fill="#eeeeee" stroke="none" font-family="Arial" font-size="24px" font-style="normal" font-weight="normal" text-decoration="none" x="400" y="360"></text><text fill="#eeeeee" stroke="none" font-family="Arial" font-size="24px" font-style="normal" font-weight="normal" text-decoration="none" x="600" y="0"></text><text fill="#eeeeee" stroke="none" font-family="Arial" font-size="24px" font-style="normal" font-weight="normal" text-decoration="none" x="600" y="30"></text><text fill="#eeeeee" stroke="none" font-family="Arial" font-size="24px" font-style="normal" font-weight="normal" text-decoration="none" x="600" y="60"></text><text fill="#eeeeee" stroke="none" font-family="Arial" font-size="24px" font-style="normal" font-weight="normal" text-decoration="none" x="600" y="90"></text><text fill="#eeeeee" stroke="none" font-family="Arial" font-size="24px" font-style="normal" font-weight="normal" text-decoration="none" x="600" y="120"></text><text fill="#eeeeee" stroke="none" font-family="Arial" font-size="24px" font-style="normal" font-weight="normal" text-decoration="none" x="600" y="150"></text><text fill="#eeeeee" stroke="none" font-family="Arial" font-size="24px" font-style="normal" font-weight="normal" text-decoration="none" x="600" y="180"></text><text fill="#eeeeee" stroke="none" font-family="Arial" font-size="24px" font-style="normal" font-weight="normal" text-decoration="none" x="600" y="210"></text><text fill="#eeeeee" stroke="none" font-family="Arial" font-size="24px" font-style="normal" font-weight="normal" text-decoration="none" x="600" y="240"></text><text fill="#eeeeee" stroke="none" font-family="Arial" font-size="24px" font-style="normal" font-weight="normal" text-decoration="none" x="600" y="270"></text><text fill="#eeeeee" stroke="none" font-family="Arial" font-size="24px" font-style="normal" font-weight="normal" text-decoration="none" x="600" y="300"></text><text fill="#eeeeee" stroke="none" font-family="Arial" font-size="24px" font-style="normal" font-weight="normal" text-decoration="none" x="600" y="330"></text><text fill="#eeeeee" stroke="none" font-family="Arial" font-size="24px" font-style="normal" font-weight="normal" text-decoration="none" x="600" y="360"></text><g transform="translate(-182,-262) scale(1,1)"><rect fill="#C0C0C0" stroke="none" x="367" y="279" width="185.60000000000002" height="15" opacity="0.2"/></g><g transform="translate(-182,-262) scale(1,1)"><rect fill="#C0C0C0" stroke="none" x="367" y="293" width="464" height="346" opacity="0.2"/></g><g transform="translate(-182,-262) scale(1,1)"><rect fill="#ffffff" stroke="none" x="360" y="287" width="464" height="345"/></g><g transform="translate(-182,-262) scale(1,1)"><path fill="none" stroke="#000000" d="M 360 287 L 824 287 L 824 632 L 360 632 L 360 287 Z Z" stroke-miterlimit="10"/></g><g transform="translate(-182,-262) scale(1,1)"><rect fill="#ffffff" stroke="none" x="360" y="272" width="185.60000000000002" height="15"/></g><g transform="translate(-182,-262) scale(1,1)"><path fill="none" stroke="#000000" d="M 360 272 L 545.6 272 L 545.6 287 L 360 287 L 360 272 Z Z" stroke-miterlimit="10"/></g><g transform="translate(-182,-262) scale(1,1)"><rect fill="#ffffff" stroke="none" x="360" y="286" width="464" height="346"/></g><g transform="translate(-182,-262) scale(1,1)"><path fill="none" stroke="#000000" d="M 360 286 L 824 286 L 824 632 L 360 632 L 360 286 Z Z" stroke-miterlimit="10"/></g><g transform="translate(-182,-262) scale(1,1)"><g><path fill="none" stroke="none"/><text fill="#000000" stroke="none" font-family="Arial" font-size="13px" font-style="normal" font-weight="bold" text-decoration="none" x="566.345947265625" y="306.5">Boucleur</text></g></g><g transform="translate(-182,-262) scale(1,1)"><path fill="#ffffff" stroke="none" d="M 192 344 L 267.919921875 344 L 277.919921875 354 L 277.919921875 382 L 192 382 L 192 344"/></g><g transform="translate(-182,-262) scale(1,1)"><path fill="none" stroke="#000000" d="M 192 344 L 267.919921875 344 L 277.919921875 354 L 277.919921875 382 L 192 382 L 192 344 L 192 344" stroke-miterlimit="10"/></g><g transform="translate(-182,-262) scale(1,1)"><path fill="none" stroke="#000000" d="M 267.919921875 344 L 267.919921875 354 L 277.919921875 354 L 267.919921875 344" stroke-miterlimit="10"/></g><g transform="translate(-182,-262) scale(1,1)"><g><path fill="none" stroke="none"/><text fill="#000000" stroke="none" font-family="Arial" font-size="13px" font-style="normal" font-weight="normal" text-decoration="none" x="197" y="362">Implémente</text><text fill="#000000" stroke="none" font-family="Arial" font-size="13px" font-style="normal" font-weight="normal" text-decoration="none" x="197" y="375">Runnable</text></g></g><g transform="translate(-182,-262) scale(1,1)"><path fill="none" stroke="#000000" d="M 407 380 L 280 367" stroke-miterlimit="10" stroke-dasharray="3"/></g><g transform="translate(-182,-262) scale(1,1)"><path fill="none" stroke="#000000" d="M 663 413 L 540 396" stroke-miterlimit="10"/></g><g transform="translate(-182,-262) scale(1,1)"><path fill="#FFFFFF" stroke="none" d="M 561.2866055440246 390.4429842169468 L 540 396 L 558.9813066719805 407.1224995852653"/></g><g transform="translate(-182,-262) scale(1,1)"><path fill="none" stroke="#000000" d="M 561.2866055440246 390.4429842169468 L 540 396 L 558.9813066719805 407.1224995852653 L 561.2866055440246 390.4429842169468" stroke-miterlimit="10"/></g><g transform="translate(-182,-262) scale(1,1)"><rect fill="#C0C0C0" stroke="none" x="503" y="511" width="130.748046875" height="72" opacity="0.2"/></g><g transform="translate(-182,-262) scale(1,1)"><rect fill="#ffffff" stroke="none" x="496" y="504" width="130.748046875" height="72"/></g><g transform="translate(-182,-262) scale(1,1)"><path fill="none" stroke="#000000" d="M 496 504 L 626.748046875 504 L 626.748046875 576 L 496 576 L 496 504 Z Z" stroke-miterlimit="10"/></g><g transform="translate(-182,-262) scale(1,1)"><path fill="none" stroke="#000000" d="M 496 529 L 626.748046875 529" stroke-miterlimit="10"/></g><g transform="translate(-182,-262) scale(1,1)"><path fill="none" stroke="#000000" d="M 496 539 L 626.748046875 539" stroke-miterlimit="10"/></g><g transform="translate(-182,-262) scale(1,1)"><g><path fill="none" stroke="none"/><text fill="#000000" stroke="none" font-family="Arial" font-size="13px" font-style="normal" font-weight="bold" text-decoration="none" x="508.625" y="523.5">BoucleurMeteorite</text></g></g><g transform="translate(-182,-262) scale(1,1)"><g><path fill="none" stroke="none"/><text fill="#000000" stroke="none" font-family="Arial" font-size="13px" font-style="normal" font-weight="normal" text-decoration="none" x="501" y="556.5">+BoucleurMeteorite()</text></g></g><g transform="translate(-182,-262) scale(1,1)"><g><path fill="none" stroke="none"/><text fill="#000000" stroke="none" font-family="Arial" font-size="13px" font-style="normal" font-weight="normal" text-decoration="none" x="501" y="571.5">+run()</text></g></g><g transform="translate(-182,-262) scale(1,1)"><rect fill="#C0C0C0" stroke="none" x="671" y="391" width="97.51806640625" height="72" opacity="0.2"/></g><g transform="translate(-182,-262) scale(1,1)"><rect fill="#ffffff" stroke="none" x="664" y="384" width="97.51806640625" height="72"/></g><g transform="translate(-182,-262) scale(1,1)"><path fill="none" stroke="#000000" d="M 664 384 L 761.51806640625 384 L 761.51806640625 456 L 664 456 L 664 384 Z Z" stroke-miterlimit="10"/></g><g transform="translate(-182,-262) scale(1,1)"><path fill="none" stroke="#000000" d="M 664 409 L 761.51806640625 409" stroke-miterlimit="10"/></g><g transform="translate(-182,-262) scale(1,1)"><path fill="none" stroke="#000000" d="M 664 419 L 761.51806640625 419" stroke-miterlimit="10"/></g><g transform="translate(-182,-262) scale(1,1)"><g><path fill="none" stroke="none"/><text fill="#000000" stroke="none" font-family="Arial" font-size="13px" font-style="normal" font-weight="bold" text-decoration="none" x="676.625" y="403.5">BoucleurJeu</text></g></g><g transform="translate(-182,-262) scale(1,1)"><g><path fill="none" stroke="none"/><text fill="#000000" stroke="none" font-family="Arial" font-size="13px" font-style="normal" font-weight="normal" text-decoration="none" x="669" y="436.5">+BoucleurJeu()</text></g></g><g transform="translate(-182,-262) scale(1,1)"><g><path fill="none" stroke="none"/><text fill="#000000" stroke="none" font-family="Arial" font-size="13px" font-style="normal" font-weight="normal" text-decoration="none" x="669" y="451.5">+run()</text></g></g><g transform="translate(-182,-262) scale(1,1)"><path fill="none" stroke="#000000" d="M 540 503 L 498 430" stroke-miterlimit="10"/></g><g transform="translate(-182,-262) scale(1,1)"><path fill="#FFFFFF" stroke="none" d="M 515.4335686276472 443.4190418773143 L 498 430 L 500.8386990884152 451.8160901053656"/></g><g transform="translate(-182,-262) scale(1,1)"><path fill="none" stroke="#000000" d="M 515.4335686276472 443.4190418773143 L 498 430 L 500.8386990884152 451.8160901053656 L 515.4335686276472 443.4190418773143" stroke-miterlimit="10"/></g><g transform="translate(-182,-262) scale(1,1)"><rect fill="#C0C0C0" stroke="none" x="415" y="351" width="131.12255859375" height="85" opacity="0.2"/></g><g transform="translate(-182,-262) scale(1,1)"><rect fill="#ffffff" stroke="none" x="408" y="344" width="131.12255859375" height="85"/></g><g transform="translate(-182,-262) scale(1,1)"><path fill="none" stroke="#000000" d="M 408 344 L 539.12255859375 344 L 539.12255859375 429 L 408 429 L 408 344 Z Z" stroke-miterlimit="10"/></g><g transform="translate(-182,-262) scale(1,1)"><path fill="none" stroke="#000000" d="M 408 369 L 539.12255859375 369" stroke-miterlimit="10"/></g><g transform="translate(-182,-262) scale(1,1)"><path fill="none" stroke="#000000" d="M 408 392 L 539.12255859375 392" stroke-miterlimit="10"/></g><g transform="translate(-182,-262) scale(1,1)"><g><path fill="none" stroke="none"/><text fill="#000000" stroke="none" font-family="Arial" font-size="13px" font-style="italic" font-weight="bold" text-decoration="none" x="449.7353515625" y="363.5">Boucleur</text></g></g><g transform="translate(-182,-262) scale(1,1)"><g><path fill="none" stroke="none"/><text fill="#000000" stroke="none" font-family="Arial" font-size="13px" font-style="normal" font-weight="normal" text-decoration="none" x="413" y="386.5">-/gameOver: boolean</text><path fill="none" stroke="#000000" d="M 413 386.5 L 535.12255859375 386.5" stroke-miterlimit="10"/></g></g><g transform="translate(-182,-262) scale(1,1)"><g><path fill="none" stroke="none"/><text fill="#000000" stroke="none" font-family="Arial" font-size="13px" font-style="normal" font-weight="normal" text-decoration="none" x="413" y="409.5">+Boucleur()</text></g></g><g transform="translate(-182,-262) scale(1,1)"><g><path fill="none" stroke="none"/><text fill="#000000" stroke="none" font-family="Arial" font-size="13px" font-style="normal" font-weight="normal" text-decoration="none" x="413" y="424.5">+run()</text></g></g></g></svg>