<svg version="1.1" xmlns="http://www.w3.org/2000/svg" xmlns:xlink="http://www.w3.org/1999/xlink" width="772" height="452"><defs/><g><text fill="#eeeeee" stroke="none" font-family="Arial" font-size="24px" font-style="normal" font-weight="normal" text-decoration="none" x="0" y="0"></text><text fill="#eeeeee" stroke="none" font-family="Arial" font-size="24px" font-style="normal" font-weight="normal" text-decoration="none" x="0" y="30"></text><text fill="#eeeeee" stroke="none" font-family="Arial" font-size="24px" font-style="normal" font-weight="normal" text-decoration="none" x="0" y="60"></text><text fill="#eeeeee" stroke="none" font-family="Arial" font-size="24px" font-style="normal" font-weight="normal" text-decoration="none" x="0" y="90"></text><text fill="#eeeeee" stroke="none" font-family="Arial" font-size="24px" font-style="normal" font-weight="normal" text-decoration="none" x="0" y="120"></text><text fill="#eeeeee" stroke="none" font-family="Arial" font-size="24px" font-style="normal" font-weight="normal" text-decoration="none" x="0" y="150"></text><text fill="#eeeeee" stroke="none" font-family="Arial" font-size="24px" font-style="normal" font-weight="normal" text-decoration="none" x="0" y="180"></text><text fill="#eeeeee" stroke="none" font-family="Arial" font-size="24px" font-style="normal" font-weight="normal" text-decoration="none" x="0" y="210"></text><text fill="#eeeeee" stroke="none" font-family="Arial" font-size="24px" font-style="normal" font-weight="normal" text-decoration="none" x="0" y="240"></text><text fill="#eeeeee" stroke="none" font-family="Arial" font-size="24px" font-style="normal" font-weight="normal" text-decoration="none" x="0" y="270"></text><text fill="#eeeeee" stroke="none" font-family="Arial" font-size="24px" font-style="normal" font-weight="normal" text-decoration="none" x="0" y="300"></text><text fill="#eeeeee" stroke="none" font-family="Arial" font-size="24px" font-style="normal" font-weight="normal" text-decoration="none" x="0" y="330"></text><text fill="#eeeeee" stroke="none" font-family="Arial" font-size="24px" font-style="normal" font-weight="normal" text-decoration="none" x="0" y="360"></text><text fill="#eeeeee" stroke="none" font-family="Arial" font-size="24px" font-style="normal" font-weight="normal" text-decoration="none" x="0" y="390"></text><text fill="#eeeeee" stroke="none" font-family="Arial" font-size="24px" font-style="normal" font-weight="normal" text-decoration="none" x="0" y="420"></text><text fill="#eeeeee" stroke="none" font-family="Arial" font-size="24px" font-style="normal" font-weight="normal" text-decoration="none" x="0" y="450"></text><text fill="#eeeeee" stroke="none" font-family="Arial" font-size="24px" font-style="normal" font-weight="normal" text-decoration="none" x="200" y="0"></text><text fill="#eeeeee" stroke="none" font-family="Arial" font-size="24px" font-style="normal" font-weight="normal" text-decoration="none" x="200" y="30"></text><text fill="#eeeeee" stroke="none" font-family="Arial" font-size="24px" font-style="normal" font-weight="normal" text-decoration="none" x="200" y="60"></text><text fill="#eeeeee" stroke="none" font-family="Arial" font-size="24px" font-style="normal" font-weight="normal" text-decoration="none" x="200" y="90"></text><text fill="#eeeeee" stroke="none" font-family="Arial" font-size="24px" font-style="normal" font-weight="normal" text-decoration="none" x="200" y="120"></text><text fill="#eeeeee" stroke="none" font-family="Arial" font-size="24px" font-style="normal" font-weight="normal" text-decoration="none" x="200" y="150"></text><text fill="#eeeeee" stroke="none" font-family="Arial" font-size="24px" font-style="normal" font-weight="normal" text-decoration="none" x="200" y="180"></text><text fill="#eeeeee" stroke="none" font-family="Arial" font-size="24px" font-style="normal" font-weight="normal" text-decoration="none" x="200" y="210"></text><text fill="#eeeeee" stroke="none" font-family="Arial" font-size="24px" font-style="normal" font-weight="normal" text-decoration="none" x="200" y="240"></text><text fill="#eeeeee" stroke="none" font-family="Arial" font-size="24px" font-style="normal" font-weight="normal" text-decoration="none" x="200" y="270"></text><text fill="#eeeeee" stroke="none" font-family="Arial" font-size="24px" font-style="normal" font-weight="normal" text-decoration="none" x="200" y="300"></text><text fill="#eeeeee" stroke="none" font-family="Arial" font-size="24px" font-style="normal" font-weight="normal" text-decoration="none" x="200" y="330"></text><text fill="#eeeeee" stroke="none" font-family="Arial" font-size="24px" font-style="normal" font-weight="normal" text-decoration="none" x="200" y="360"></text><text fill="#eeeeee" stroke="none" font-family="Arial" font-size="24px" font-style="normal" font-weight="normal" text-decoration="none" x="200" y="390"></text><text fill="#eeeeee" stroke="none" font-family="Arial" font-size="24px" font-style="normal" font-weight="normal" text-decoration="none" x="200" y="420"></text><text fill="#eeeeee" stroke="none" font-family="Arial" font-size="24px" font-style="normal" font-weight="normal" text-decoration="none" x="200" y="450"></text><text fill="#eeeeee" stroke="none" font-family="Arial" font-size="24px" font-style="normal" font-weight="normal" text-decoration="none" x="400" y="0"></text><text fill="#eeeeee" stroke="none" font-family="Arial" font-size="24px" font-style="normal" font-weight="normal" text-decoration="none" x="400" y="30"></text><text fill="#eeeeee" stroke="none" font-family="Arial" font-size="24px" font-style="normal" font-weight="normal" text-decoration="none" x="400" y="60"></text><text fill="#eeeeee" stroke="none" font-family="Arial" font-size="24px" font-style="normal" font-weight="normal" text-decoration="none" x="400" y="90"></text><text fill="#eeeeee" stroke="none" font-family="Arial" font-size="24px" font-style="normal" font-weight="normal" text-decoration="none" x="400" y="120"></text><text fill="#eeeeee" stroke="none" font-family="Arial" font-size="24px" font-style="normal" font-weight="normal" text-decoration="none" x="400" y="150"></text><text fill="#eeeeee" stroke="none" font-family="Arial" font-size="24px" font-style="normal" font-weight="normal" text-decoration="none" x="400" y="180"></text><text fill="#eeeeee" stroke="none" font-family="Arial" font-size="24px" font-style="normal" font-weight="normal" text-decoration="none" x="400" y="210"></text><text fill="#eeeeee" stroke="none" font-family="Arial" font-size="24px" font-style="normal" font-weight="normal" text-decoration="none" x="400" y="240"></text><text fill="#eeeeee" stroke="none" font-family="Arial" font-size="24px" font-style="normal" font-weight="normal" text-decoration="none" x="400" y="270"></text><text fill="#eeeeee" stroke="none" font-family="Arial" font-size="24px" font-style="normal" font-weight="normal" text-decoration="none" x="400" y="300"></text><text fill="#eeeeee" stroke="none" font-family="Arial" font-size="24px" font-style="normal" font-weight="normal" text-decoration="none" x="400" y="330"></text><text fill="#eeeeee" stroke="none" font-family="Arial" font-size="24px" font-style="normal" font-weight="normal" text-decoration="none" x="400" y="360"></text><text fill="#eeeeee" stroke="none" font-family="Arial" font-size="24px" font-style="normal" font-weight="normal" text-decoration="none" x="400" y="390"></text><text fill="#eeeeee" stroke="none" font-family="Arial" font-size="24px" font-style="normal" font-weight="normal" text-decoration="none" x="400" y="420"></text><text fill="#eeeeee" stroke="none" font-family="Arial" font-size="24px" font-style="normal" font-weight="normal" text-decoration="none" x="400" y="450"></text><text fill="#eeeeee" stroke="none" font-family="Arial" font-size="24px" font-style="normal" font-weight="normal" text-decoration="none" x="600" y="0"></text><text fill="#eeeeee" stroke="none" font-family="Arial" font-size="24px" font-style="normal" font-weight="normal" text-decoration="none" x="600" y="30"></text><text fill="#eeeeee" stroke="none" font-family="Arial" font-size="24px" font-style="normal" font-weight="normal" text-decoration="none" x="600" y="60"></text><text fill="#eeeeee" stroke="none" font-family="Arial" font-size="24px" font-style="normal" font-weight="normal" text-decoration="none" x="600" y="90"></text><text fill="#eeeeee" stroke="none" font-family="Arial" font-size="24px" font-style="normal" font-weight="normal" text-decoration="none" x="600" y="120"></text><text fill="#eeeeee" stroke="none" font-family="Arial" font-size="24px" font-style="normal" font-weight="normal" text-decoration="none" x="600" y="150"></text><text fill="#eeeeee" stroke="none" font-family="Arial" font-size="24px" font-style="normal" font-weight="normal" text-decoration="none" x="600" y="180"></text><text fill="#eeeeee" stroke="none" font-family="Arial" font-size="24px" font-style="normal" font-weight="normal" text-decoration="none" x="600" y="210"></text><text fill="#eeeeee" stroke="none" font-family="Arial" font-size="24px" font-style="normal" font-weight="normal" text-decoration="none" x="600" y="240"></text><text fill="#eeeeee" stroke="none" font-family="Arial" font-size="24px" font-style="normal" font-weight="normal" text-decoration="none" x="600" y="270"></text><text fill="#eeeeee" stroke="none" font-family="Arial" font-size="24px" font-style="normal" font-weight="normal" text-decoration="none" x="600" y="300"></text><text fill="#eeeeee" stroke="none" font-family="Arial" font-size="24px" font-style="normal" font-weight="normal" text-decoration="none" x="600" y="330"></text><text fill="#eeeeee" stroke="none" font-family="Arial" font-size="24px" font-style="normal" font-weight="normal" text-decoration="none" x="600" y="360"></text><text fill="#eeeeee" stroke="none" font-family="Arial" font-size="24px" font-style="normal" font-weight="normal" text-decoration="none" x="600" y="390"></text><text fill="#eeeeee" stroke="none" font-family="Arial" font-size="24px" font-style="normal" font-weight="normal" text-decoration="none" x="600" y="420"></text><text fill="#eeeeee" stroke="none" font-family="Arial" font-size="24px" font-style="normal" font-weight="normal" text-decoration="none" x="600" y="450"></text><g transform="translate(-318,-206) scale(1,1)"><rect fill="#C0C0C0" stroke="none" x="335" y="223" width="300.79999999999995" height="15" opacity="0.2"/></g><g transform="translate(-318,-206) scale(1,1)"><rect fill="#C0C0C0" stroke="none" x="335" y="237" width="752" height="418" opacity="0.2"/></g><g transform="translate(-318,-206) scale(1,1)"><rect fill="#ffffff" stroke="none" x="328" y="231" width="752" height="417"/></g><g transform="translate(-318,-206) scale(1,1)"><path fill="none" stroke="#000000" d="M 328 231 L 1080 231 L 1080 648 L 328 648 L 328 231 Z Z" stroke-miterlimit="10"/></g><g transform="translate(-318,-206) scale(1,1)"><rect fill="#ffffff" stroke="none" x="328" y="216" width="300.79999999999995" height="15"/></g><g transform="translate(-318,-206) scale(1,1)"><path fill="none" stroke="#000000" d="M 328 216 L 628.8 216 L 628.8 231 L 328 231 L 328 216 Z Z" stroke-miterlimit="10"/></g><g transform="translate(-318,-206) scale(1,1)"><rect fill="#ffffff" stroke="none" x="328" y="230" width="752" height="418"/></g><g transform="translate(-318,-206) scale(1,1)"><path fill="none" stroke="#000000" d="M 328 230 L 1080 230 L 1080 648 L 328 648 L 328 230 Z Z" stroke-miterlimit="10"/></g><g transform="translate(-318,-206) scale(1,1)"><g><path fill="none" stroke="none"/><text fill="#000000" stroke="none" font-family="Arial" font-size="13px" font-style="normal" font-weight="bold" text-decoration="none" x="667.869140625" y="250.5">Colisionneur</text></g></g><g transform="translate(-318,-206) scale(1,1)"><rect fill="#C0C0C0" stroke="none" x="519" y="311" width="413.3330078125" height="72" opacity="0.2"/></g><g transform="translate(-318,-206) scale(1,1)"><rect fill="#ffffff" stroke="none" x="512" y="304" width="413.3330078125" height="72"/></g><g transform="translate(-318,-206) scale(1,1)"><path fill="none" stroke="#000000" d="M 512 304 L 925.3330078125 304 L 925.3330078125 376 L 512 376 L 512 304 Z Z" stroke-miterlimit="10"/></g><g transform="translate(-318,-206) scale(1,1)"><path fill="none" stroke="#000000" d="M 512 329 L 925.3330078125 329" stroke-miterlimit="10"/></g><g transform="translate(-318,-206) scale(1,1)"><path fill="none" stroke="#000000" d="M 512 339 L 925.3330078125 339" stroke-miterlimit="10"/></g><g transform="translate(-318,-206) scale(1,1)"><g><path fill="none" stroke="none"/><text fill="#000000" stroke="none" font-family="Arial" font-size="13px" font-style="italic" font-weight="bold" text-decoration="none" x="684.71923828125" y="323.5">Colisionneur</text></g></g><g transform="translate(-318,-206) scale(1,1)"><g><path fill="none" stroke="none"/><text fill="#000000" stroke="none" font-family="Arial" font-size="13px" font-style="normal" font-weight="normal" text-decoration="none" x="517" y="356.5">+IsColision(e: Entite, m: Monde, posX: double, posY: double): boolean</text><path fill="none" stroke="#000000" d="M 517 356.5 L 921.3330078125 356.5" stroke-miterlimit="10"/></g></g><g transform="translate(-318,-206) scale(1,1)"><g><path fill="none" stroke="none"/><text fill="#000000" stroke="none" font-family="Arial" font-size="13px" font-style="normal" font-weight="normal" text-decoration="none" x="517" y="371.5">+OnGround(m: Monde, e: Entite): boolean</text><path fill="none" stroke="#000000" d="M 517 371.5 L 760.166015625 371.5" stroke-miterlimit="10"/></g></g><g transform="translate(-318,-206) scale(1,1)"><rect fill="#C0C0C0" stroke="none" x="367" y="463" width="358.4130859375" height="72" opacity="0.2"/></g><g transform="translate(-318,-206) scale(1,1)"><rect fill="#ffffff" stroke="none" x="360" y="456" width="358.4130859375" height="72"/></g><g transform="translate(-318,-206) scale(1,1)"><path fill="none" stroke="#000000" d="M 360 456 L 718.4130859375 456 L 718.4130859375 528 L 360 528 L 360 456 Z Z" stroke-miterlimit="10"/></g><g transform="translate(-318,-206) scale(1,1)"><path fill="none" stroke="#000000" d="M 360 481 L 718.4130859375 481" stroke-miterlimit="10"/></g><g transform="translate(-318,-206) scale(1,1)"><path fill="none" stroke="#000000" d="M 360 491 L 718.4130859375 491" stroke-miterlimit="10"/></g><g transform="translate(-318,-206) scale(1,1)"><g><path fill="none" stroke="none"/><text fill="#000000" stroke="none" font-family="Arial" font-size="13px" font-style="normal" font-weight="bold" text-decoration="none" x="489.70751953125" y="475.5">ColisionneurDino</text></g></g><g transform="translate(-318,-206) scale(1,1)"><g><path fill="none" stroke="none"/><text fill="#000000" stroke="none" font-family="Arial" font-size="13px" font-style="normal" font-weight="normal" text-decoration="none" x="365" y="508.5">+IsColision(m: Monde, posX: double, posY: double): boolean</text><path fill="none" stroke="#000000" d="M 365 508.5 L 714.4130859375 508.5" stroke-miterlimit="10"/></g></g><g transform="translate(-318,-206) scale(1,1)"><g><path fill="none" stroke="none"/><text fill="#000000" stroke="none" font-family="Arial" font-size="13px" font-style="normal" font-weight="normal" text-decoration="none" x="365" y="523.5">+OnGround(m: Monde): boolean</text><path fill="none" stroke="#000000" d="M 365 523.5 L 553.24609375 523.5" stroke-miterlimit="10"/></g></g><g transform="translate(-318,-206) scale(1,1)"><path fill="none" stroke="#000000" d="M 583 455 L 674 377" stroke-miterlimit="10"/></g><g transform="translate(-318,-206) scale(1,1)"><path fill="#FFFFFF" stroke="none" d="M 664.0468797173639 396.6197705552175 L 674 377 L 653.0888083492642 383.83535395910116"/></g><g transform="translate(-318,-206) scale(1,1)"><path fill="none" stroke="#000000" d="M 664.0468797173639 396.6197705552175 L 674 377 L 653.0888083492642 383.83535395910116 L 664.0468797173639 396.6197705552175" stroke-miterlimit="10"/></g><g transform="translate(-318,-206) scale(1,1)"><rect fill="#C0C0C0" stroke="none" x="639" y="575" width="251.38525390625" height="57" opacity="0.2"/></g><g transform="translate(-318,-206) scale(1,1)"><rect fill="#ffffff" stroke="none" x="632" y="568" width="251.38525390625" height="57"/></g><g transform="translate(-318,-206) scale(1,1)"><path fill="none" stroke="#000000" d="M 632 568 L 883.38525390625 568 L 883.38525390625 625 L 632 625 L 632 568 Z Z" stroke-miterlimit="10"/></g><g transform="translate(-318,-206) scale(1,1)"><path fill="none" stroke="#000000" d="M 632 593 L 883.38525390625 593" stroke-miterlimit="10"/></g><g transform="translate(-318,-206) scale(1,1)"><path fill="none" stroke="#000000" d="M 632 603 L 883.38525390625 603" stroke-miterlimit="10"/></g><g transform="translate(-318,-206) scale(1,1)"><g><path fill="none" stroke="none"/><text fill="#000000" stroke="none" font-family="Arial" font-size="13px" font-style="normal" font-weight="bold" text-decoration="none" x="708.92041015625" y="587.5">ColisionneurItem</text></g></g><g transform="translate(-318,-206) scale(1,1)"><g><path fill="none" stroke="none"/><text fill="#000000" stroke="none" font-family="Arial" font-size="13px" font-style="normal" font-weight="normal" text-decoration="none" x="637" y="620.5">+GetItem(d: Dino, items: List&lt;Item&gt;): Item</text><path fill="none" stroke="#000000" d="M 637 620.5 L 879.38525390625 620.5" stroke-miterlimit="10"/></g></g><g transform="translate(-318,-206) scale(1,1)"><rect fill="#C0C0C0" stroke="none" x="783" y="463" width="263.7060546875" height="57" opacity="0.2"/></g><g transform="translate(-318,-206) scale(1,1)"><rect fill="#ffffff" stroke="none" x="776" y="456" width="263.7060546875" height="57"/></g><g transform="translate(-318,-206) scale(1,1)"><path fill="none" stroke="#000000" d="M 776 456 L 1039.7060546875 456 L 1039.7060546875 513 L 776 513 L 776 456 Z Z" stroke-miterlimit="10"/></g><g transform="translate(-318,-206) scale(1,1)"><path fill="none" stroke="#000000" d="M 776 481 L 1039.7060546875 481" stroke-miterlimit="10"/></g><g transform="translate(-318,-206) scale(1,1)"><path fill="none" stroke="#000000" d="M 776 491 L 1039.7060546875 491" stroke-miterlimit="10"/></g><g transform="translate(-318,-206) scale(1,1)"><g><path fill="none" stroke="none"/><text fill="#000000" stroke="none" font-family="Arial" font-size="13px" font-style="normal" font-weight="bold" text-decoration="none" x="861.9658203125" y="475.5">ColisionneurPet</text></g></g><g transform="translate(-318,-206) scale(1,1)"><g><path fill="none" stroke="none"/><text fill="#000000" stroke="none" font-family="Arial" font-size="13px" font-style="normal" font-weight="normal" text-decoration="none" x="781" y="508.5">+OnMeteorite(m: Meteorite, p: Pet): boolean</text><path fill="none" stroke="#000000" d="M 781 508.5 L 1035.7060546875 508.5" stroke-miterlimit="10"/></g></g><g transform="translate(-318,-206) scale(1,1)"><path fill="none" stroke="#000000" d="M 753 567 L 724 377" stroke-miterlimit="10"/></g><g transform="translate(-318,-206) scale(1,1)"><path fill="#FFFFFF" stroke="none" d="M 735.3894232485878 395.8223547428192 L 724 377 L 718.7441237363339 398.36295308942636"/></g><g transform="translate(-318,-206) scale(1,1)"><path fill="none" stroke="#000000" d="M 735.3894232485878 395.8223547428192 L 724 377 L 718.7441237363339 398.36295308942636 L 735.3894232485878 395.8223547428192" stroke-miterlimit="10"/></g><g transform="translate(-318,-206) scale(1,1)"><path fill="none" stroke="#000000" d="M 869 455 L 767 377" stroke-miterlimit="10"/></g><g transform="translate(-318,-206) scale(1,1)"><path fill="#FFFFFF" stroke="none" d="M 788.2597447817345 382.6589090658459 L 767 377 L 778.0314567268821 396.0343626760374"/></g><g transform="translate(-318,-206) scale(1,1)"><path fill="none" stroke="#000000" d="M 788.2597447817345 382.6589090658459 L 767 377 L 778.0314567268821 396.0343626760374 L 788.2597447817345 382.6589090658459" stroke-miterlimit="10"/></g></g></svg>