<svg version="1.1" xmlns="http://www.w3.org/2000/svg" xmlns:xlink="http://www.w3.org/1999/xlink" width="1012" height="733"><defs/><g><text fill="#eeeeee" stroke="none" font-family="Arial" font-size="24px" font-style="normal" font-weight="normal" text-decoration="none" x="0" y="0"></text><text fill="#eeeeee" stroke="none" font-family="Arial" font-size="24px" font-style="normal" font-weight="normal" text-decoration="none" x="0" y="30"></text><text fill="#eeeeee" stroke="none" font-family="Arial" font-size="24px" font-style="normal" font-weight="normal" text-decoration="none" x="0" y="60"></text><text fill="#eeeeee" stroke="none" font-family="Arial" font-size="24px" font-style="normal" font-weight="normal" text-decoration="none" x="0" y="90"></text><text fill="#eeeeee" stroke="none" font-family="Arial" font-size="24px" font-style="normal" font-weight="normal" text-decoration="none" x="0" y="120"></text><text fill="#eeeeee" stroke="none" font-family="Arial" font-size="24px" font-style="normal" font-weight="normal" text-decoration="none" x="0" y="150"></text><text fill="#eeeeee" stroke="none" font-family="Arial" font-size="24px" font-style="normal" font-weight="normal" text-decoration="none" x="0" y="180"></text><text fill="#eeeeee" stroke="none" font-family="Arial" font-size="24px" font-style="normal" font-weight="normal" text-decoration="none" x="0" y="210"></text><text fill="#eeeeee" stroke="none" font-family="Arial" font-size="24px" font-style="normal" font-weight="normal" text-decoration="none" x="0" y="240"></text><text fill="#eeeeee" stroke="none" font-family="Arial" font-size="24px" font-style="normal" font-weight="normal" text-decoration="none" x="0" y="270"></text><text fill="#eeeeee" stroke="none" font-family="Arial" font-size="24px" font-style="normal" font-weight="normal" text-decoration="none" x="0" y="300"></text><text fill="#eeeeee" stroke="none" font-family="Arial" font-size="24px" font-style="normal" font-weight="normal" text-decoration="none" x="0" y="330"></text><text fill="#eeeeee" stroke="none" font-family="Arial" font-size="24px" font-style="normal" font-weight="normal" text-decoration="none" x="0" y="360"></text><text fill="#eeeeee" stroke="none" font-family="Arial" font-size="24px" font-style="normal" font-weight="normal" text-decoration="none" x="0" y="390"></text><text fill="#eeeeee" stroke="none" font-family="Arial" font-size="24px" font-style="normal" font-weight="normal" text-decoration="none" x="0" y="420"></text><text fill="#eeeeee" stroke="none" font-family="Arial" font-size="24px" font-style="normal" font-weight="normal" text-decoration="none" x="0" y="450"></text><text fill="#eeeeee" stroke="none" font-family="Arial" font-size="24px" font-style="normal" font-weight="normal" text-decoration="none" x="0" y="480"></text><text fill="#eeeeee" stroke="none" font-family="Arial" font-size="24px" font-style="normal" font-weight="normal" text-decoration="none" x="0" y="510"></text><text fill="#eeeeee" stroke="none" font-family="Arial" font-size="24px" font-style="normal" font-weight="normal" text-decoration="none" x="0" y="540"></text><text fill="#eeeeee" stroke="none" font-family="Arial" font-size="24px" font-style="normal" font-weight="normal" text-decoration="none" x="0" y="570"></text><text fill="#eeeeee" stroke="none" font-family="Arial" font-size="24px" font-style="normal" font-weight="normal" text-decoration="none" x="0" y="600"></text><text fill="#eeeeee" stroke="none" font-family="Arial" font-size="24px" font-style="normal" font-weight="normal" text-decoration="none" x="0" y="630"></text><text fill="#eeeeee" stroke="none" font-family="Arial" font-size="24px" font-style="normal" font-weight="normal" text-decoration="none" x="0" y="660"></text><text fill="#eeeeee" stroke="none" font-family="Arial" font-size="24px" font-style="normal" font-weight="normal" text-decoration="none" x="0" y="690"></text><text fill="#eeeeee" stroke="none" font-family="Arial" font-size="24px" font-style="normal" font-weight="normal" text-decoration="none" x="0" y="720"></text><text fill="#eeeeee" stroke="none" font-family="Arial" font-size="24px" font-style="normal" font-weight="normal" text-decoration="none" x="200" y="0"></text><text fill="#eeeeee" stroke="none" font-family="Arial" font-size="24px" font-style="normal" font-weight="normal" text-decoration="none" x="200" y="30"></text><text fill="#eeeeee" stroke="none" font-family="Arial" font-size="24px" font-style="normal" font-weight="normal" text-decoration="none" x="200" y="60"></text><text fill="#eeeeee" stroke="none" font-family="Arial" font-size="24px" font-style="normal" font-weight="normal" text-decoration="none" x="200" y="90"></text><text fill="#eeeeee" stroke="none" font-family="Arial" font-size="24px" font-style="normal" font-weight="normal" text-decoration="none" x="200" y="120"></text><text fill="#eeeeee" stroke="none" font-family="Arial" font-size="24px" font-style="normal" font-weight="normal" text-decoration="none" x="200" y="150"></text><text fill="#eeeeee" stroke="none" font-family="Arial" font-size="24px" font-style="normal" font-weight="normal" text-decoration="none" x="200" y="180"></text><text fill="#eeeeee" stroke="none" font-family="Arial" font-size="24px" font-style="normal" font-weight="normal" text-decoration="none" x="200" y="210"></text><text fill="#eeeeee" stroke="none" font-family="Arial" font-size="24px" font-style="normal" font-weight="normal" text-decoration="none" x="200" y="240"></text><text fill="#eeeeee" stroke="none" font-family="Arial" font-size="24px" font-style="normal" font-weight="normal" text-decoration="none" x="200" y="270"></text><text fill="#eeeeee" stroke="none" font-family="Arial" font-size="24px" font-style="normal" font-weight="normal" text-decoration="none" x="200" y="300"></text><text fill="#eeeeee" stroke="none" font-family="Arial" font-size="24px" font-style="normal" font-weight="normal" text-decoration="none" x="200" y="330"></text><text fill="#eeeeee" stroke="none" font-family="Arial" font-size="24px" font-style="normal" font-weight="normal" text-decoration="none" x="200" y="360"></text><text fill="#eeeeee" stroke="none" font-family="Arial" font-size="24px" font-style="normal" font-weight="normal" text-decoration="none" x="200" y="390"></text><text fill="#eeeeee" stroke="none" font-family="Arial" font-size="24px" font-style="normal" font-weight="normal" text-decoration="none" x="200" y="420"></text><text fill="#eeeeee" stroke="none" font-family="Arial" font-size="24px" font-style="normal" font-weight="normal" text-decoration="none" x="200" y="450"></text><text fill="#eeeeee" stroke="none" font-family="Arial" font-size="24px" font-style="normal" font-weight="normal" text-decoration="none" x="200" y="480"></text><text fill="#eeeeee" stroke="none" font-family="Arial" font-size="24px" font-style="normal" font-weight="normal" text-decoration="none" x="200" y="510"></text><text fill="#eeeeee" stroke="none" font-family="Arial" font-size="24px" font-style="normal" font-weight="normal" text-decoration="none" x="200" y="540"></text><text fill="#eeeeee" stroke="none" font-family="Arial" font-size="24px" font-style="normal" font-weight="normal" text-decoration="none" x="200" y="570"></text><text fill="#eeeeee" stroke="none" font-family="Arial" font-size="24px" font-style="normal" font-weight="normal" text-decoration="none" x="200" y="600"></text><text fill="#eeeeee" stroke="none" font-family="Arial" font-size="24px" font-style="normal" font-weight="normal" text-decoration="none" x="200" y="630"></text><text fill="#eeeeee" stroke="none" font-family="Arial" font-size="24px" font-style="normal" font-weight="normal" text-decoration="none" x="200" y="660"></text><text fill="#eeeeee" stroke="none" font-family="Arial" font-size="24px" font-style="normal" font-weight="normal" text-decoration="none" x="200" y="690"></text><text fill="#eeeeee" stroke="none" font-family="Arial" font-size="24px" font-style="normal" font-weight="normal" text-decoration="none" x="200" y="720"></text><text fill="#eeeeee" stroke="none" font-family="Arial" font-size="24px" font-style="normal" font-weight="normal" text-decoration="none" x="400" y="0"></text><text fill="#eeeeee" stroke="none" font-family="Arial" font-size="24px" font-style="normal" font-weight="normal" text-decoration="none" x="400" y="30"></text><text fill="#eeeeee" stroke="none" font-family="Arial" font-size="24px" font-style="normal" font-weight="normal" text-decoration="none" x="400" y="60"></text><text fill="#eeeeee" stroke="none" font-family="Arial" font-size="24px" font-style="normal" font-weight="normal" text-decoration="none" x="400" y="90"></text><text fill="#eeeeee" stroke="none" font-family="Arial" font-size="24px" font-style="normal" font-weight="normal" text-decoration="none" x="400" y="120"></text><text fill="#eeeeee" stroke="none" font-family="Arial" font-size="24px" font-style="normal" font-weight="normal" text-decoration="none" x="400" y="150"></text><text fill="#eeeeee" stroke="none" font-family="Arial" font-size="24px" font-style="normal" font-weight="normal" text-decoration="none" x="400" y="180"></text><text fill="#eeeeee" stroke="none" font-family="Arial" font-size="24px" font-style="normal" font-weight="normal" text-decoration="none" x="400" y="210"></text><text fill="#eeeeee" stroke="none" font-family="Arial" font-size="24px" font-style="normal" font-weight="normal" text-decoration="none" x="400" y="240"></text><text fill="#eeeeee" stroke="none" font-family="Arial" font-size="24px" font-style="normal" font-weight="normal" text-decoration="none" x="400" y="270"></text><text fill="#eeeeee" stroke="none" font-family="Arial" font-size="24px" font-style="normal" font-weight="normal" text-decoration="none" x="400" y="300"></text><text fill="#eeeeee" stroke="none" font-family="Arial" font-size="24px" font-style="normal" font-weight="normal" text-decoration="none" x="400" y="330"></text><text fill="#eeeeee" stroke="none" font-family="Arial" font-size="24px" font-style="normal" font-weight="normal" text-decoration="none" x="400" y="360"></text><text fill="#eeeeee" stroke="none" font-family="Arial" font-size="24px" font-style="normal" font-weight="normal" text-decoration="none" x="400" y="390"></text><text fill="#eeeeee" stroke="none" font-family="Arial" font-size="24px" font-style="normal" font-weight="normal" text-decoration="none" x="400" y="420"></text><text fill="#eeeeee" stroke="none" font-family="Arial" font-size="24px" font-style="normal" font-weight="normal" text-decoration="none" x="400" y="450"></text><text fill="#eeeeee" stroke="none" font-family="Arial" font-size="24px" font-style="normal" font-weight="normal" text-decoration="none" x="400" y="480"></text><text fill="#eeeeee" stroke="none" font-family="Arial" font-size="24px" font-style="normal" font-weight="normal" text-decoration="none" x="400" y="510"></text><text fill="#eeeeee" stroke="none" font-family="Arial" font-size="24px" font-style="normal" font-weight="normal" text-decoration="none" x="400" y="540"></text><text fill="#eeeeee" stroke="none" font-family="Arial" font-size="24px" font-style="normal" font-weight="normal" text-decoration="none" x="400" y="570"></text><text fill="#eeeeee" stroke="none" font-family="Arial" font-size="24px" font-style="normal" font-weight="normal" text-decoration="none" x="400" y="600"></text><text fill="#eeeeee" stroke="none" font-family="Arial" font-size="24px" font-style="normal" font-weight="normal" text-decoration="none" x="400" y="630"></text><text fill="#eeeeee" stroke="none" font-family="Arial" font-size="24px" font-style="normal" font-weight="normal" text-decoration="none" x="400" y="660"></text><text fill="#eeeeee" stroke="none" font-family="Arial" font-size="24px" font-style="normal" font-weight="normal" text-decoration="none" x="400" y="690"></text><text fill="#eeeeee" stroke="none" font-family="Arial" font-size="24px" font-style="normal" font-weight="normal" text-decoration="none" x="400" y="720"></text><text fill="#eeeeee" stroke="none" font-family="Arial" font-size="24px" font-style="normal" font-weight="normal" text-decoration="none" x="600" y="0"></text><text fill="#eeeeee" stroke="none" font-family="Arial" font-size="24px" font-style="normal" font-weight="normal" text-decoration="none" x="600" y="30"></text><text fill="#eeeeee" stroke="none" font-family="Arial" font-size="24px" font-style="normal" font-weight="normal" text-decoration="none" x="600" y="60"></text><text fill="#eeeeee" stroke="none" font-family="Arial" font-size="24px" font-style="normal" font-weight="normal" text-decoration="none" x="600" y="90"></text><text fill="#eeeeee" stroke="none" font-family="Arial" font-size="24px" font-style="normal" font-weight="normal" text-decoration="none" x="600" y="120"></text><text fill="#eeeeee" stroke="none" font-family="Arial" font-size="24px" font-style="normal" font-weight="normal" text-decoration="none" x="600" y="150"></text><text fill="#eeeeee" stroke="none" font-family="Arial" font-size="24px" font-style="normal" font-weight="normal" text-decoration="none" x="600" y="180"></text><text fill="#eeeeee" stroke="none" font-family="Arial" font-size="24px" font-style="normal" font-weight="normal" text-decoration="none" x="600" y="210"></text><text fill="#eeeeee" stroke="none" font-family="Arial" font-size="24px" font-style="normal" font-weight="normal" text-decoration="none" x="600" y="240"></text><text fill="#eeeeee" stroke="none" font-family="Arial" font-size="24px" font-style="normal" font-weight="normal" text-decoration="none" x="600" y="270"></text><text fill="#eeeeee" stroke="none" font-family="Arial" font-size="24px" font-style="normal" font-weight="normal" text-decoration="none" x="600" y="300"></text><text fill="#eeeeee" stroke="none" font-family="Arial" font-size="24px" font-style="normal" font-weight="normal" text-decoration="none" x="600" y="330"></text><text fill="#eeeeee" stroke="none" font-family="Arial" font-size="24px" font-style="normal" font-weight="normal" text-decoration="none" x="600" y="360"></text><text fill="#eeeeee" stroke="none" font-family="Arial" font-size="24px" font-style="normal" font-weight="normal" text-decoration="none" x="600" y="390"></text><text fill="#eeeeee" stroke="none" font-family="Arial" font-size="24px" font-style="normal" font-weight="normal" text-decoration="none" x="600" y="420"></text><text fill="#eeeeee" stroke="none" font-family="Arial" font-size="24px" font-style="normal" font-weight="normal" text-decoration="none" x="600" y="450"></text><text fill="#eeeeee" stroke="none" font-family="Arial" font-size="24px" font-style="normal" font-weight="normal" text-decoration="none" x="600" y="480"></text><text fill="#eeeeee" stroke="none" font-family="Arial" font-size="24px" font-style="normal" font-weight="normal" text-decoration="none" x="600" y="510"></text><text fill="#eeeeee" stroke="none" font-family="Arial" font-size="24px" font-style="normal" font-weight="normal" text-decoration="none" x="600" y="540"></text><text fill="#eeeeee" stroke="none" font-family="Arial" font-size="24px" font-style="normal" font-weight="normal" text-decoration="none" x="600" y="570"></text><text fill="#eeeeee" stroke="none" font-family="Arial" font-size="24px" font-style="normal" font-weight="normal" text-decoration="none" x="600" y="600"></text><text fill="#eeeeee" stroke="none" font-family="Arial" font-size="24px" font-style="normal" font-weight="normal" text-decoration="none" x="600" y="630"></text><text fill="#eeeeee" stroke="none" font-family="Arial" font-size="24px" font-style="normal" font-weight="normal" text-decoration="none" x="600" y="660"></text><text fill="#eeeeee" stroke="none" font-family="Arial" font-size="24px" font-style="normal" font-weight="normal" text-decoration="none" x="600" y="690"></text><text fill="#eeeeee" stroke="none" font-family="Arial" font-size="24px" font-style="normal" font-weight="normal" text-decoration="none" x="600" y="720"></text><text fill="#eeeeee" stroke="none" font-family="Arial" font-size="24px" font-style="normal" font-weight="normal" text-decoration="none" x="800" y="0"></text><text fill="#eeeeee" stroke="none" font-family="Arial" font-size="24px" font-style="normal" font-weight="normal" text-decoration="none" x="800" y="30"></text><text fill="#eeeeee" stroke="none" font-family="Arial" font-size="24px" font-style="normal" font-weight="normal" text-decoration="none" x="800" y="60"></text><text fill="#eeeeee" stroke="none" font-family="Arial" font-size="24px" font-style="normal" font-weight="normal" text-decoration="none" x="800" y="90"></text><text fill="#eeeeee" stroke="none" font-family="Arial" font-size="24px" font-style="normal" font-weight="normal" text-decoration="none" x="800" y="120"></text><text fill="#eeeeee" stroke="none" font-family="Arial" font-size="24px" font-style="normal" font-weight="normal" text-decoration="none" x="800" y="150"></text><text fill="#eeeeee" stroke="none" font-family="Arial" font-size="24px" font-style="normal" font-weight="normal" text-decoration="none" x="800" y="180"></text><text fill="#eeeeee" stroke="none" font-family="Arial" font-size="24px" font-style="normal" font-weight="normal" text-decoration="none" x="800" y="210"></text><text fill="#eeeeee" stroke="none" font-family="Arial" font-size="24px" font-style="normal" font-weight="normal" text-decoration="none" x="800" y="240"></text><text fill="#eeeeee" stroke="none" font-family="Arial" font-size="24px" font-style="normal" font-weight="normal" text-decoration="none" x="800" y="270"></text><text fill="#eeeeee" stroke="none" font-family="Arial" font-size="24px" font-style="normal" font-weight="normal" text-decoration="none" x="800" y="300"></text><text fill="#eeeeee" stroke="none" font-family="Arial" font-size="24px" font-style="normal" font-weight="normal" text-decoration="none" x="800" y="330"></text><text fill="#eeeeee" stroke="none" font-family="Arial" font-size="24px" font-style="normal" font-weight="normal" text-decoration="none" x="800" y="360"></text><text fill="#eeeeee" stroke="none" font-family="Arial" font-size="24px" font-style="normal" font-weight="normal" text-decoration="none" x="800" y="390"></text><text fill="#eeeeee" stroke="none" font-family="Arial" font-size="24px" font-style="normal" font-weight="normal" text-decoration="none" x="800" y="420"></text><text fill="#eeeeee" stroke="none" font-family="Arial" font-size="24px" font-style="normal" font-weight="normal" text-decoration="none" x="800" y="450"></text><text fill="#eeeeee" stroke="none" font-family="Arial" font-size="24px" font-style="normal" font-weight="normal" text-decoration="none" x="800" y="480"></text><text fill="#eeeeee" stroke="none" font-family="Arial" font-size="24px" font-style="normal" font-weight="normal" text-decoration="none" x="800" y="510"></text><text fill="#eeeeee" stroke="none" font-family="Arial" font-size="24px" font-style="normal" font-weight="normal" text-decoration="none" x="800" y="540"></text><text fill="#eeeeee" stroke="none" font-family="Arial" font-size="24px" font-style="normal" font-weight="normal" text-decoration="none" x="800" y="570"></text><text fill="#eeeeee" stroke="none" font-family="Arial" font-size="24px" font-style="normal" font-weight="normal" text-decoration="none" x="800" y="600"></text><text fill="#eeeeee" stroke="none" font-family="Arial" font-size="24px" font-style="normal" font-weight="normal" text-decoration="none" x="800" y="630"></text><text fill="#eeeeee" stroke="none" font-family="Arial" font-size="24px" font-style="normal" font-weight="normal" text-decoration="none" x="800" y="660"></text><text fill="#eeeeee" stroke="none" font-family="Arial" font-size="24px" font-style="normal" font-weight="normal" text-decoration="none" x="800" y="690"></text><text fill="#eeeeee" stroke="none" font-family="Arial" font-size="24px" font-style="normal" font-weight="normal" text-decoration="none" x="800" y="720"></text><text fill="#eeeeee" stroke="none" font-family="Arial" font-size="24px" font-style="normal" font-weight="normal" text-decoration="none" x="1000" y="0"></text><text fill="#eeeeee" stroke="none" font-family="Arial" font-size="24px" font-style="normal" font-weight="normal" text-decoration="none" x="1000" y="30"></text><text fill="#eeeeee" stroke="none" font-family="Arial" font-size="24px" font-style="normal" font-weight="normal" text-decoration="none" x="1000" y="60"></text><text fill="#eeeeee" stroke="none" font-family="Arial" font-size="24px" font-style="normal" font-weight="normal" text-decoration="none" x="1000" y="90"></text><text fill="#eeeeee" stroke="none" font-family="Arial" font-size="24px" font-style="normal" font-weight="normal" text-decoration="none" x="1000" y="120"></text><text fill="#eeeeee" stroke="none" font-family="Arial" font-size="24px" font-style="normal" font-weight="normal" text-decoration="none" x="1000" y="150"></text><text fill="#eeeeee" stroke="none" font-family="Arial" font-size="24px" font-style="normal" font-weight="normal" text-decoration="none" x="1000" y="180"></text><text fill="#eeeeee" stroke="none" font-family="Arial" font-size="24px" font-style="normal" font-weight="normal" text-decoration="none" x="1000" y="210"></text><text fill="#eeeeee" stroke="none" font-family="Arial" font-size="24px" font-style="normal" font-weight="normal" text-decoration="none" x="1000" y="240"></text><text fill="#eeeeee" stroke="none" font-family="Arial" font-size="24px" font-style="normal" font-weight="normal" text-decoration="none" x="1000" y="270"></text><text fill="#eeeeee" stroke="none" font-family="Arial" font-size="24px" font-style="normal" font-weight="normal" text-decoration="none" x="1000" y="300"></text><text fill="#eeeeee" stroke="none" font-family="Arial" font-size="24px" font-style="normal" font-weight="normal" text-decoration="none" x="1000" y="330"></text><text fill="#eeeeee" stroke="none" font-family="Arial" font-size="24px" font-style="normal" font-weight="normal" text-decoration="none" x="1000" y="360"></text><text fill="#eeeeee" stroke="none" font-family="Arial" font-size="24px" font-style="normal" font-weight="normal" text-decoration="none" x="1000" y="390"></text><text fill="#eeeeee" stroke="none" font-family="Arial" font-size="24px" font-style="normal" font-weight="normal" text-decoration="none" x="1000" y="420"></text><text fill="#eeeeee" stroke="none" font-family="Arial" font-size="24px" font-style="normal" font-weight="normal" text-decoration="none" x="1000" y="450"></text><text fill="#eeeeee" stroke="none" font-family="Arial" font-size="24px" font-style="normal" font-weight="normal" text-decoration="none" x="1000" y="480"></text><text fill="#eeeeee" stroke="none" font-family="Arial" font-size="24px" font-style="normal" font-weight="normal" text-decoration="none" x="1000" y="510"></text><text fill="#eeeeee" stroke="none" font-family="Arial" font-size="24px" font-style="normal" font-weight="normal" text-decoration="none" x="1000" y="540"></text><text fill="#eeeeee" stroke="none" font-family="Arial" font-size="24px" font-style="normal" font-weight="normal" text-decoration="none" x="1000" y="570"></text><text fill="#eeeeee" stroke="none" font-family="Arial" font-size="24px" font-style="normal" font-weight="normal" text-decoration="none" x="1000" y="600"></text><text fill="#eeeeee" stroke="none" font-family="Arial" font-size="24px" font-style="normal" font-weight="normal" text-decoration="none" x="1000" y="630"></text><text fill="#eeeeee" stroke="none" font-family="Arial" font-size="24px" font-style="normal" font-weight="normal" text-decoration="none" x="1000" y="660"></text><text fill="#eeeeee" stroke="none" font-family="Arial" font-size="24px" font-style="normal" font-weight="normal" text-decoration="none" x="1000" y="690"></text><text fill="#eeeeee" stroke="none" font-family="Arial" font-size="24px" font-style="normal" font-weight="normal" text-decoration="none" x="1000" y="720"></text><g transform="translate(-182,-230) scale(1,1)"><rect fill="#C0C0C0" stroke="none" x="327" y="247" width="345.6" height="15" opacity="0.2"/></g><g transform="translate(-182,-230) scale(1,1)"><rect fill="#C0C0C0" stroke="none" x="327" y="261" width="864" height="514" opacity="0.2"/></g><g transform="translate(-182,-230) scale(1,1)"><rect fill="#ffffff" stroke="none" x="320" y="255" width="864" height="513"/></g><g transform="translate(-182,-230) scale(1,1)"><path fill="none" stroke="#000000" d="M 320 255 L 1184 255 L 1184 768 L 320 768 L 320 255 Z Z" stroke-miterlimit="10"/></g><g transform="translate(-182,-230) scale(1,1)"><rect fill="#ffffff" stroke="none" x="320" y="240" width="345.6" height="15"/></g><g transform="translate(-182,-230) scale(1,1)"><path fill="none" stroke="#000000" d="M 320 240 L 665.6 240 L 665.6 255 L 320 255 L 320 240 Z Z" stroke-miterlimit="10"/></g><g transform="translate(-182,-230) scale(1,1)"><rect fill="#ffffff" stroke="none" x="320" y="254" width="864" height="514"/></g><g transform="translate(-182,-230) scale(1,1)"><path fill="none" stroke="#000000" d="M 320 254 L 1184 254 L 1184 768 L 320 768 L 320 254 Z Z" stroke-miterlimit="10"/></g><g transform="translate(-182,-230) scale(1,1)"><g><path fill="none" stroke="none"/><text fill="#000000" stroke="none" font-family="Arial" font-size="13px" font-style="normal" font-weight="bold" text-decoration="none" x="726.7109375" y="274.5">Createur</text></g></g><g transform="translate(-182,-230) scale(1,1)"><rect fill="#C0C0C0" stroke="none" x="687" y="303" width="143.748046875" height="72" opacity="0.2"/></g><g transform="translate(-182,-230) scale(1,1)"><rect fill="#ffffff" stroke="none" x="680" y="296" width="143.748046875" height="72"/></g><g transform="translate(-182,-230) scale(1,1)"><path fill="none" stroke="#000000" d="M 680 296 L 823.748046875 296 L 823.748046875 368 L 680 368 L 680 296 Z Z" stroke-miterlimit="10"/></g><g transform="translate(-182,-230) scale(1,1)"><path fill="none" stroke="#000000" d="M 680 321 L 823.748046875 321" stroke-miterlimit="10"/></g><g transform="translate(-182,-230) scale(1,1)"><path fill="none" stroke="#000000" d="M 680 331 L 823.748046875 331" stroke-miterlimit="10"/></g><g transform="translate(-182,-230) scale(1,1)"><g><path fill="none" stroke="none"/><text fill="#000000" stroke="none" font-family="Arial" font-size="13px" font-style="italic" font-weight="bold" text-decoration="none" x="726.5849609375" y="315.5">Createur</text></g></g><g transform="translate(-182,-230) scale(1,1)"><g><path fill="none" stroke="none"/><text fill="#000000" stroke="none" font-family="Arial" font-size="13px" font-style="normal" font-weight="normal" text-decoration="none" x="685" y="348.5">+Createur(m : Monde)</text></g></g><g transform="translate(-182,-230) scale(1,1)"><g><path fill="none" stroke="none"/><text fill="#000000" stroke="none" font-family="Arial" font-size="13px" font-style="italic" font-weight="normal" text-decoration="none" x="685" y="363.5">+creer(m : Monde)</text></g></g><g transform="translate(-182,-230) scale(1,1)"><rect fill="#C0C0C0" stroke="none" x="199" y="311" width="50.919921875" height="44" opacity="0.2"/></g><g transform="translate(-182,-230) scale(1,1)"><rect fill="#ffffff" stroke="none" x="192" y="304" width="50.919921875" height="44"/></g><g transform="translate(-182,-230) scale(1,1)"><path fill="none" stroke="#000000" d="M 192 304 L 242.919921875 304 L 242.919921875 348 L 192 348 L 192 304 Z Z" stroke-miterlimit="10"/></g><g transform="translate(-182,-230) scale(1,1)"><path fill="none" stroke="#000000" d="M 192 329 L 242.919921875 329" stroke-miterlimit="10"/></g><g transform="translate(-182,-230) scale(1,1)"><path fill="none" stroke="#000000" d="M 192 339 L 242.919921875 339" stroke-miterlimit="10"/></g><g transform="translate(-182,-230) scale(1,1)"><g><path fill="none" stroke="none"/><text fill="#000000" stroke="none" font-family="Arial" font-size="13px" font-style="normal" font-weight="bold" text-decoration="none" x="197.58544921875" y="323.5">Monde</text></g></g><g transform="translate(-182,-230) scale(1,1)"><path fill="none" stroke="#000000" d="M 679 331 L 244 326" stroke-miterlimit="10"/></g><g transform="translate(-182,-230) scale(1,1)"><path fill="none" stroke="#000000" d="M 254.21038565436837 321.9075649316001 L 244 326 L 254.11362152316488 330.3260443463025" stroke-miterlimit="10"/></g><g transform="translate(-182,-230) scale(1,1)"><g><path fill="none" stroke="none"/><text fill="#000000" stroke="none" font-family="Arial" font-size="13px" font-style="normal" font-weight="normal" text-decoration="none" x="260.13134765625" y="349.5">-m</text></g></g><g transform="translate(-182,-230) scale(1,1)"><rect fill="#C0C0C0" stroke="none" x="367" y="423" width="346.77783203125" height="100" opacity="0.2"/></g><g transform="translate(-182,-230) scale(1,1)"><rect fill="#ffffff" stroke="none" x="360" y="416" width="346.77783203125" height="100"/></g><g transform="translate(-182,-230) scale(1,1)"><path fill="none" stroke="#000000" d="M 360 416 L 706.77783203125 416 L 706.77783203125 516 L 360 516 L 360 416 Z Z" stroke-miterlimit="10"/></g><g transform="translate(-182,-230) scale(1,1)"><path fill="none" stroke="#000000" d="M 360 441 L 706.77783203125 441" stroke-miterlimit="10"/></g><g transform="translate(-182,-230) scale(1,1)"><path fill="none" stroke="#000000" d="M 360 464 L 706.77783203125 464" stroke-miterlimit="10"/></g><g transform="translate(-182,-230) scale(1,1)"><g><path fill="none" stroke="none"/><text fill="#000000" stroke="none" font-family="Arial" font-size="13px" font-style="normal" font-weight="bold" text-decoration="none" x="495.45849609375" y="435.5">CreateurItem</text></g></g><g transform="translate(-182,-230) scale(1,1)"><g><path fill="none" stroke="none"/><text fill="#000000" stroke="none" font-family="Arial" font-size="13px" font-style="normal" font-weight="normal" text-decoration="none" x="365" y="458.5">-nb_meteorites: int</text></g></g><g transform="translate(-182,-230) scale(1,1)"><g><path fill="none" stroke="none"/><text fill="#000000" stroke="none" font-family="Arial" font-size="13px" font-style="normal" font-weight="normal" text-decoration="none" x="365" y="481.5">+CreateurItem(m : Monde, boucleurM : BoucleurMeteorite)</text></g></g><g transform="translate(-182,-230) scale(1,1)"><g><path fill="none" stroke="none"/><text fill="#000000" stroke="none" font-family="Arial" font-size="13px" font-style="normal" font-weight="normal" text-decoration="none" x="365" y="496.5">+update()</text></g></g><g transform="translate(-182,-230) scale(1,1)"><g><path fill="none" stroke="none"/><text fill="#000000" stroke="none" font-family="Arial" font-size="13px" font-style="normal" font-weight="normal" text-decoration="none" x="365" y="511.5">+creer(m: Monde)</text></g></g><g transform="translate(-182,-230) scale(1,1)"><rect fill="#C0C0C0" stroke="none" x="519" y="847" width="50.919921875" height="44" opacity="0.2"/></g><g transform="translate(-182,-230) scale(1,1)"><rect fill="#ffffff" stroke="none" x="512" y="840" width="50.919921875" height="44"/></g><g transform="translate(-182,-230) scale(1,1)"><path fill="none" stroke="#000000" d="M 512 840 L 562.919921875 840 L 562.919921875 884 L 512 884 L 512 840 Z Z" stroke-miterlimit="10"/></g><g transform="translate(-182,-230) scale(1,1)"><path fill="none" stroke="#000000" d="M 512 865 L 562.919921875 865" stroke-miterlimit="10"/></g><g transform="translate(-182,-230) scale(1,1)"><path fill="none" stroke="#000000" d="M 512 875 L 562.919921875 875" stroke-miterlimit="10"/></g><g transform="translate(-182,-230) scale(1,1)"><g><path fill="none" stroke="none"/><text fill="#000000" stroke="none" font-family="Arial" font-size="13px" font-style="italic" font-weight="bold" text-decoration="none" x="522.64453125" y="859.5">Sujet</text></g></g><g transform="translate(-182,-230) scale(1,1)"><rect fill="#C0C0C0" stroke="none" x="903" y="847" width="85.5908203125" height="48" opacity="0.2"/></g><g transform="translate(-182,-230) scale(1,1)"><rect fill="#ffffff" stroke="none" x="896" y="840" width="85.5908203125" height="48"/></g><g transform="translate(-182,-230) scale(1,1)"><path fill="none" stroke="#000000" d="M 896 840 L 981.5908203125 840 L 981.5908203125 888 L 896 888 L 896 840 Z Z" stroke-miterlimit="10"/></g><g transform="translate(-182,-230) scale(1,1)"><g><path fill="none" stroke="none"/><text fill="#000000" stroke="none" font-family="Arial" font-size="13px" font-style="normal" font-weight="normal" text-decoration="none" x="906.635009765625" y="857.5">«interface»</text></g></g><g transform="translate(-182,-230) scale(1,1)"><g><path fill="none" stroke="none"/><text fill="#000000" stroke="none" font-family="Arial" font-size="13px" font-style="normal" font-weight="bold" text-decoration="none" x="903.029541015625" y="872.5">Observateur</text></g></g><g transform="translate(-182,-230) scale(1,1)"><path fill="none" stroke="#000000" d="M 616 415 L 691 369" stroke-miterlimit="10"/></g><g transform="translate(-182,-230) scale(1,1)"><path fill="#FFFFFF" stroke="none" d="M 678.0756145630131 386.80337779962554 L 691 369 L 669.2721902446966 372.44996858497916"/></g><g transform="translate(-182,-230) scale(1,1)"><path fill="none" stroke="#000000" d="M 678.0756145630131 386.80337779962554 L 691 369 L 669.2721902446966 372.44996858497916 L 678.0756145630131 386.80337779962554" stroke-miterlimit="10"/></g><g transform="translate(-182,-230) scale(1,1)"><path fill="none" stroke="#000000" d="M 881 415 L 809 369" stroke-miterlimit="10"/></g><g transform="translate(-182,-230) scale(1,1)"><path fill="#FFFFFF" stroke="none" d="M 830.6608146276342 372.848260602827 L 809 369 L 821.5953777411928 387.03764007725687"/></g><g transform="translate(-182,-230) scale(1,1)"><path fill="none" stroke="#000000" d="M 830.6608146276342 372.848260602827 L 809 369 L 821.5953777411928 387.03764007725687 L 830.6608146276342 372.848260602827" stroke-miterlimit="10"/></g><g transform="translate(-182,-230) scale(1,1)"><rect fill="#C0C0C0" stroke="none" x="591" y="607" width="333.7841796875" height="100" opacity="0.2"/></g><g transform="translate(-182,-230) scale(1,1)"><rect fill="#ffffff" stroke="none" x="584" y="600" width="333.7841796875" height="100"/></g><g transform="translate(-182,-230) scale(1,1)"><path fill="none" stroke="#000000" d="M 584 600 L 917.7841796875 600 L 917.7841796875 700 L 584 700 L 584 600 Z Z" stroke-miterlimit="10"/></g><g transform="translate(-182,-230) scale(1,1)"><path fill="none" stroke="#000000" d="M 584 625 L 917.7841796875 625" stroke-miterlimit="10"/></g><g transform="translate(-182,-230) scale(1,1)"><path fill="none" stroke="#000000" d="M 584 648 L 917.7841796875 648" stroke-miterlimit="10"/></g><g transform="translate(-182,-230) scale(1,1)"><g><path fill="none" stroke="none"/><text fill="#000000" stroke="none" font-family="Arial" font-size="13px" font-style="normal" font-weight="bold" text-decoration="none" x="715.8466796875" y="619.5">CreateurPet</text></g></g><g transform="translate(-182,-230) scale(1,1)"><g><path fill="none" stroke="none"/><text fill="#000000" stroke="none" font-family="Arial" font-size="13px" font-style="normal" font-weight="normal" text-decoration="none" x="589" y="642.5">-nb_meteorites: int</text></g></g><g transform="translate(-182,-230) scale(1,1)"><g><path fill="none" stroke="none"/><text fill="#000000" stroke="none" font-family="Arial" font-size="13px" font-style="normal" font-weight="normal" text-decoration="none" x="589" y="665.5">+CreateurPet(m: Monde, boucleurM: BoucleurMeteorite)</text></g></g><g transform="translate(-182,-230) scale(1,1)"><g><path fill="none" stroke="none"/><text fill="#000000" stroke="none" font-family="Arial" font-size="13px" font-style="normal" font-weight="normal" text-decoration="none" x="589" y="680.5">+update()</text></g></g><g transform="translate(-182,-230) scale(1,1)"><g><path fill="none" stroke="none"/><text fill="#000000" stroke="none" font-family="Arial" font-size="13px" font-style="normal" font-weight="normal" text-decoration="none" x="589" y="695.5">+creer(m: Monde)</text></g></g><g transform="translate(-182,-230) scale(1,1)"><rect fill="#C0C0C0" stroke="none" x="807" y="423" width="368.46142578125" height="130" opacity="0.2"/></g><g transform="translate(-182,-230) scale(1,1)"><rect fill="#ffffff" stroke="none" x="800" y="416" width="368.46142578125" height="130"/></g><g transform="translate(-182,-230) scale(1,1)"><path fill="none" stroke="#000000" d="M 800 416 L 1168.46142578125 416 L 1168.46142578125 546 L 800 546 L 800 416 Z Z" stroke-miterlimit="10"/></g><g transform="translate(-182,-230) scale(1,1)"><path fill="none" stroke="#000000" d="M 800 441 L 1168.46142578125 441" stroke-miterlimit="10"/></g><g transform="translate(-182,-230) scale(1,1)"><path fill="none" stroke="#000000" d="M 800 494 L 1168.46142578125 494" stroke-miterlimit="10"/></g><g transform="translate(-182,-230) scale(1,1)"><g><path fill="none" stroke="none"/><text fill="#000000" stroke="none" font-family="Arial" font-size="13px" font-style="normal" font-weight="bold" text-decoration="none" x="931.8466796875" y="435.5">CreateurMeteorite</text></g></g><g transform="translate(-182,-230) scale(1,1)"><g><path fill="none" stroke="none"/><text fill="#000000" stroke="none" font-family="Arial" font-size="13px" font-style="normal" font-weight="normal" text-decoration="none" x="805" y="458.5">-more_meteorite: int</text></g></g><g transform="translate(-182,-230) scale(1,1)"><g><path fill="none" stroke="none"/><text fill="#000000" stroke="none" font-family="Arial" font-size="13px" font-style="normal" font-weight="normal" text-decoration="none" x="805" y="473.5">-lenteur_jeu: int</text></g></g><g transform="translate(-182,-230) scale(1,1)"><g><path fill="none" stroke="none"/><text fill="#000000" stroke="none" font-family="Arial" font-size="13px" font-style="normal" font-weight="normal" text-decoration="none" x="805" y="488.5">-temoin: int</text></g></g><g transform="translate(-182,-230) scale(1,1)"><g><path fill="none" stroke="none"/><text fill="#000000" stroke="none" font-family="Arial" font-size="13px" font-style="normal" font-weight="normal" text-decoration="none" x="805" y="511.5">+CreateurMeteorite(m: Monde, boucleurM: BoucleurMeteorite)</text></g></g><g transform="translate(-182,-230) scale(1,1)"><g><path fill="none" stroke="none"/><text fill="#000000" stroke="none" font-family="Arial" font-size="13px" font-style="normal" font-weight="normal" text-decoration="none" x="805" y="526.5">+update()</text></g></g><g transform="translate(-182,-230) scale(1,1)"><g><path fill="none" stroke="none"/><text fill="#000000" stroke="none" font-family="Arial" font-size="13px" font-style="normal" font-weight="normal" text-decoration="none" x="805" y="541.5">+creer(m : Monde)</text></g></g><g transform="translate(-182,-230) scale(1,1)"><path fill="none" stroke="#000000" d="M 750 599 L 751 369" stroke-miterlimit="10"/></g><g transform="translate(-182,-230) scale(1,1)"><path fill="#FFFFFF" stroke="none" d="M 759.3305856876905 389.3617617631689 L 751 369 L 742.4926738113799 389.2885534506632"/></g><g transform="translate(-182,-230) scale(1,1)"><path fill="none" stroke="#000000" d="M 759.3305856876905 389.3617617631689 L 751 369 L 742.4926738113799 389.2885534506632 L 759.3305856876905 389.3617617631689" stroke-miterlimit="10"/></g><g transform="translate(-182,-230) scale(1,1)"><path fill="none" stroke="#000000" d="M 534 517 L 537 839" stroke-miterlimit="10"/></g><g transform="translate(-182,-230) scale(1,1)"><path fill="none" stroke="#000000" d="M 532.6959857327716 828.8769835924516 L 537 839 L 541.1146558731593 828.798548777479" stroke-miterlimit="10"/></g><g transform="translate(-182,-230) scale(1,1)"><path fill="none" stroke="#000000" d="M 699 701 L 560 839" stroke-miterlimit="10"/></g><g transform="translate(-182,-230) scale(1,1)"><path fill="none" stroke="#000000" d="M 564.2461784430217 828.852588082175 L 560 839 L 570.177805349776 834.8271977926015" stroke-miterlimit="10"/></g><g transform="translate(-182,-230) scale(1,1)"><path fill="none" stroke="#000000" d="M 988 547 L 1016 952 L 564 867" stroke-miterlimit="10"/></g><g transform="translate(-182,-230) scale(1,1)"><path fill="none" stroke="#000000" d="M 574.7655846454472 864.7411978303289 L 564 867 L 573.2096322377668 873.0152035747002" stroke-miterlimit="10"/></g><g transform="translate(-182,-230) scale(1,1)"><g><path fill="none" stroke="none"/><text fill="#000000" stroke="none" font-family="Arial" font-size="13px" font-style="normal" font-weight="normal" text-decoration="none" x="576.13134765625" y="859.5">-boucleur</text></g></g><g transform="translate(-182,-230) scale(1,1)"><path fill="none" stroke="#000000" d="M 795 701 L 916 839" stroke-miterlimit="10" stroke-dasharray="3"/></g><g transform="translate(-182,-230) scale(1,1)"><path fill="#FFFFFF" stroke="none" d="M 896.2697066588033 829.2678098728841 L 916 839 L 908.9302734183206 818.1668781489597"/></g><g transform="translate(-182,-230) scale(1,1)"><path fill="none" stroke="#000000" d="M 896.2697066588033 829.2678098728841 L 916 839 L 908.9302734183206 818.1668781489597 L 896.2697066588033 829.2678098728841" stroke-miterlimit="10"/></g><g transform="translate(-182,-230) scale(1,1)"><path fill="none" stroke="#000000" d="M 976 547 L 941 839" stroke-miterlimit="10" stroke-dasharray="3"/></g><g transform="translate(-182,-230) scale(1,1)"><path fill="#FFFFFF" stroke="none" d="M 935.0597422444359 817.8171451924567 L 941 839 L 951.7781437383486 819.8210631797407"/></g><g transform="translate(-182,-230) scale(1,1)"><path fill="none" stroke="#000000" d="M 935.0597422444359 817.8171451924567 L 941 839 L 951.7781437383486 819.8210631797407 L 935.0597422444359 817.8171451924567" stroke-miterlimit="10"/></g><g transform="translate(-182,-230) scale(1,1)"><path fill="none" stroke="#000000" d="M 527 517 L 472 952 L 895 872" stroke-miterlimit="10" stroke-dasharray="3"/></g><g transform="translate(-182,-230) scale(1,1)"><path fill="#FFFFFF" stroke="none" d="M 876.59320136672 884.0494715267467 L 895 872 L 873.4641648401956 867.5046908927492"/></g><g transform="translate(-182,-230) scale(1,1)"><path fill="none" stroke="#000000" d="M 876.59320136672 884.0494715267467 L 895 872 L 873.4641648401956 867.5046908927492 L 876.59320136672 884.0494715267467" stroke-miterlimit="10"/></g></g></svg>