<svg version="1.1" xmlns="http://www.w3.org/2000/svg" xmlns:xlink="http://www.w3.org/1999/xlink" width="748" height="652"><defs/><g><text fill="#eeeeee" stroke="none" font-family="Arial" font-size="24px" font-style="normal" font-weight="normal" text-decoration="none" x="0" y="0"></text><text fill="#eeeeee" stroke="none" font-family="Arial" font-size="24px" font-style="normal" font-weight="normal" text-decoration="none" x="0" y="30"></text><text fill="#eeeeee" stroke="none" font-family="Arial" font-size="24px" font-style="normal" font-weight="normal" text-decoration="none" x="0" y="60"></text><text fill="#eeeeee" stroke="none" font-family="Arial" font-size="24px" font-style="normal" font-weight="normal" text-decoration="none" x="0" y="90"></text><text fill="#eeeeee" stroke="none" font-family="Arial" font-size="24px" font-style="normal" font-weight="normal" text-decoration="none" x="0" y="120"></text><text fill="#eeeeee" stroke="none" font-family="Arial" font-size="24px" font-style="normal" font-weight="normal" text-decoration="none" x="0" y="150"></text><text fill="#eeeeee" stroke="none" font-family="Arial" font-size="24px" font-style="normal" font-weight="normal" text-decoration="none" x="0" y="180"></text><text fill="#eeeeee" stroke="none" font-family="Arial" font-size="24px" font-style="normal" font-weight="normal" text-decoration="none" x="0" y="210"></text><text fill="#eeeeee" stroke="none" font-family="Arial" font-size="24px" font-style="normal" font-weight="normal" text-decoration="none" x="0" y="240"></text><text fill="#eeeeee" stroke="none" font-family="Arial" font-size="24px" font-style="normal" font-weight="normal" text-decoration="none" x="0" y="270"></text><text fill="#eeeeee" stroke="none" font-family="Arial" font-size="24px" font-style="normal" font-weight="normal" text-decoration="none" x="0" y="300"></text><text fill="#eeeeee" stroke="none" font-family="Arial" font-size="24px" font-style="normal" font-weight="normal" text-decoration="none" x="0" y="330"></text><text fill="#eeeeee" stroke="none" font-family="Arial" font-size="24px" font-style="normal" font-weight="normal" text-decoration="none" x="0" y="360"></text><text fill="#eeeeee" stroke="none" font-family="Arial" font-size="24px" font-style="normal" font-weight="normal" text-decoration="none" x="0" y="390"></text><text fill="#eeeeee" stroke="none" font-family="Arial" font-size="24px" font-style="normal" font-weight="normal" text-decoration="none" x="0" y="420"></text><text fill="#eeeeee" stroke="none" font-family="Arial" font-size="24px" font-style="normal" font-weight="normal" text-decoration="none" x="0" y="450"></text><text fill="#eeeeee" stroke="none" font-family="Arial" font-size="24px" font-style="normal" font-weight="normal" text-decoration="none" x="0" y="480"></text><text fill="#eeeeee" stroke="none" font-family="Arial" font-size="24px" font-style="normal" font-weight="normal" text-decoration="none" x="0" y="510"></text><text fill="#eeeeee" stroke="none" font-family="Arial" font-size="24px" font-style="normal" font-weight="normal" text-decoration="none" x="0" y="540"></text><text fill="#eeeeee" stroke="none" font-family="Arial" font-size="24px" font-style="normal" font-weight="normal" text-decoration="none" x="0" y="570"></text><text fill="#eeeeee" stroke="none" font-family="Arial" font-size="24px" font-style="normal" font-weight="normal" text-decoration="none" x="0" y="600"></text><text fill="#eeeeee" stroke="none" font-family="Arial" font-size="24px" font-style="normal" font-weight="normal" text-decoration="none" x="0" y="630"></text><text fill="#eeeeee" stroke="none" font-family="Arial" font-size="24px" font-style="normal" font-weight="normal" text-decoration="none" x="200" y="0"></text><text fill="#eeeeee" stroke="none" font-family="Arial" font-size="24px" font-style="normal" font-weight="normal" text-decoration="none" x="200" y="30"></text><text fill="#eeeeee" stroke="none" font-family="Arial" font-size="24px" font-style="normal" font-weight="normal" text-decoration="none" x="200" y="60"></text><text fill="#eeeeee" stroke="none" font-family="Arial" font-size="24px" font-style="normal" font-weight="normal" text-decoration="none" x="200" y="90"></text><text fill="#eeeeee" stroke="none" font-family="Arial" font-size="24px" font-style="normal" font-weight="normal" text-decoration="none" x="200" y="120"></text><text fill="#eeeeee" stroke="none" font-family="Arial" font-size="24px" font-style="normal" font-weight="normal" text-decoration="none" x="200" y="150"></text><text fill="#eeeeee" stroke="none" font-family="Arial" font-size="24px" font-style="normal" font-weight="normal" text-decoration="none" x="200" y="180"></text><text fill="#eeeeee" stroke="none" font-family="Arial" font-size="24px" font-style="normal" font-weight="normal" text-decoration="none" x="200" y="210"></text><text fill="#eeeeee" stroke="none" font-family="Arial" font-size="24px" font-style="normal" font-weight="normal" text-decoration="none" x="200" y="240"></text><text fill="#eeeeee" stroke="none" font-family="Arial" font-size="24px" font-style="normal" font-weight="normal" text-decoration="none" x="200" y="270"></text><text fill="#eeeeee" stroke="none" font-family="Arial" font-size="24px" font-style="normal" font-weight="normal" text-decoration="none" x="200" y="300"></text><text fill="#eeeeee" stroke="none" font-family="Arial" font-size="24px" font-style="normal" font-weight="normal" text-decoration="none" x="200" y="330"></text><text fill="#eeeeee" stroke="none" font-family="Arial" font-size="24px" font-style="normal" font-weight="normal" text-decoration="none" x="200" y="360"></text><text fill="#eeeeee" stroke="none" font-family="Arial" font-size="24px" font-style="normal" font-weight="normal" text-decoration="none" x="200" y="390"></text><text fill="#eeeeee" stroke="none" font-family="Arial" font-size="24px" font-style="normal" font-weight="normal" text-decoration="none" x="200" y="420"></text><text fill="#eeeeee" stroke="none" font-family="Arial" font-size="24px" font-style="normal" font-weight="normal" text-decoration="none" x="200" y="450"></text><text fill="#eeeeee" stroke="none" font-family="Arial" font-size="24px" font-style="normal" font-weight="normal" text-decoration="none" x="200" y="480"></text><text fill="#eeeeee" stroke="none" font-family="Arial" font-size="24px" font-style="normal" font-weight="normal" text-decoration="none" x="200" y="510"></text><text fill="#eeeeee" stroke="none" font-family="Arial" font-size="24px" font-style="normal" font-weight="normal" text-decoration="none" x="200" y="540"></text><text fill="#eeeeee" stroke="none" font-family="Arial" font-size="24px" font-style="normal" font-weight="normal" text-decoration="none" x="200" y="570"></text><text fill="#eeeeee" stroke="none" font-family="Arial" font-size="24px" font-style="normal" font-weight="normal" text-decoration="none" x="200" y="600"></text><text fill="#eeeeee" stroke="none" font-family="Arial" font-size="24px" font-style="normal" font-weight="normal" text-decoration="none" x="200" y="630"></text><text fill="#eeeeee" stroke="none" font-family="Arial" font-size="24px" font-style="normal" font-weight="normal" text-decoration="none" x="400" y="0"></text><text fill="#eeeeee" stroke="none" font-family="Arial" font-size="24px" font-style="normal" font-weight="normal" text-decoration="none" x="400" y="30"></text><text fill="#eeeeee" stroke="none" font-family="Arial" font-size="24px" font-style="normal" font-weight="normal" text-decoration="none" x="400" y="60"></text><text fill="#eeeeee" stroke="none" font-family="Arial" font-size="24px" font-style="normal" font-weight="normal" text-decoration="none" x="400" y="90"></text><text fill="#eeeeee" stroke="none" font-family="Arial" font-size="24px" font-style="normal" font-weight="normal" text-decoration="none" x="400" y="120"></text><text fill="#eeeeee" stroke="none" font-family="Arial" font-size="24px" font-style="normal" font-weight="normal" text-decoration="none" x="400" y="150"></text><text fill="#eeeeee" stroke="none" font-family="Arial" font-size="24px" font-style="normal" font-weight="normal" text-decoration="none" x="400" y="180"></text><text fill="#eeeeee" stroke="none" font-family="Arial" font-size="24px" font-style="normal" font-weight="normal" text-decoration="none" x="400" y="210"></text><text fill="#eeeeee" stroke="none" font-family="Arial" font-size="24px" font-style="normal" font-weight="normal" text-decoration="none" x="400" y="240"></text><text fill="#eeeeee" stroke="none" font-family="Arial" font-size="24px" font-style="normal" font-weight="normal" text-decoration="none" x="400" y="270"></text><text fill="#eeeeee" stroke="none" font-family="Arial" font-size="24px" font-style="normal" font-weight="normal" text-decoration="none" x="400" y="300"></text><text fill="#eeeeee" stroke="none" font-family="Arial" font-size="24px" font-style="normal" font-weight="normal" text-decoration="none" x="400" y="330"></text><text fill="#eeeeee" stroke="none" font-family="Arial" font-size="24px" font-style="normal" font-weight="normal" text-decoration="none" x="400" y="360"></text><text fill="#eeeeee" stroke="none" font-family="Arial" font-size="24px" font-style="normal" font-weight="normal" text-decoration="none" x="400" y="390"></text><text fill="#eeeeee" stroke="none" font-family="Arial" font-size="24px" font-style="normal" font-weight="normal" text-decoration="none" x="400" y="420"></text><text fill="#eeeeee" stroke="none" font-family="Arial" font-size="24px" font-style="normal" font-weight="normal" text-decoration="none" x="400" y="450"></text><text fill="#eeeeee" stroke="none" font-family="Arial" font-size="24px" font-style="normal" font-weight="normal" text-decoration="none" x="400" y="480"></text><text fill="#eeeeee" stroke="none" font-family="Arial" font-size="24px" font-style="normal" font-weight="normal" text-decoration="none" x="400" y="510"></text><text fill="#eeeeee" stroke="none" font-family="Arial" font-size="24px" font-style="normal" font-weight="normal" text-decoration="none" x="400" y="540"></text><text fill="#eeeeee" stroke="none" font-family="Arial" font-size="24px" font-style="normal" font-weight="normal" text-decoration="none" x="400" y="570"></text><text fill="#eeeeee" stroke="none" font-family="Arial" font-size="24px" font-style="normal" font-weight="normal" text-decoration="none" x="400" y="600"></text><text fill="#eeeeee" stroke="none" font-family="Arial" font-size="24px" font-style="normal" font-weight="normal" text-decoration="none" x="400" y="630"></text><text fill="#eeeeee" stroke="none" font-family="Arial" font-size="24px" font-style="normal" font-weight="normal" text-decoration="none" x="600" y="0"></text><text fill="#eeeeee" stroke="none" font-family="Arial" font-size="24px" font-style="normal" font-weight="normal" text-decoration="none" x="600" y="30"></text><text fill="#eeeeee" stroke="none" font-family="Arial" font-size="24px" font-style="normal" font-weight="normal" text-decoration="none" x="600" y="60"></text><text fill="#eeeeee" stroke="none" font-family="Arial" font-size="24px" font-style="normal" font-weight="normal" text-decoration="none" x="600" y="90"></text><text fill="#eeeeee" stroke="none" font-family="Arial" font-size="24px" font-style="normal" font-weight="normal" text-decoration="none" x="600" y="120"></text><text fill="#eeeeee" stroke="none" font-family="Arial" font-size="24px" font-style="normal" font-weight="normal" text-decoration="none" x="600" y="150"></text><text fill="#eeeeee" stroke="none" font-family="Arial" font-size="24px" font-style="normal" font-weight="normal" text-decoration="none" x="600" y="180"></text><text fill="#eeeeee" stroke="none" font-family="Arial" font-size="24px" font-style="normal" font-weight="normal" text-decoration="none" x="600" y="210"></text><text fill="#eeeeee" stroke="none" font-family="Arial" font-size="24px" font-style="normal" font-weight="normal" text-decoration="none" x="600" y="240"></text><text fill="#eeeeee" stroke="none" font-family="Arial" font-size="24px" font-style="normal" font-weight="normal" text-decoration="none" x="600" y="270"></text><text fill="#eeeeee" stroke="none" font-family="Arial" font-size="24px" font-style="normal" font-weight="normal" text-decoration="none" x="600" y="300"></text><text fill="#eeeeee" stroke="none" font-family="Arial" font-size="24px" font-style="normal" font-weight="normal" text-decoration="none" x="600" y="330"></text><text fill="#eeeeee" stroke="none" font-family="Arial" font-size="24px" font-style="normal" font-weight="normal" text-decoration="none" x="600" y="360"></text><text fill="#eeeeee" stroke="none" font-family="Arial" font-size="24px" font-style="normal" font-weight="normal" text-decoration="none" x="600" y="390"></text><text fill="#eeeeee" stroke="none" font-family="Arial" font-size="24px" font-style="normal" font-weight="normal" text-decoration="none" x="600" y="420"></text><text fill="#eeeeee" stroke="none" font-family="Arial" font-size="24px" font-style="normal" font-weight="normal" text-decoration="none" x="600" y="450"></text><text fill="#eeeeee" stroke="none" font-family="Arial" font-size="24px" font-style="normal" font-weight="normal" text-decoration="none" x="600" y="480"></text><text fill="#eeeeee" stroke="none" font-family="Arial" font-size="24px" font-style="normal" font-weight="normal" text-decoration="none" x="600" y="510"></text><text fill="#eeeeee" stroke="none" font-family="Arial" font-size="24px" font-style="normal" font-weight="normal" text-decoration="none" x="600" y="540"></text><text fill="#eeeeee" stroke="none" font-family="Arial" font-size="24px" font-style="normal" font-weight="normal" text-decoration="none" x="600" y="570"></text><text fill="#eeeeee" stroke="none" font-family="Arial" font-size="24px" font-style="normal" font-weight="normal" text-decoration="none" x="600" y="600"></text><text fill="#eeeeee" stroke="none" font-family="Arial" font-size="24px" font-style="normal" font-weight="normal" text-decoration="none" x="600" y="630"></text><g transform="translate(-134,-126) scale(1,1)"><rect fill="#C0C0C0" stroke="none" x="311" y="239" width="227.20000000000005" height="15" opacity="0.2"/></g><g transform="translate(-134,-126) scale(1,1)"><rect fill="#C0C0C0" stroke="none" x="311" y="253" width="568" height="522" opacity="0.2"/></g><g transform="translate(-134,-126) scale(1,1)"><rect fill="#ffffff" stroke="none" x="304" y="247" width="568" height="521"/></g><g transform="translate(-134,-126) scale(1,1)"><path fill="none" stroke="#000000" d="M 304 247 L 872 247 L 872 768 L 304 768 L 304 247 Z Z" stroke-miterlimit="10"/></g><g transform="translate(-134,-126) scale(1,1)"><rect fill="#ffffff" stroke="none" x="304" y="232" width="227.20000000000005" height="15"/></g><g transform="translate(-134,-126) scale(1,1)"><path fill="none" stroke="#000000" d="M 304 232 L 531.2 232 L 531.2 247 L 304 247 L 304 232 Z Z" stroke-miterlimit="10"/></g><g transform="translate(-134,-126) scale(1,1)"><rect fill="#ffffff" stroke="none" x="304" y="246" width="568" height="522"/></g><g transform="translate(-134,-126) scale(1,1)"><path fill="none" stroke="#000000" d="M 304 246 L 872 246 L 872 768 L 304 768 L 304 246 Z Z" stroke-miterlimit="10"/></g><g transform="translate(-134,-126) scale(1,1)"><g><path fill="none" stroke="none"/><text fill="#000000" stroke="none" font-family="Arial" font-size="13px" font-style="normal" font-weight="bold" text-decoration="none" x="558.372314453125" y="266.5">Deplaceur</text></g></g><g transform="translate(-134,-126) scale(1,1)"><rect fill="#C0C0C0" stroke="none" x="271" y="143" width="85.5908203125" height="48" opacity="0.2"/></g><g transform="translate(-134,-126) scale(1,1)"><rect fill="#ffffff" stroke="none" x="264" y="136" width="85.5908203125" height="48"/></g><g transform="translate(-134,-126) scale(1,1)"><path fill="none" stroke="#000000" d="M 264 136 L 349.5908203125 136 L 349.5908203125 184 L 264 184 L 264 136 Z Z" stroke-miterlimit="10"/></g><g transform="translate(-134,-126) scale(1,1)"><g><path fill="none" stroke="none"/><text fill="#000000" stroke="none" font-family="Arial" font-size="13px" font-style="normal" font-weight="normal" text-decoration="none" x="274.635009765625" y="153.5">«interface»</text></g></g><g transform="translate(-134,-126) scale(1,1)"><g><path fill="none" stroke="none"/><text fill="#000000" stroke="none" font-family="Arial" font-size="13px" font-style="normal" font-weight="bold" text-decoration="none" x="271.029541015625" y="168.5">Observateur</text></g></g><g transform="translate(-134,-126) scale(1,1)"><path fill="none" stroke="#000000" d="M 401 303 L 368 264 L 321 185" stroke-miterlimit="10" stroke-dasharray="3"/></g><g transform="translate(-134,-126) scale(1,1)"><path fill="#FFFFFF" stroke="none" d="M 338.62757636720204 198.16315127233827 L 321 185 L 324.15682525867754 206.772332311587"/></g><g transform="translate(-134,-126) scale(1,1)"><path fill="none" stroke="#000000" d="M 338.62757636720204 198.16315127233827 L 321 185 L 324.15682525867754 206.772332311587 L 338.62757636720204 198.16315127233827" stroke-miterlimit="10"/></g><g transform="translate(-134,-126) scale(1,1)"><rect fill="#C0C0C0" stroke="none" x="151" y="415" width="50.919921875" height="44" opacity="0.2"/></g><g transform="translate(-134,-126) scale(1,1)"><rect fill="#ffffff" stroke="none" x="144" y="408" width="50.919921875" height="44"/></g><g transform="translate(-134,-126) scale(1,1)"><path fill="none" stroke="#000000" d="M 144 408 L 194.919921875 408 L 194.919921875 452 L 144 452 L 144 408 Z Z" stroke-miterlimit="10"/></g><g transform="translate(-134,-126) scale(1,1)"><path fill="none" stroke="#000000" d="M 144 433 L 194.919921875 433" stroke-miterlimit="10"/></g><g transform="translate(-134,-126) scale(1,1)"><path fill="none" stroke="#000000" d="M 144 443 L 194.919921875 443" stroke-miterlimit="10"/></g><g transform="translate(-134,-126) scale(1,1)"><g><path fill="none" stroke="none"/><text fill="#000000" stroke="none" font-family="Arial" font-size="13px" font-style="italic" font-weight="bold" text-decoration="none" x="156.463134765625" y="427.5">Sujet</text></g></g><g transform="translate(-134,-126) scale(1,1)"><path fill="none" stroke="#000000" d="M 383 349 L 264 384 L 196 417" stroke-miterlimit="10"/></g><g transform="translate(-134,-126) scale(1,1)"><path fill="none" stroke="#000000" d="M 203.30505075100766 408.7758749082226 L 196 417 L 206.98078554467162 416.35011630122716" stroke-miterlimit="10"/></g><g transform="translate(-134,-126) scale(1,1)"><g><path fill="none" stroke="none"/><text fill="#000000" stroke="none" font-family="Arial" font-size="13px" font-style="normal" font-weight="normal" text-decoration="none" x="199.5" y="436.5">-/boucleur</text></g></g><g transform="translate(-134,-126) scale(1,1)"><rect fill="#C0C0C0" stroke="none" x="151" y="279" width="50.919921875" height="44" opacity="0.2"/></g><g transform="translate(-134,-126) scale(1,1)"><rect fill="#ffffff" stroke="none" x="144" y="272" width="50.919921875" height="44"/></g><g transform="translate(-134,-126) scale(1,1)"><path fill="none" stroke="#000000" d="M 144 272 L 194.919921875 272 L 194.919921875 316 L 144 316 L 144 272 Z Z" stroke-miterlimit="10"/></g><g transform="translate(-134,-126) scale(1,1)"><path fill="none" stroke="#000000" d="M 144 297 L 194.919921875 297" stroke-miterlimit="10"/></g><g transform="translate(-134,-126) scale(1,1)"><path fill="none" stroke="#000000" d="M 144 307 L 194.919921875 307" stroke-miterlimit="10"/></g><g transform="translate(-134,-126) scale(1,1)"><g><path fill="none" stroke="none"/><text fill="#000000" stroke="none" font-family="Arial" font-size="13px" font-style="normal" font-weight="bold" text-decoration="none" x="149.58544921875" y="291.5">Monde</text></g></g><g transform="translate(-134,-126) scale(1,1)"><path fill="none" stroke="#000000" d="M 383 324 L 272 296 L 196 295" stroke-miterlimit="10"/></g><g transform="translate(-134,-126) scale(1,1)"><path fill="none" stroke="#000000" d="M 206.2171788363521 290.9245544260782 L 196 295 L 206.10641164145704 299.34286123810347" stroke-miterlimit="10"/></g><g transform="translate(-134,-126) scale(1,1)"><g><path fill="none" stroke="none"/><text fill="#000000" stroke="none" font-family="Arial" font-size="13px" font-style="normal" font-weight="normal" text-decoration="none" x="199.5" y="316.5">-/monde</text></g></g><g transform="translate(-134,-126) scale(1,1)"><path fill="none" stroke="#000000" d="M 425 519 L 427 369" stroke-miterlimit="10"/></g><g transform="translate(-134,-126) scale(1,1)"><path fill="#FFFFFF" stroke="none" d="M 435.1473066763081 389.43578708839436 L 427 369 L 418.3107321701358 389.21129942831203"/></g><g transform="translate(-134,-126) scale(1,1)"><path fill="none" stroke="#000000" d="M 435.1473066763081 389.43578708839436 L 427 369 L 418.3107321701358 389.21129942831203 L 435.1473066763081 389.43578708839436" stroke-miterlimit="10"/></g><g transform="translate(-134,-126) scale(1,1)"><rect fill="#C0C0C0" stroke="none" x="319" y="527" width="225.3916015625" height="85" opacity="0.2"/></g><g transform="translate(-134,-126) scale(1,1)"><rect fill="#ffffff" stroke="none" x="312" y="520" width="225.3916015625" height="85"/></g><g transform="translate(-134,-126) scale(1,1)"><path fill="none" stroke="#000000" d="M 312 520 L 537.3916015625 520 L 537.3916015625 605 L 312 605 L 312 520 Z Z" stroke-miterlimit="10"/></g><g transform="translate(-134,-126) scale(1,1)"><path fill="none" stroke="#000000" d="M 312 545 L 537.3916015625 545" stroke-miterlimit="10"/></g><g transform="translate(-134,-126) scale(1,1)"><path fill="none" stroke="#000000" d="M 312 568 L 537.3916015625 568" stroke-miterlimit="10"/></g><g transform="translate(-134,-126) scale(1,1)"><g><path fill="none" stroke="none"/><text fill="#000000" stroke="none" font-family="Arial" font-size="13px" font-style="normal" font-weight="bold" text-decoration="none" x="382.4267578125" y="539.5">DeplaceurItem</text></g></g><g transform="translate(-134,-126) scale(1,1)"><g><path fill="none" stroke="none"/><text fill="#000000" stroke="none" font-family="Arial" font-size="13px" font-style="normal" font-weight="normal" text-decoration="none" x="317" y="562.5">-GRAVITE: int {final}</text></g></g><g transform="translate(-134,-126) scale(1,1)"><g><path fill="none" stroke="none"/><text fill="#000000" stroke="none" font-family="Arial" font-size="13px" font-style="normal" font-weight="normal" text-decoration="none" x="317" y="585.5">+DeplaceurItem(s : Sujet, m : Monde)</text></g></g><g transform="translate(-134,-126) scale(1,1)"><g><path fill="none" stroke="none"/><text fill="#000000" stroke="none" font-family="Arial" font-size="13px" font-style="normal" font-weight="normal" text-decoration="none" x="317" y="600.5">+update()</text></g></g><g transform="translate(-134,-126) scale(1,1)"><rect fill="#C0C0C0" stroke="none" x="599" y="295" width="254.298828125" height="115" opacity="0.2"/></g><g transform="translate(-134,-126) scale(1,1)"><rect fill="#ffffff" stroke="none" x="592" y="288" width="254.298828125" height="115"/></g><g transform="translate(-134,-126) scale(1,1)"><path fill="none" stroke="#000000" d="M 592 288 L 846.298828125 288 L 846.298828125 403 L 592 403 L 592 288 Z Z" stroke-miterlimit="10"/></g><g transform="translate(-134,-126) scale(1,1)"><path fill="none" stroke="#000000" d="M 592 313 L 846.298828125 313" stroke-miterlimit="10"/></g><g transform="translate(-134,-126) scale(1,1)"><path fill="none" stroke="#000000" d="M 592 366 L 846.298828125 366" stroke-miterlimit="10"/></g><g transform="translate(-134,-126) scale(1,1)"><g><path fill="none" stroke="none"/><text fill="#000000" stroke="none" font-family="Arial" font-size="13px" font-style="normal" font-weight="bold" text-decoration="none" x="662.4267578125" y="307.5">DeplaceurMeteorite</text></g></g><g transform="translate(-134,-126) scale(1,1)"><g><path fill="none" stroke="none"/><text fill="#000000" stroke="none" font-family="Arial" font-size="13px" font-style="normal" font-weight="normal" text-decoration="none" x="597" y="330.5">-num_tour_de_boucle: int</text><path fill="none" stroke="#000000" d="M 597 330.5 L 744.4306640625 330.5" stroke-miterlimit="10"/></g></g><g transform="translate(-134,-126) scale(1,1)"><g><path fill="none" stroke="none"/><text fill="#000000" stroke="none" font-family="Arial" font-size="13px" font-style="normal" font-weight="normal" text-decoration="none" x="597" y="345.5">-xmove: double</text><path fill="none" stroke="#000000" d="M 597 345.5 L 685.8798828125 345.5" stroke-miterlimit="10"/></g></g><g transform="translate(-134,-126) scale(1,1)"><g><path fill="none" stroke="none"/><text fill="#000000" stroke="none" font-family="Arial" font-size="13px" font-style="normal" font-weight="normal" text-decoration="none" x="597" y="360.5">-move: double</text><path fill="none" stroke="#000000" d="M 597 360.5 L 679.3798828125 360.5" stroke-miterlimit="10"/></g></g><g transform="translate(-134,-126) scale(1,1)"><g><path fill="none" stroke="none"/><text fill="#000000" stroke="none" font-family="Arial" font-size="13px" font-style="normal" font-weight="normal" text-decoration="none" x="597" y="383.5">+DeplaceurMeteorite(s : Sujet, m : Monde)</text></g></g><g transform="translate(-134,-126) scale(1,1)"><g><path fill="none" stroke="none"/><text fill="#000000" stroke="none" font-family="Arial" font-size="13px" font-style="normal" font-weight="normal" text-decoration="none" x="597" y="398.5">+update()</text></g></g><g transform="translate(-134,-126) scale(1,1)"><path fill="none" stroke="#000000" d="M 591 341 L 473 337" stroke-miterlimit="10"/></g><g transform="translate(-134,-126) scale(1,1)"><path fill="#FFFFFF" stroke="none" d="M 493.59890909487706 329.274396845489 L 473 337 L 493.0284546853438 346.1028019267219"/></g><g transform="translate(-134,-126) scale(1,1)"><path fill="none" stroke="#000000" d="M 493.59890909487706 329.274396845489 L 473 337 L 493.0284546853438 346.1028019267219 L 493.59890909487706 329.274396845489" stroke-miterlimit="10"/></g><g transform="translate(-134,-126) scale(1,1)"><rect fill="#C0C0C0" stroke="none" x="615" y="463" width="219.62158203125" height="72" opacity="0.2"/></g><g transform="translate(-134,-126) scale(1,1)"><rect fill="#ffffff" stroke="none" x="608" y="456" width="219.62158203125" height="72"/></g><g transform="translate(-134,-126) scale(1,1)"><path fill="none" stroke="#000000" d="M 608 456 L 827.62158203125 456 L 827.62158203125 528 L 608 528 L 608 456 Z Z" stroke-miterlimit="10"/></g><g transform="translate(-134,-126) scale(1,1)"><path fill="none" stroke="#000000" d="M 608 481 L 827.62158203125 481" stroke-miterlimit="10"/></g><g transform="translate(-134,-126) scale(1,1)"><path fill="none" stroke="#000000" d="M 608 491 L 827.62158203125 491" stroke-miterlimit="10"/></g><g transform="translate(-134,-126) scale(1,1)"><g><path fill="none" stroke="none"/><text fill="#000000" stroke="none" font-family="Arial" font-size="13px" font-style="normal" font-weight="bold" text-decoration="none" x="678.4267578125" y="475.5">DeplaceurPet</text></g></g><g transform="translate(-134,-126) scale(1,1)"><g><path fill="none" stroke="none"/><text fill="#000000" stroke="none" font-family="Arial" font-size="13px" font-style="normal" font-weight="normal" text-decoration="none" x="613" y="508.5">+DeplaceurPet(s : Sujet, m : Monde)</text></g></g><g transform="translate(-134,-126) scale(1,1)"><g><path fill="none" stroke="none"/><text fill="#000000" stroke="none" font-family="Arial" font-size="13px" font-style="normal" font-weight="normal" text-decoration="none" x="613" y="523.5">+update()</text></g></g><g transform="translate(-134,-126) scale(1,1)"><rect fill="#C0C0C0" stroke="none" x="591" y="583" width="263.69970703125" height="175" opacity="0.2"/></g><g transform="translate(-134,-126) scale(1,1)"><rect fill="#ffffff" stroke="none" x="584" y="576" width="263.69970703125" height="175"/></g><g transform="translate(-134,-126) scale(1,1)"><path fill="none" stroke="#000000" d="M 584 576 L 847.69970703125 576 L 847.69970703125 751 L 584 751 L 584 576 Z Z" stroke-miterlimit="10"/></g><g transform="translate(-134,-126) scale(1,1)"><path fill="none" stroke="#000000" d="M 584 601 L 847.69970703125 601" stroke-miterlimit="10"/></g><g transform="translate(-134,-126) scale(1,1)"><path fill="none" stroke="#000000" d="M 584 669 L 847.69970703125 669" stroke-miterlimit="10"/></g><g transform="translate(-134,-126) scale(1,1)"><g><path fill="none" stroke="none"/><text fill="#000000" stroke="none" font-family="Arial" font-size="13px" font-style="normal" font-weight="bold" text-decoration="none" x="654.4267578125" y="595.5">DeplaceurBasePerso</text></g></g><g transform="translate(-134,-126) scale(1,1)"><g><path fill="none" stroke="none"/><text fill="#000000" stroke="none" font-family="Arial" font-size="13px" font-style="normal" font-weight="normal" text-decoration="none" x="589" y="618.5">+GRAVITE: int {final}</text></g></g><g transform="translate(-134,-126) scale(1,1)"><g><path fill="none" stroke="none"/><text fill="#000000" stroke="none" font-family="Arial" font-size="13px" font-style="normal" font-weight="normal" text-decoration="none" x="589" y="633.5">-velocity: int</text><path fill="none" stroke="#000000" d="M 589 633.5 L 657.630859375 633.5" stroke-miterlimit="10"/></g></g><g transform="translate(-134,-126) scale(1,1)"><g><path fill="none" stroke="none"/><text fill="#000000" stroke="none" font-family="Arial" font-size="13px" font-style="normal" font-weight="normal" text-decoration="none" x="589" y="648.5">-nb_double_saut</text></g></g><g transform="translate(-134,-126) scale(1,1)"><g><path fill="none" stroke="none"/><text fill="#000000" stroke="none" font-family="Arial" font-size="13px" font-style="normal" font-weight="normal" text-decoration="none" x="589" y="663.5">-direction</text></g></g><g transform="translate(-134,-126) scale(1,1)"><g><path fill="none" stroke="none"/><text fill="#000000" stroke="none" font-family="Arial" font-size="13px" font-style="normal" font-weight="normal" text-decoration="none" x="589" y="686.5">+DeplaceurBasePerso(s : Sujet, m : Monde)</text></g></g><g transform="translate(-134,-126) scale(1,1)"><g><path fill="none" stroke="none"/><text fill="#000000" stroke="none" font-family="Arial" font-size="13px" font-style="normal" font-weight="normal" text-decoration="none" x="589" y="701.5">+deplaceerDroite()</text></g></g><g transform="translate(-134,-126) scale(1,1)"><g><path fill="none" stroke="none"/><text fill="#000000" stroke="none" font-family="Arial" font-size="13px" font-style="normal" font-weight="normal" text-decoration="none" x="589" y="716.5">+DeplacerGauche()</text></g></g><g transform="translate(-134,-126) scale(1,1)"><g><path fill="none" stroke="none"/><text fill="#000000" stroke="none" font-family="Arial" font-size="13px" font-style="normal" font-weight="normal" text-decoration="none" x="589" y="731.5">+sauter()</text></g></g><g transform="translate(-134,-126) scale(1,1)"><g><path fill="none" stroke="none"/><text fill="#000000" stroke="none" font-family="Arial" font-size="13px" font-style="normal" font-weight="normal" text-decoration="none" x="589" y="746.5">+update()</text></g></g><g transform="translate(-134,-126) scale(1,1)"><path fill="none" stroke="#000000" d="M 648 455 L 473 360" stroke-miterlimit="10"/></g><g transform="translate(-134,-126) scale(1,1)"><path fill="#FFFFFF" stroke="none" d="M 494.87965668334357 362.2979607087632 L 473 360 L 486.84635001075907 377.0961572108925"/></g><g transform="translate(-134,-126) scale(1,1)"><path fill="none" stroke="#000000" d="M 494.87965668334357 362.2979607087632 L 473 360 L 486.84635001075907 377.0961572108925 L 494.87965668334357 362.2979607087632" stroke-miterlimit="10"/></g><g transform="translate(-134,-126) scale(1,1)"><path fill="none" stroke="#000000" d="M 639 575 L 544 464 L 458 369" stroke-miterlimit="10"/></g><g transform="translate(-134,-126) scale(1,1)"><path fill="#FFFFFF" stroke="none" d="M 477.882159970714 378.4180526065072 L 458 369 L 465.3992412762947 389.7183790035605"/></g><g transform="translate(-134,-126) scale(1,1)"><path fill="none" stroke="#000000" d="M 477.882159970714 378.4180526065072 L 458 369 L 465.3992412762947 389.7183790035605 L 477.882159970714 378.4180526065072" stroke-miterlimit="10"/></g><g transform="translate(-134,-126) scale(1,1)"><rect fill="#C0C0C0" stroke="none" x="391" y="311" width="88" height="64" opacity="0.2"/></g><g transform="translate(-134,-126) scale(1,1)"><rect fill="#ffffff" stroke="none" x="384" y="304" width="88" height="64"/></g><g transform="translate(-134,-126) scale(1,1)"><path fill="none" stroke="#000000" d="M 384 304 L 472 304 L 472 368 L 384 368 L 384 304 Z Z" stroke-miterlimit="10"/></g><g transform="translate(-134,-126) scale(1,1)"><path fill="none" stroke="#000000" d="M 384 329 L 472 329" stroke-miterlimit="10"/></g><g transform="translate(-134,-126) scale(1,1)"><path fill="none" stroke="#000000" d="M 384 339 L 472 339" stroke-miterlimit="10"/></g><g transform="translate(-134,-126) scale(1,1)"><g><path fill="none" stroke="none"/><text fill="#000000" stroke="none" font-family="Arial" font-size="13px" font-style="italic" font-weight="bold" text-decoration="none" x="400.5654296875" y="323.5">Deplaceur</text></g></g></g></svg>