<svg version="1.1" xmlns="http://www.w3.org/2000/svg" xmlns:xlink="http://www.w3.org/1999/xlink" width="762.8671875" height="555"><defs/><g><text fill="#eeeeee" stroke="none" font-family="Arial" font-size="24px" font-style="normal" font-weight="normal" text-decoration="none" x="0" y="0"></text><text fill="#eeeeee" stroke="none" font-family="Arial" font-size="24px" font-style="normal" font-weight="normal" text-decoration="none" x="0" y="30"></text><text fill="#eeeeee" stroke="none" font-family="Arial" font-size="24px" font-style="normal" font-weight="normal" text-decoration="none" x="0" y="60"></text><text fill="#eeeeee" stroke="none" font-family="Arial" font-size="24px" font-style="normal" font-weight="normal" text-decoration="none" x="0" y="90"></text><text fill="#eeeeee" stroke="none" font-family="Arial" font-size="24px" font-style="normal" font-weight="normal" text-decoration="none" x="0" y="120"></text><text fill="#eeeeee" stroke="none" font-family="Arial" font-size="24px" font-style="normal" font-weight="normal" text-decoration="none" x="0" y="150"></text><text fill="#eeeeee" stroke="none" font-family="Arial" font-size="24px" font-style="normal" font-weight="normal" text-decoration="none" x="0" y="180"></text><text fill="#eeeeee" stroke="none" font-family="Arial" font-size="24px" font-style="normal" font-weight="normal" text-decoration="none" x="0" y="210"></text><text fill="#eeeeee" stroke="none" font-family="Arial" font-size="24px" font-style="normal" font-weight="normal" text-decoration="none" x="0" y="240"></text><text fill="#eeeeee" stroke="none" font-family="Arial" font-size="24px" font-style="normal" font-weight="normal" text-decoration="none" x="0" y="270"></text><text fill="#eeeeee" stroke="none" font-family="Arial" font-size="24px" font-style="normal" font-weight="normal" text-decoration="none" x="0" y="300"></text><text fill="#eeeeee" stroke="none" font-family="Arial" font-size="24px" font-style="normal" font-weight="normal" text-decoration="none" x="0" y="330"></text><text fill="#eeeeee" stroke="none" font-family="Arial" font-size="24px" font-style="normal" font-weight="normal" text-decoration="none" x="0" y="360"></text><text fill="#eeeeee" stroke="none" font-family="Arial" font-size="24px" font-style="normal" font-weight="normal" text-decoration="none" x="0" y="390"></text><text fill="#eeeeee" stroke="none" font-family="Arial" font-size="24px" font-style="normal" font-weight="normal" text-decoration="none" x="0" y="420"></text><text fill="#eeeeee" stroke="none" font-family="Arial" font-size="24px" font-style="normal" font-weight="normal" text-decoration="none" x="0" y="450"></text><text fill="#eeeeee" stroke="none" font-family="Arial" font-size="24px" font-style="normal" font-weight="normal" text-decoration="none" x="0" y="480"></text><text fill="#eeeeee" stroke="none" font-family="Arial" font-size="24px" font-style="normal" font-weight="normal" text-decoration="none" x="0" y="510"></text><text fill="#eeeeee" stroke="none" font-family="Arial" font-size="24px" font-style="normal" font-weight="normal" text-decoration="none" x="0" y="540"></text><text fill="#eeeeee" stroke="none" font-family="Arial" font-size="24px" font-style="normal" font-weight="normal" text-decoration="none" x="200" y="0"></text><text fill="#eeeeee" stroke="none" font-family="Arial" font-size="24px" font-style="normal" font-weight="normal" text-decoration="none" x="200" y="30"></text><text fill="#eeeeee" stroke="none" font-family="Arial" font-size="24px" font-style="normal" font-weight="normal" text-decoration="none" x="200" y="60"></text><text fill="#eeeeee" stroke="none" font-family="Arial" font-size="24px" font-style="normal" font-weight="normal" text-decoration="none" x="200" y="90"></text><text fill="#eeeeee" stroke="none" font-family="Arial" font-size="24px" font-style="normal" font-weight="normal" text-decoration="none" x="200" y="120"></text><text fill="#eeeeee" stroke="none" font-family="Arial" font-size="24px" font-style="normal" font-weight="normal" text-decoration="none" x="200" y="150"></text><text fill="#eeeeee" stroke="none" font-family="Arial" font-size="24px" font-style="normal" font-weight="normal" text-decoration="none" x="200" y="180"></text><text fill="#eeeeee" stroke="none" font-family="Arial" font-size="24px" font-style="normal" font-weight="normal" text-decoration="none" x="200" y="210"></text><text fill="#eeeeee" stroke="none" font-family="Arial" font-size="24px" font-style="normal" font-weight="normal" text-decoration="none" x="200" y="240"></text><text fill="#eeeeee" stroke="none" font-family="Arial" font-size="24px" font-style="normal" font-weight="normal" text-decoration="none" x="200" y="270"></text><text fill="#eeeeee" stroke="none" font-family="Arial" font-size="24px" font-style="normal" font-weight="normal" text-decoration="none" x="200" y="300"></text><text fill="#eeeeee" stroke="none" font-family="Arial" font-size="24px" font-style="normal" font-weight="normal" text-decoration="none" x="200" y="330"></text><text fill="#eeeeee" stroke="none" font-family="Arial" font-size="24px" font-style="normal" font-weight="normal" text-decoration="none" x="200" y="360"></text><text fill="#eeeeee" stroke="none" font-family="Arial" font-size="24px" font-style="normal" font-weight="normal" text-decoration="none" x="200" y="390"></text><text fill="#eeeeee" stroke="none" font-family="Arial" font-size="24px" font-style="normal" font-weight="normal" text-decoration="none" x="200" y="420"></text><text fill="#eeeeee" stroke="none" font-family="Arial" font-size="24px" font-style="normal" font-weight="normal" text-decoration="none" x="200" y="450"></text><text fill="#eeeeee" stroke="none" font-family="Arial" font-size="24px" font-style="normal" font-weight="normal" text-decoration="none" x="200" y="480"></text><text fill="#eeeeee" stroke="none" font-family="Arial" font-size="24px" font-style="normal" font-weight="normal" text-decoration="none" x="200" y="510"></text><text fill="#eeeeee" stroke="none" font-family="Arial" font-size="24px" font-style="normal" font-weight="normal" text-decoration="none" x="200" y="540"></text><text fill="#eeeeee" stroke="none" font-family="Arial" font-size="24px" font-style="normal" font-weight="normal" text-decoration="none" x="400" y="0"></text><text fill="#eeeeee" stroke="none" font-family="Arial" font-size="24px" font-style="normal" font-weight="normal" text-decoration="none" x="400" y="30"></text><text fill="#eeeeee" stroke="none" font-family="Arial" font-size="24px" font-style="normal" font-weight="normal" text-decoration="none" x="400" y="60"></text><text fill="#eeeeee" stroke="none" font-family="Arial" font-size="24px" font-style="normal" font-weight="normal" text-decoration="none" x="400" y="90"></text><text fill="#eeeeee" stroke="none" font-family="Arial" font-size="24px" font-style="normal" font-weight="normal" text-decoration="none" x="400" y="120"></text><text fill="#eeeeee" stroke="none" font-family="Arial" font-size="24px" font-style="normal" font-weight="normal" text-decoration="none" x="400" y="150"></text><text fill="#eeeeee" stroke="none" font-family="Arial" font-size="24px" font-style="normal" font-weight="normal" text-decoration="none" x="400" y="180"></text><text fill="#eeeeee" stroke="none" font-family="Arial" font-size="24px" font-style="normal" font-weight="normal" text-decoration="none" x="400" y="210"></text><text fill="#eeeeee" stroke="none" font-family="Arial" font-size="24px" font-style="normal" font-weight="normal" text-decoration="none" x="400" y="240"></text><text fill="#eeeeee" stroke="none" font-family="Arial" font-size="24px" font-style="normal" font-weight="normal" text-decoration="none" x="400" y="270"></text><text fill="#eeeeee" stroke="none" font-family="Arial" font-size="24px" font-style="normal" font-weight="normal" text-decoration="none" x="400" y="300"></text><text fill="#eeeeee" stroke="none" font-family="Arial" font-size="24px" font-style="normal" font-weight="normal" text-decoration="none" x="400" y="330"></text><text fill="#eeeeee" stroke="none" font-family="Arial" font-size="24px" font-style="normal" font-weight="normal" text-decoration="none" x="400" y="360"></text><text fill="#eeeeee" stroke="none" font-family="Arial" font-size="24px" font-style="normal" font-weight="normal" text-decoration="none" x="400" y="390"></text><text fill="#eeeeee" stroke="none" font-family="Arial" font-size="24px" font-style="normal" font-weight="normal" text-decoration="none" x="400" y="420"></text><text fill="#eeeeee" stroke="none" font-family="Arial" font-size="24px" font-style="normal" font-weight="normal" text-decoration="none" x="400" y="450"></text><text fill="#eeeeee" stroke="none" font-family="Arial" font-size="24px" font-style="normal" font-weight="normal" text-decoration="none" x="400" y="480"></text><text fill="#eeeeee" stroke="none" font-family="Arial" font-size="24px" font-style="normal" font-weight="normal" text-decoration="none" x="400" y="510"></text><text fill="#eeeeee" stroke="none" font-family="Arial" font-size="24px" font-style="normal" font-weight="normal" text-decoration="none" x="400" y="540"></text><text fill="#eeeeee" stroke="none" font-family="Arial" font-size="24px" font-style="normal" font-weight="normal" text-decoration="none" x="600" y="0"></text><text fill="#eeeeee" stroke="none" font-family="Arial" font-size="24px" font-style="normal" font-weight="normal" text-decoration="none" x="600" y="30"></text><text fill="#eeeeee" stroke="none" font-family="Arial" font-size="24px" font-style="normal" font-weight="normal" text-decoration="none" x="600" y="60"></text><text fill="#eeeeee" stroke="none" font-family="Arial" font-size="24px" font-style="normal" font-weight="normal" text-decoration="none" x="600" y="90"></text><text fill="#eeeeee" stroke="none" font-family="Arial" font-size="24px" font-style="normal" font-weight="normal" text-decoration="none" x="600" y="120"></text><text fill="#eeeeee" stroke="none" font-family="Arial" font-size="24px" font-style="normal" font-weight="normal" text-decoration="none" x="600" y="150"></text><text fill="#eeeeee" stroke="none" font-family="Arial" font-size="24px" font-style="normal" font-weight="normal" text-decoration="none" x="600" y="180"></text><text fill="#eeeeee" stroke="none" font-family="Arial" font-size="24px" font-style="normal" font-weight="normal" text-decoration="none" x="600" y="210"></text><text fill="#eeeeee" stroke="none" font-family="Arial" font-size="24px" font-style="normal" font-weight="normal" text-decoration="none" x="600" y="240"></text><text fill="#eeeeee" stroke="none" font-family="Arial" font-size="24px" font-style="normal" font-weight="normal" text-decoration="none" x="600" y="270"></text><text fill="#eeeeee" stroke="none" font-family="Arial" font-size="24px" font-style="normal" font-weight="normal" text-decoration="none" x="600" y="300"></text><text fill="#eeeeee" stroke="none" font-family="Arial" font-size="24px" font-style="normal" font-weight="normal" text-decoration="none" x="600" y="330"></text><text fill="#eeeeee" stroke="none" font-family="Arial" font-size="24px" font-style="normal" font-weight="normal" text-decoration="none" x="600" y="360"></text><text fill="#eeeeee" stroke="none" font-family="Arial" font-size="24px" font-style="normal" font-weight="normal" text-decoration="none" x="600" y="390"></text><text fill="#eeeeee" stroke="none" font-family="Arial" font-size="24px" font-style="normal" font-weight="normal" text-decoration="none" x="600" y="420"></text><text fill="#eeeeee" stroke="none" font-family="Arial" font-size="24px" font-style="normal" font-weight="normal" text-decoration="none" x="600" y="450"></text><text fill="#eeeeee" stroke="none" font-family="Arial" font-size="24px" font-style="normal" font-weight="normal" text-decoration="none" x="600" y="480"></text><text fill="#eeeeee" stroke="none" font-family="Arial" font-size="24px" font-style="normal" font-weight="normal" text-decoration="none" x="600" y="510"></text><text fill="#eeeeee" stroke="none" font-family="Arial" font-size="24px" font-style="normal" font-weight="normal" text-decoration="none" x="600" y="540"></text><g transform="translate(-62,-46) scale(1,1)"><rect fill="#C0C0C0" stroke="none" x="167" y="231" width="169.60000000000002" height="15" opacity="0.2"/></g><g transform="translate(-62,-46) scale(1,1)"><rect fill="#C0C0C0" stroke="none" x="167" y="245" width="424" height="353" opacity="0.2"/></g><g transform="translate(-62,-46) scale(1,1)"><rect fill="#ffffff" stroke="none" x="160" y="239" width="424" height="352"/></g><g transform="translate(-62,-46) scale(1,1)"><path fill="none" stroke="#000000" d="M 160 239 L 584 239 L 584 591 L 160 591 L 160 239 Z Z" stroke-miterlimit="10"/></g><g transform="translate(-62,-46) scale(1,1)"><rect fill="#ffffff" stroke="none" x="160" y="224" width="169.60000000000002" height="15"/></g><g transform="translate(-62,-46) scale(1,1)"><path fill="none" stroke="#000000" d="M 160 224 L 329.6 224 L 329.6 239 L 160 239 L 160 224 Z Z" stroke-miterlimit="10"/></g><g transform="translate(-62,-46) scale(1,1)"><rect fill="#ffffff" stroke="none" x="160" y="238" width="424" height="353"/></g><g transform="translate(-62,-46) scale(1,1)"><path fill="none" stroke="#000000" d="M 160 238 L 584 238 L 584 591 L 160 591 L 160 238 Z Z" stroke-miterlimit="10"/></g><g transform="translate(-62,-46) scale(1,1)"><g><path fill="none" stroke="none"/><text fill="#000000" stroke="none" font-family="Arial" font-size="13px" font-style="normal" font-weight="bold" text-decoration="none" x="351.760498046875" y="258.5">Loader</text></g></g><g transform="translate(-62,-46) scale(1,1)"><rect fill="#C0C0C0" stroke="none" x="279" y="63" width="192.47900390625" height="56" opacity="0.2"/></g><g transform="translate(-62,-46) scale(1,1)"><rect fill="#ffffff" stroke="none" x="272" y="56" width="192.47900390625" height="56"/></g><g transform="translate(-62,-46) scale(1,1)"><path fill="none" stroke="#000000" d="M 272 56 L 464.47900390625 56 L 464.47900390625 112 L 272 112 L 272 56 Z Z" stroke-miterlimit="10"/></g><g transform="translate(-62,-46) scale(1,1)"><path fill="none" stroke="#000000" d="M 272 81 L 464.47900390625 81" stroke-miterlimit="10"/></g><g transform="translate(-62,-46) scale(1,1)"><path fill="none" stroke="#000000" d="M 272 91 L 464.47900390625 91" stroke-miterlimit="10"/></g><g transform="translate(-62,-46) scale(1,1)"><g><path fill="none" stroke="none"/><text fill="#000000" stroke="none" font-family="Arial" font-size="13px" font-style="normal" font-weight="bold" text-decoration="none" x="284.77099609375" y="75.5">javafx.application.Application</text></g></g><g transform="translate(-62,-46) scale(1,1)"><path fill="none" stroke="#000000" d="M 191 421 L 72 424 L 72 152 L 368 152 L 368 113" stroke-miterlimit="10"/></g><g transform="translate(-62,-46) scale(1,1)"><path fill="#FFFFFF" stroke="none" d="M 376.419035512032 133.3253497152483 L 368 113 L 359.580964487968 133.3253497152483"/></g><g transform="translate(-62,-46) scale(1,1)"><path fill="none" stroke="#000000" d="M 376.419035512032 133.3253497152483 L 368 113 L 359.580964487968 133.3253497152483 L 376.419035512032 133.3253497152483" stroke-miterlimit="10"/></g><g transform="translate(-62,-46) scale(1,1)"><rect fill="#C0C0C0" stroke="none" x="199" y="287" width="360" height="272" opacity="0.2"/></g><g transform="translate(-62,-46) scale(1,1)"><rect fill="#ffffff" stroke="none" x="192" y="280" width="360" height="272"/></g><g transform="translate(-62,-46) scale(1,1)"><path fill="none" stroke="#000000" d="M 192 280 L 552 280 L 552 552 L 192 552 L 192 280 Z Z" stroke-miterlimit="10"/></g><g transform="translate(-62,-46) scale(1,1)"><path fill="none" stroke="#000000" d="M 192 305 L 552 305" stroke-miterlimit="10"/></g><g transform="translate(-62,-46) scale(1,1)"><path fill="none" stroke="#000000" d="M 192 315 L 552 315" stroke-miterlimit="10"/></g><g transform="translate(-62,-46) scale(1,1)"><g><path fill="none" stroke="none"/><text fill="#000000" stroke="none" font-family="Arial" font-size="13px" font-style="normal" font-weight="bold" text-decoration="none" x="351.760498046875" y="299.5">Loader</text></g></g><g transform="translate(-62,-46) scale(1,1)"><g><path fill="none" stroke="none"/><text fill="#000000" stroke="none" font-family="Arial" font-size="13px" font-style="normal" font-weight="normal" text-decoration="none" x="197" y="332.5">+start(primaryStage : Stage)</text></g></g><g transform="translate(-62,-46) scale(1,1)"><rect fill="#C0C0C0" stroke="none" x="695" y="223" width="122.4453125" height="44" opacity="0.2"/></g><g transform="translate(-62,-46) scale(1,1)"><rect fill="#ffffff" stroke="none" x="688" y="216" width="122.4453125" height="44"/></g><g transform="translate(-62,-46) scale(1,1)"><path fill="none" stroke="#000000" d="M 688 216 L 810.4453125 216 L 810.4453125 260 L 688 260 L 688 216 Z Z" stroke-miterlimit="10"/></g><g transform="translate(-62,-46) scale(1,1)"><path fill="none" stroke="#000000" d="M 688 241 L 810.4453125 241" stroke-miterlimit="10"/></g><g transform="translate(-62,-46) scale(1,1)"><path fill="none" stroke="#000000" d="M 688 251 L 810.4453125 251" stroke-miterlimit="10"/></g><g transform="translate(-62,-46) scale(1,1)"><g><path fill="none" stroke="none"/><text fill="#000000" stroke="none" font-family="Arial" font-size="13px" font-style="normal" font-weight="bold" text-decoration="none" x="695.74365234375" y="235.5">javafx.stage.Stage</text></g></g><g transform="translate(-62,-46) scale(1,1)"><path fill="none" stroke="#000000" d="M 553 331 L 700 261" stroke-miterlimit="10"/></g><g transform="translate(-62,-46) scale(1,1)"><path fill="none" stroke="#000000" d="M 692.6343351459757 269.1698825730968 L 700 261 L 689.0147090648375 261.5686678027065" stroke-miterlimit="10"/></g><g transform="translate(-62,-46) scale(1,1)"><g><path fill="none" stroke="none"/><text fill="#000000" stroke="none" font-family="Arial" font-size="13px" font-style="normal" font-weight="normal" text-decoration="none" x="684.11181640625" y="284.5">+stage</text></g></g><g transform="translate(-62,-46) scale(1,1)"><rect fill="#C0C0C0" stroke="none" x="711" y="479" width="110.8671875" height="44" opacity="0.2"/></g><g transform="translate(-62,-46) scale(1,1)"><rect fill="#ffffff" stroke="none" x="704" y="472" width="110.8671875" height="44"/></g><g transform="translate(-62,-46) scale(1,1)"><path fill="none" stroke="#000000" d="M 704 472 L 814.8671875 472 L 814.8671875 516 L 704 516 L 704 472 Z Z" stroke-miterlimit="10"/></g><g transform="translate(-62,-46) scale(1,1)"><path fill="none" stroke="#000000" d="M 704 497 L 814.8671875 497" stroke-miterlimit="10"/></g><g transform="translate(-62,-46) scale(1,1)"><path fill="none" stroke="#000000" d="M 704 507 L 814.8671875 507" stroke-miterlimit="10"/></g><g transform="translate(-62,-46) scale(1,1)"><g><path fill="none" stroke="none"/><text fill="#000000" stroke="none" font-family="Arial" font-size="13px" font-style="normal" font-weight="bold" text-decoration="none" x="712.09912109375" y="491.5">GestionnaireJeu</text></g></g><g transform="translate(-62,-46) scale(1,1)"><path fill="none" stroke="#000000" d="M 553 452 L 703 483" stroke-miterlimit="10"/></g><g transform="translate(-62,-46) scale(1,1)"><path fill="none" stroke="#000000" d="M 692.1956779804285 485.0655812008738 L 703 483 L 693.8996041596085 476.8207771080672" stroke-miterlimit="10"/></g><g transform="translate(-62,-46) scale(1,1)"><g><path fill="none" stroke="none"/><text fill="#000000" stroke="none" font-family="Arial" font-size="13px" font-style="normal" font-weight="normal" text-decoration="none" x="591.94091796875" y="499.5">+gestionnaireJeu</text></g></g><g transform="translate(-62,-46) scale(1,1)"><path fill="#ffffff" stroke="none" d="M 600 72 L 725 72 L 735 82 L 735 121 L 600 121 L 600 72"/></g><g transform="translate(-62,-46) scale(1,1)"><path fill="none" stroke="#000000" d="M 600 72 L 725 72 L 735 82 L 735 121 L 600 121 L 600 72 L 600 72" stroke-miterlimit="10"/></g><g transform="translate(-62,-46) scale(1,1)"><path fill="none" stroke="#000000" d="M 725 72 L 725 82 L 735 82 L 725 72" stroke-miterlimit="10"/></g><g transform="translate(-62,-46) scale(1,1)"><g><path fill="none" stroke="none"/><text fill="#000000" stroke="none" font-family="Arial" font-size="13px" font-style="normal" font-weight="normal" text-decoration="none" x="605" y="90">Ces deux classes ne</text><text fill="#000000" stroke="none" font-family="Arial" font-size="13px" font-style="normal" font-weight="normal" text-decoration="none" x="605" y="103">font pas parti du</text><text fill="#000000" stroke="none" font-family="Arial" font-size="13px" font-style="normal" font-weight="normal" text-decoration="none" x="605" y="116">package Modele</text></g></g><g transform="translate(-62,-46) scale(1,1)"><path fill="none" stroke="#000000" d="M 465 88 L 599 94" stroke-miterlimit="10" stroke-dasharray="3"/></g><g transform="translate(-62,-46) scale(1,1)"><path fill="none" stroke="#000000" d="M 736 215 L 683 123" stroke-miterlimit="10" stroke-dasharray="3"/></g></g></svg>