<svg version="1.1" xmlns="http://www.w3.org/2000/svg" xmlns:xlink="http://www.w3.org/1999/xlink" width="616.99169921875" height="413"><defs/><g><text fill="#eeeeee" stroke="none" font-family="Arial" font-size="24px" font-style="normal" font-weight="normal" text-decoration="none" x="0" y="0"></text><text fill="#eeeeee" stroke="none" font-family="Arial" font-size="24px" font-style="normal" font-weight="normal" text-decoration="none" x="0" y="30"></text><text fill="#eeeeee" stroke="none" font-family="Arial" font-size="24px" font-style="normal" font-weight="normal" text-decoration="none" x="0" y="60"></text><text fill="#eeeeee" stroke="none" font-family="Arial" font-size="24px" font-style="normal" font-weight="normal" text-decoration="none" x="0" y="90"></text><text fill="#eeeeee" stroke="none" font-family="Arial" font-size="24px" font-style="normal" font-weight="normal" text-decoration="none" x="0" y="120"></text><text fill="#eeeeee" stroke="none" font-family="Arial" font-size="24px" font-style="normal" font-weight="normal" text-decoration="none" x="0" y="150"></text><text fill="#eeeeee" stroke="none" font-family="Arial" font-size="24px" font-style="normal" font-weight="normal" text-decoration="none" x="0" y="180"></text><text fill="#eeeeee" stroke="none" font-family="Arial" font-size="24px" font-style="normal" font-weight="normal" text-decoration="none" x="0" y="210"></text><text fill="#eeeeee" stroke="none" font-family="Arial" font-size="24px" font-style="normal" font-weight="normal" text-decoration="none" x="0" y="240"></text><text fill="#eeeeee" stroke="none" font-family="Arial" font-size="24px" font-style="normal" font-weight="normal" text-decoration="none" x="0" y="270"></text><text fill="#eeeeee" stroke="none" font-family="Arial" font-size="24px" font-style="normal" font-weight="normal" text-decoration="none" x="0" y="300"></text><text fill="#eeeeee" stroke="none" font-family="Arial" font-size="24px" font-style="normal" font-weight="normal" text-decoration="none" x="0" y="330"></text><text fill="#eeeeee" stroke="none" font-family="Arial" font-size="24px" font-style="normal" font-weight="normal" text-decoration="none" x="0" y="360"></text><text fill="#eeeeee" stroke="none" font-family="Arial" font-size="24px" font-style="normal" font-weight="normal" text-decoration="none" x="0" y="390"></text><text fill="#eeeeee" stroke="none" font-family="Arial" font-size="24px" font-style="normal" font-weight="normal" text-decoration="none" x="200" y="0"></text><text fill="#eeeeee" stroke="none" font-family="Arial" font-size="24px" font-style="normal" font-weight="normal" text-decoration="none" x="200" y="30"></text><text fill="#eeeeee" stroke="none" font-family="Arial" font-size="24px" font-style="normal" font-weight="normal" text-decoration="none" x="200" y="60"></text><text fill="#eeeeee" stroke="none" font-family="Arial" font-size="24px" font-style="normal" font-weight="normal" text-decoration="none" x="200" y="90"></text><text fill="#eeeeee" stroke="none" font-family="Arial" font-size="24px" font-style="normal" font-weight="normal" text-decoration="none" x="200" y="120"></text><text fill="#eeeeee" stroke="none" font-family="Arial" font-size="24px" font-style="normal" font-weight="normal" text-decoration="none" x="200" y="150"></text><text fill="#eeeeee" stroke="none" font-family="Arial" font-size="24px" font-style="normal" font-weight="normal" text-decoration="none" x="200" y="180"></text><text fill="#eeeeee" stroke="none" font-family="Arial" font-size="24px" font-style="normal" font-weight="normal" text-decoration="none" x="200" y="210"></text><text fill="#eeeeee" stroke="none" font-family="Arial" font-size="24px" font-style="normal" font-weight="normal" text-decoration="none" x="200" y="240"></text><text fill="#eeeeee" stroke="none" font-family="Arial" font-size="24px" font-style="normal" font-weight="normal" text-decoration="none" x="200" y="270"></text><text fill="#eeeeee" stroke="none" font-family="Arial" font-size="24px" font-style="normal" font-weight="normal" text-decoration="none" x="200" y="300"></text><text fill="#eeeeee" stroke="none" font-family="Arial" font-size="24px" font-style="normal" font-weight="normal" text-decoration="none" x="200" y="330"></text><text fill="#eeeeee" stroke="none" font-family="Arial" font-size="24px" font-style="normal" font-weight="normal" text-decoration="none" x="200" y="360"></text><text fill="#eeeeee" stroke="none" font-family="Arial" font-size="24px" font-style="normal" font-weight="normal" text-decoration="none" x="200" y="390"></text><text fill="#eeeeee" stroke="none" font-family="Arial" font-size="24px" font-style="normal" font-weight="normal" text-decoration="none" x="400" y="0"></text><text fill="#eeeeee" stroke="none" font-family="Arial" font-size="24px" font-style="normal" font-weight="normal" text-decoration="none" x="400" y="30"></text><text fill="#eeeeee" stroke="none" font-family="Arial" font-size="24px" font-style="normal" font-weight="normal" text-decoration="none" x="400" y="60"></text><text fill="#eeeeee" stroke="none" font-family="Arial" font-size="24px" font-style="normal" font-weight="normal" text-decoration="none" x="400" y="90"></text><text fill="#eeeeee" stroke="none" font-family="Arial" font-size="24px" font-style="normal" font-weight="normal" text-decoration="none" x="400" y="120"></text><text fill="#eeeeee" stroke="none" font-family="Arial" font-size="24px" font-style="normal" font-weight="normal" text-decoration="none" x="400" y="150"></text><text fill="#eeeeee" stroke="none" font-family="Arial" font-size="24px" font-style="normal" font-weight="normal" text-decoration="none" x="400" y="180"></text><text fill="#eeeeee" stroke="none" font-family="Arial" font-size="24px" font-style="normal" font-weight="normal" text-decoration="none" x="400" y="210"></text><text fill="#eeeeee" stroke="none" font-family="Arial" font-size="24px" font-style="normal" font-weight="normal" text-decoration="none" x="400" y="240"></text><text fill="#eeeeee" stroke="none" font-family="Arial" font-size="24px" font-style="normal" font-weight="normal" text-decoration="none" x="400" y="270"></text><text fill="#eeeeee" stroke="none" font-family="Arial" font-size="24px" font-style="normal" font-weight="normal" text-decoration="none" x="400" y="300"></text><text fill="#eeeeee" stroke="none" font-family="Arial" font-size="24px" font-style="normal" font-weight="normal" text-decoration="none" x="400" y="330"></text><text fill="#eeeeee" stroke="none" font-family="Arial" font-size="24px" font-style="normal" font-weight="normal" text-decoration="none" x="400" y="360"></text><text fill="#eeeeee" stroke="none" font-family="Arial" font-size="24px" font-style="normal" font-weight="normal" text-decoration="none" x="400" y="390"></text><text fill="#eeeeee" stroke="none" font-family="Arial" font-size="24px" font-style="normal" font-weight="normal" text-decoration="none" x="600" y="0"></text><text fill="#eeeeee" stroke="none" font-family="Arial" font-size="24px" font-style="normal" font-weight="normal" text-decoration="none" x="600" y="30"></text><text fill="#eeeeee" stroke="none" font-family="Arial" font-size="24px" font-style="normal" font-weight="normal" text-decoration="none" x="600" y="60"></text><text fill="#eeeeee" stroke="none" font-family="Arial" font-size="24px" font-style="normal" font-weight="normal" text-decoration="none" x="600" y="90"></text><text fill="#eeeeee" stroke="none" font-family="Arial" font-size="24px" font-style="normal" font-weight="normal" text-decoration="none" x="600" y="120"></text><text fill="#eeeeee" stroke="none" font-family="Arial" font-size="24px" font-style="normal" font-weight="normal" text-decoration="none" x="600" y="150"></text><text fill="#eeeeee" stroke="none" font-family="Arial" font-size="24px" font-style="normal" font-weight="normal" text-decoration="none" x="600" y="180"></text><text fill="#eeeeee" stroke="none" font-family="Arial" font-size="24px" font-style="normal" font-weight="normal" text-decoration="none" x="600" y="210"></text><text fill="#eeeeee" stroke="none" font-family="Arial" font-size="24px" font-style="normal" font-weight="normal" text-decoration="none" x="600" y="240"></text><text fill="#eeeeee" stroke="none" font-family="Arial" font-size="24px" font-style="normal" font-weight="normal" text-decoration="none" x="600" y="270"></text><text fill="#eeeeee" stroke="none" font-family="Arial" font-size="24px" font-style="normal" font-weight="normal" text-decoration="none" x="600" y="300"></text><text fill="#eeeeee" stroke="none" font-family="Arial" font-size="24px" font-style="normal" font-weight="normal" text-decoration="none" x="600" y="330"></text><text fill="#eeeeee" stroke="none" font-family="Arial" font-size="24px" font-style="normal" font-weight="normal" text-decoration="none" x="600" y="360"></text><text fill="#eeeeee" stroke="none" font-family="Arial" font-size="24px" font-style="normal" font-weight="normal" text-decoration="none" x="600" y="390"></text><g transform="translate(-30,-14) scale(1,1)"><rect fill="#C0C0C0" stroke="none" x="47" y="31" width="188.8" height="15" opacity="0.2"/></g><g transform="translate(-30,-14) scale(1,1)"><rect fill="#C0C0C0" stroke="none" x="47" y="45" width="472" height="354" opacity="0.2"/></g><g transform="translate(-30,-14) scale(1,1)"><rect fill="#ffffff" stroke="none" x="40" y="39" width="472" height="353"/></g><g transform="translate(-30,-14) scale(1,1)"><path fill="none" stroke="#000000" d="M 40 39 L 512 39 L 512 392 L 40 392 L 40 39 Z Z" stroke-miterlimit="10"/></g><g transform="translate(-30,-14) scale(1,1)"><rect fill="#ffffff" stroke="none" x="40" y="24" width="188.8" height="15"/></g><g transform="translate(-30,-14) scale(1,1)"><path fill="none" stroke="#000000" d="M 40 24 L 228.8 24 L 228.8 39 L 40 39 L 40 24 Z Z" stroke-miterlimit="10"/></g><g transform="translate(-30,-14) scale(1,1)"><rect fill="#ffffff" stroke="none" x="40" y="38" width="472" height="354"/></g><g transform="translate(-30,-14) scale(1,1)"><path fill="none" stroke="#000000" d="M 40 38 L 512 38 L 512 392 L 40 392 L 40 38 Z Z" stroke-miterlimit="10"/></g><g transform="translate(-30,-14) scale(1,1)"><g><path fill="none" stroke="none"/><text fill="#000000" stroke="none" font-family="Arial" font-size="13px" font-style="normal" font-weight="bold" text-decoration="none" x="254.681396484375" y="58.5">Modele</text></g></g><g transform="translate(-30,-14) scale(1,1)"><rect fill="#C0C0C0" stroke="none" x="575" y="215" width="27.5966796875" height="15" opacity="0.2"/></g><g transform="translate(-30,-14) scale(1,1)"><rect fill="#C0C0C0" stroke="none" x="575" y="229" width="68.99169921875" height="25" opacity="0.2"/></g><g transform="translate(-30,-14) scale(1,1)"><rect fill="#ffffff" stroke="none" x="568" y="223" width="68.99169921875" height="24"/></g><g transform="translate(-30,-14) scale(1,1)"><path fill="none" stroke="#000000" d="M 568 223 L 636.99169921875 223 L 636.99169921875 247 L 568 247 L 568 223 Z Z" stroke-miterlimit="10"/></g><g transform="translate(-30,-14) scale(1,1)"><rect fill="#ffffff" stroke="none" x="568" y="208" width="27.5966796875" height="15"/></g><g transform="translate(-30,-14) scale(1,1)"><path fill="none" stroke="#000000" d="M 568 208 L 595.5966796875 208 L 595.5966796875 223 L 568 223 L 568 208 Z Z" stroke-miterlimit="10"/></g><g transform="translate(-30,-14) scale(1,1)"><rect fill="#ffffff" stroke="none" x="568" y="222" width="68.99169921875" height="25"/></g><g transform="translate(-30,-14) scale(1,1)"><path fill="none" stroke="#000000" d="M 568 222 L 636.99169921875 222 L 636.99169921875 247 L 568 247 L 568 222 Z Z" stroke-miterlimit="10"/></g><g transform="translate(-30,-14) scale(1,1)"><g><path fill="none" stroke="none"/><text fill="#000000" stroke="none" font-family="Arial" font-size="13px" font-style="normal" font-weight="bold" text-decoration="none" x="588.524658203125" y="242.5">View</text></g></g><g transform="translate(-30,-14) scale(1,1)"><rect fill="#C0C0C0" stroke="none" x="279" y="159" width="32.79667968749999" height="15" opacity="0.2"/></g><g transform="translate(-30,-14) scale(1,1)"><rect fill="#C0C0C0" stroke="none" x="279" y="173" width="81.99169921875" height="25" opacity="0.2"/></g><g transform="translate(-30,-14) scale(1,1)"><rect fill="#ffffff" stroke="none" x="272" y="167" width="81.99169921875" height="24"/></g><g transform="translate(-30,-14) scale(1,1)"><path fill="none" stroke="#000000" d="M 272 167 L 353.99169921875 167 L 353.99169921875 191 L 272 191 L 272 167 Z Z" stroke-miterlimit="10"/></g><g transform="translate(-30,-14) scale(1,1)"><rect fill="#ffffff" stroke="none" x="272" y="152" width="32.79667968749999" height="15"/></g><g transform="translate(-30,-14) scale(1,1)"><path fill="none" stroke="#000000" d="M 272 152 L 304.7966796875 152 L 304.7966796875 167 L 272 167 L 272 152 Z Z" stroke-miterlimit="10"/></g><g transform="translate(-30,-14) scale(1,1)"><rect fill="#ffffff" stroke="none" x="272" y="166" width="81.99169921875" height="25"/></g><g transform="translate(-30,-14) scale(1,1)"><path fill="none" stroke="#000000" d="M 272 166 L 353.99169921875 166 L 353.99169921875 191 L 272 191 L 272 166 Z Z" stroke-miterlimit="10"/></g><g transform="translate(-30,-14) scale(1,1)"><g><path fill="none" stroke="none"/><text fill="#000000" stroke="none" font-family="Arial" font-size="13px" font-style="normal" font-weight="bold" text-decoration="none" x="279.035888671875" y="186.5">Persistance</text></g></g><g transform="translate(-30,-14) scale(1,1)"><path fill="none" stroke="#000000" d="M 329 296 L 391 316" stroke-miterlimit="10" stroke-dasharray="3"/></g><g transform="translate(-30,-14) scale(1,1)"><path fill="none" stroke="#000000" d="M 380.0357611052695 316.8862648922747 L 391 316 L 382.6204284117317 308.8737962422418" stroke-miterlimit="10"/></g><g transform="translate(-30,-14) scale(1,1)"><rect fill="#C0C0C0" stroke="none" x="87" y="207" width="27.5966796875" height="15" opacity="0.2"/></g><g transform="translate(-30,-14) scale(1,1)"><rect fill="#C0C0C0" stroke="none" x="87" y="221" width="68.99169921875" height="25" opacity="0.2"/></g><g transform="translate(-30,-14) scale(1,1)"><rect fill="#ffffff" stroke="none" x="80" y="215" width="68.99169921875" height="24"/></g><g transform="translate(-30,-14) scale(1,1)"><path fill="none" stroke="#000000" d="M 80 215 L 148.99169921875 215 L 148.99169921875 239 L 80 239 L 80 215 Z Z" stroke-miterlimit="10"/></g><g transform="translate(-30,-14) scale(1,1)"><rect fill="#ffffff" stroke="none" x="80" y="200" width="27.5966796875" height="15"/></g><g transform="translate(-30,-14) scale(1,1)"><path fill="none" stroke="#000000" d="M 80 200 L 107.5966796875 200 L 107.5966796875 215 L 80 215 L 80 200 Z Z" stroke-miterlimit="10"/></g><g transform="translate(-30,-14) scale(1,1)"><rect fill="#ffffff" stroke="none" x="80" y="214" width="68.99169921875" height="25"/></g><g transform="translate(-30,-14) scale(1,1)"><path fill="none" stroke="#000000" d="M 80 214 L 148.99169921875 214 L 148.99169921875 239 L 80 239 L 80 214 Z Z" stroke-miterlimit="10"/></g><g transform="translate(-30,-14) scale(1,1)"><g><path fill="none" stroke="none"/><text fill="#000000" stroke="none" font-family="Arial" font-size="13px" font-style="normal" font-weight="bold" text-decoration="none" x="88.841796875" y="234.5">Manager</text></g></g><g transform="translate(-30,-14) scale(1,1)"><path fill="none" stroke="#000000" d="M 602 248 L 600 416 L 112 416 L 114 240" stroke-miterlimit="10" stroke-dasharray="3"/></g><g transform="translate(-30,-14) scale(1,1)"><path fill="none" stroke="#000000" d="M 118.09376850425363 250.2098510975225 L 114 240 L 109.6752765240026 250.1141864159287" stroke-miterlimit="10"/></g><g transform="translate(-30,-14) scale(1,1)"><rect fill="#C0C0C0" stroke="none" x="63" y="63" width="27.5966796875" height="15" opacity="0.2"/></g><g transform="translate(-30,-14) scale(1,1)"><rect fill="#C0C0C0" stroke="none" x="63" y="77" width="68.99169921875" height="25" opacity="0.2"/></g><g transform="translate(-30,-14) scale(1,1)"><rect fill="#ffffff" stroke="none" x="56" y="71" width="68.99169921875" height="24"/></g><g transform="translate(-30,-14) scale(1,1)"><path fill="none" stroke="#000000" d="M 56 71 L 124.99169921875 71 L 124.99169921875 95 L 56 95 L 56 71 Z Z" stroke-miterlimit="10"/></g><g transform="translate(-30,-14) scale(1,1)"><rect fill="#ffffff" stroke="none" x="56" y="56" width="27.5966796875" height="15"/></g><g transform="translate(-30,-14) scale(1,1)"><path fill="none" stroke="#000000" d="M 56 56 L 83.5966796875 56 L 83.5966796875 71 L 56 71 L 56 56 Z Z" stroke-miterlimit="10"/></g><g transform="translate(-30,-14) scale(1,1)"><rect fill="#ffffff" stroke="none" x="56" y="70" width="68.99169921875" height="25"/></g><g transform="translate(-30,-14) scale(1,1)"><path fill="none" stroke="#000000" d="M 56 70 L 124.99169921875 70 L 124.99169921875 95 L 56 95 L 56 70 Z Z" stroke-miterlimit="10"/></g><g transform="translate(-30,-14) scale(1,1)"><g><path fill="none" stroke="none"/><text fill="#000000" stroke="none" font-family="Arial" font-size="13px" font-style="normal" font-weight="bold" text-decoration="none" x="72.0654296875" y="90.5">Bonus</text></g></g><g transform="translate(-30,-14) scale(1,1)"><path fill="none" stroke="#000000" d="M 159 113 L 126 95" stroke-miterlimit="10" stroke-dasharray="3"/></g><g transform="translate(-30,-14) scale(1,1)"><path fill="none" stroke="#000000" d="M 136.93750381308251 96.17090150687629 L 126 95 L 132.9060307198706 103.56193551109814" stroke-miterlimit="10"/></g><g transform="translate(-30,-14) scale(1,1)"><path fill="none" stroke="#000000" d="M 355 160 L 407 148" stroke-miterlimit="10" stroke-dasharray="3"/></g><g transform="translate(-30,-14) scale(1,1)"><path fill="none" stroke="#000000" d="M 398.04412918008137 154.3868910948074 L 407 148 L 396.15102900796654 146.18345701564309" stroke-miterlimit="10"/></g><g transform="translate(-30,-14) scale(1,1)"><rect fill="#C0C0C0" stroke="none" x="415" y="127" width="27.5966796875" height="15" opacity="0.2"/></g><g transform="translate(-30,-14) scale(1,1)"><rect fill="#C0C0C0" stroke="none" x="415" y="141" width="68.99169921875" height="25" opacity="0.2"/></g><g transform="translate(-30,-14) scale(1,1)"><rect fill="#ffffff" stroke="none" x="408" y="135" width="68.99169921875" height="24"/></g><g transform="translate(-30,-14) scale(1,1)"><path fill="none" stroke="#000000" d="M 408 135 L 476.99169921875 135 L 476.99169921875 159 L 408 159 L 408 135 Z Z" stroke-miterlimit="10"/></g><g transform="translate(-30,-14) scale(1,1)"><rect fill="#ffffff" stroke="none" x="408" y="120" width="27.5966796875" height="15"/></g><g transform="translate(-30,-14) scale(1,1)"><path fill="none" stroke="#000000" d="M 408 120 L 435.5966796875 120 L 435.5966796875 135 L 408 135 L 408 120 Z Z" stroke-miterlimit="10"/></g><g transform="translate(-30,-14) scale(1,1)"><rect fill="#ffffff" stroke="none" x="408" y="134" width="68.99169921875" height="25"/></g><g transform="translate(-30,-14) scale(1,1)"><path fill="none" stroke="#000000" d="M 408 134 L 476.99169921875 134 L 476.99169921875 159 L 408 159 L 408 134 Z Z" stroke-miterlimit="10"/></g><g transform="translate(-30,-14) scale(1,1)"><g><path fill="none" stroke="none"/><text fill="#000000" stroke="none" font-family="Arial" font-size="13px" font-style="normal" font-weight="bold" text-decoration="none" x="425.515869140625" y="154.5">Score</text></g></g><g transform="translate(-30,-14) scale(1,1)"><rect fill="#C0C0C0" stroke="none" x="399" y="319" width="35.37890625" height="15" opacity="0.2"/></g><g transform="translate(-30,-14) scale(1,1)"><rect fill="#C0C0C0" stroke="none" x="399" y="333" width="88.447265625" height="25" opacity="0.2"/></g><g transform="translate(-30,-14) scale(1,1)"><rect fill="#ffffff" stroke="none" x="392" y="327" width="88.447265625" height="24"/></g><g transform="translate(-30,-14) scale(1,1)"><path fill="none" stroke="#000000" d="M 392 327 L 480.447265625 327 L 480.447265625 351 L 392 351 L 392 327 Z Z" stroke-miterlimit="10"/></g><g transform="translate(-30,-14) scale(1,1)"><rect fill="#ffffff" stroke="none" x="392" y="312" width="35.37890625" height="15"/></g><g transform="translate(-30,-14) scale(1,1)"><path fill="none" stroke="#000000" d="M 392 312 L 427.37890625 312 L 427.37890625 327 L 392 327 L 392 312 Z Z" stroke-miterlimit="10"/></g><g transform="translate(-30,-14) scale(1,1)"><rect fill="#ffffff" stroke="none" x="392" y="326" width="88.447265625" height="25"/></g><g transform="translate(-30,-14) scale(1,1)"><path fill="none" stroke="#000000" d="M 392 326 L 480.447265625 326 L 480.447265625 351 L 392 351 L 392 326 Z Z" stroke-miterlimit="10"/></g><g transform="translate(-30,-14) scale(1,1)"><g><path fill="none" stroke="none"/><text fill="#000000" stroke="none" font-family="Arial" font-size="13px" font-style="normal" font-weight="bold" text-decoration="none" x="400.0927734375" y="346.5">Colisionneur</text></g></g><g transform="translate(-30,-14) scale(1,1)"><rect fill="#C0C0C0" stroke="none" x="263" y="271" width="28.74433593750001" height="15" opacity="0.2"/></g><g transform="translate(-30,-14) scale(1,1)"><rect fill="#C0C0C0" stroke="none" x="263" y="285" width="71.86083984375" height="25" opacity="0.2"/></g><g transform="translate(-30,-14) scale(1,1)"><rect fill="#ffffff" stroke="none" x="256" y="279" width="71.86083984375" height="24"/></g><g transform="translate(-30,-14) scale(1,1)"><path fill="none" stroke="#000000" d="M 256 279 L 327.86083984375 279 L 327.86083984375 303 L 256 303 L 256 279 Z Z" stroke-miterlimit="10"/></g><g transform="translate(-30,-14) scale(1,1)"><rect fill="#ffffff" stroke="none" x="256" y="264" width="28.74433593750001" height="15"/></g><g transform="translate(-30,-14) scale(1,1)"><path fill="none" stroke="#000000" d="M 256 264 L 284.7443359375 264 L 284.7443359375 279 L 256 279 L 256 264 Z Z" stroke-miterlimit="10"/></g><g transform="translate(-30,-14) scale(1,1)"><rect fill="#ffffff" stroke="none" x="256" y="278" width="71.86083984375" height="25"/></g><g transform="translate(-30,-14) scale(1,1)"><path fill="none" stroke="#000000" d="M 256 278 L 327.86083984375 278 L 327.86083984375 303 L 256 303 L 256 278 Z Z" stroke-miterlimit="10"/></g><g transform="translate(-30,-14) scale(1,1)"><g><path fill="none" stroke="none"/><text fill="#000000" stroke="none" font-family="Arial" font-size="13px" font-style="normal" font-weight="bold" text-decoration="none" x="262.302734375" y="298.5">Deplaceur</text></g></g><g transform="translate(-30,-14) scale(1,1)"><rect fill="#C0C0C0" stroke="none" x="199" y="343" width="27.5966796875" height="15" opacity="0.2"/></g><g transform="translate(-30,-14) scale(1,1)"><rect fill="#C0C0C0" stroke="none" x="199" y="357" width="68.99169921875" height="25" opacity="0.2"/></g><g transform="translate(-30,-14) scale(1,1)"><rect fill="#ffffff" stroke="none" x="192" y="351" width="68.99169921875" height="24"/></g><g transform="translate(-30,-14) scale(1,1)"><path fill="none" stroke="#000000" d="M 192 351 L 260.99169921875 351 L 260.99169921875 375 L 192 375 L 192 351 Z Z" stroke-miterlimit="10"/></g><g transform="translate(-30,-14) scale(1,1)"><rect fill="#ffffff" stroke="none" x="192" y="336" width="27.5966796875" height="15"/></g><g transform="translate(-30,-14) scale(1,1)"><path fill="none" stroke="#000000" d="M 192 336 L 219.5966796875 336 L 219.5966796875 351 L 192 351 L 192 336 Z Z" stroke-miterlimit="10"/></g><g transform="translate(-30,-14) scale(1,1)"><rect fill="#ffffff" stroke="none" x="192" y="350" width="68.99169921875" height="25"/></g><g transform="translate(-30,-14) scale(1,1)"><path fill="none" stroke="#000000" d="M 192 350 L 260.99169921875 350 L 260.99169921875 375 L 192 375 L 192 350 Z Z" stroke-miterlimit="10"/></g><g transform="translate(-30,-14) scale(1,1)"><g><path fill="none" stroke="none"/><text fill="#000000" stroke="none" font-family="Arial" font-size="13px" font-style="normal" font-weight="bold" text-decoration="none" x="201.206787109375" y="370.5">Createur</text></g></g><g transform="translate(-30,-14) scale(1,1)"><rect fill="#C0C0C0" stroke="none" x="167" y="119" width="32" height="15" opacity="0.2"/></g><g transform="translate(-30,-14) scale(1,1)"><rect fill="#C0C0C0" stroke="none" x="167" y="133" width="80" height="34" opacity="0.2"/></g><g transform="translate(-30,-14) scale(1,1)"><rect fill="#ffffff" stroke="none" x="160" y="127" width="80" height="33"/></g><g transform="translate(-30,-14) scale(1,1)"><path fill="none" stroke="#000000" d="M 160 127 L 240 127 L 240 160 L 160 160 L 160 127 Z Z" stroke-miterlimit="10"/></g><g transform="translate(-30,-14) scale(1,1)"><rect fill="#ffffff" stroke="none" x="160" y="112" width="32" height="15"/></g><g transform="translate(-30,-14) scale(1,1)"><path fill="none" stroke="#000000" d="M 160 112 L 192 112 L 192 127 L 160 127 L 160 112 Z Z" stroke-miterlimit="10"/></g><g transform="translate(-30,-14) scale(1,1)"><rect fill="#ffffff" stroke="none" x="160" y="126" width="80" height="34"/></g><g transform="translate(-30,-14) scale(1,1)"><path fill="none" stroke="#000000" d="M 160 126 L 240 126 L 240 160 L 160 160 L 160 126 Z Z" stroke-miterlimit="10"/></g><g transform="translate(-30,-14) scale(1,1)"><g><path fill="none" stroke="none"/><text fill="#000000" stroke="none" font-family="Arial" font-size="13px" font-style="normal" font-weight="bold" text-decoration="none" x="184.464111328125" y="146.5">Objet</text></g></g><g transform="translate(-30,-14) scale(1,1)"><path fill="none" stroke="#000000" d="M 135 199 L 174 161" stroke-miterlimit="10" stroke-dasharray="3"/></g><g transform="translate(-30,-14) scale(1,1)"><path fill="none" stroke="#000000" d="M 169.65886553149988 171.1071534828754 L 174 161 L 163.78351761304648 165.07719114551534" stroke-miterlimit="10"/></g><g transform="translate(-30,-14) scale(1,1)"><path fill="none" stroke="#000000" d="M 150 210 L 271 181" stroke-miterlimit="10" stroke-dasharray="3"/></g><g transform="translate(-30,-14) scale(1,1)"><path fill="none" stroke="#000000" d="M 262.09831110018723 187.46219271849347 L 271 181 L 260.1360951223483 179.27501570751042" stroke-miterlimit="10"/></g><g transform="translate(-30,-14) scale(1,1)"><path fill="none" stroke="#000000" d="M 150 232 L 255 270" stroke-miterlimit="10" stroke-dasharray="3"/></g><g transform="translate(-30,-14) scale(1,1)"><path fill="none" stroke="#000000" d="M 244.01136355605468 270.4998690856583 L 255 270 L 246.87639983431814 262.5833214746671" stroke-miterlimit="10"/></g><g transform="translate(-30,-14) scale(1,1)"><path fill="none" stroke="#000000" d="M 131 240 L 210 335" stroke-miterlimit="10" stroke-dasharray="3"/></g><g transform="translate(-30,-14) scale(1,1)"><path fill="none" stroke="#000000" d="M 200.26547594325578 329.8775941796195 L 210 335 L 206.73873991943304 324.4945641362721" stroke-miterlimit="10"/></g><g transform="translate(-30,-14) scale(1,1)"><rect fill="#C0C0C0" stroke="none" x="287" y="79" width="27.5966796875" height="15" opacity="0.2"/></g><g transform="translate(-30,-14) scale(1,1)"><rect fill="#C0C0C0" stroke="none" x="287" y="93" width="68.99169921875" height="25" opacity="0.2"/></g><g transform="translate(-30,-14) scale(1,1)"><rect fill="#ffffff" stroke="none" x="280" y="87" width="68.99169921875" height="24"/></g><g transform="translate(-30,-14) scale(1,1)"><path fill="none" stroke="#000000" d="M 280 87 L 348.99169921875 87 L 348.99169921875 111 L 280 111 L 280 87 Z Z" stroke-miterlimit="10"/></g><g transform="translate(-30,-14) scale(1,1)"><rect fill="#ffffff" stroke="none" x="280" y="72" width="27.5966796875" height="15"/></g><g transform="translate(-30,-14) scale(1,1)"><path fill="none" stroke="#000000" d="M 280 72 L 307.5966796875 72 L 307.5966796875 87 L 280 87 L 280 72 Z Z" stroke-miterlimit="10"/></g><g transform="translate(-30,-14) scale(1,1)"><rect fill="#ffffff" stroke="none" x="280" y="86" width="68.99169921875" height="25"/></g><g transform="translate(-30,-14) scale(1,1)"><path fill="none" stroke="#000000" d="M 280 86 L 348.99169921875 86 L 348.99169921875 111 L 280 111 L 280 86 Z Z" stroke-miterlimit="10"/></g><g transform="translate(-30,-14) scale(1,1)"><g><path fill="none" stroke="none"/><text fill="#000000" stroke="none" font-family="Arial" font-size="13px" font-style="normal" font-weight="bold" text-decoration="none" x="294.25634765625" y="106.5">Loader</text></g></g><g transform="translate(-30,-14) scale(1,1)"><path fill="none" stroke="#000000" d="M 279 105 L 241 120" stroke-miterlimit="10" stroke-dasharray="3"/></g><g transform="translate(-30,-14) scale(1,1)"><path fill="none" stroke="#000000" d="M 248.90727103412542 112.3531009688318 L 241 120 L 251.99845912889793 120.18411080892216" stroke-miterlimit="10"/></g></g></svg>