<svg version="1.1" xmlns="http://www.w3.org/2000/svg" xmlns:xlink="http://www.w3.org/1999/xlink" width="636" height="332"><defs/><g><text fill="#eeeeee" stroke="none" font-family="Arial" font-size="24px" font-style="normal" font-weight="normal" text-decoration="none" x="0" y="0"></text><text fill="#eeeeee" stroke="none" font-family="Arial" font-size="24px" font-style="normal" font-weight="normal" text-decoration="none" x="0" y="30"></text><text fill="#eeeeee" stroke="none" font-family="Arial" font-size="24px" font-style="normal" font-weight="normal" text-decoration="none" x="0" y="60"></text><text fill="#eeeeee" stroke="none" font-family="Arial" font-size="24px" font-style="normal" font-weight="normal" text-decoration="none" x="0" y="90"></text><text fill="#eeeeee" stroke="none" font-family="Arial" font-size="24px" font-style="normal" font-weight="normal" text-decoration="none" x="0" y="120"></text><text fill="#eeeeee" stroke="none" font-family="Arial" font-size="24px" font-style="normal" font-weight="normal" text-decoration="none" x="0" y="150"></text><text fill="#eeeeee" stroke="none" font-family="Arial" font-size="24px" font-style="normal" font-weight="normal" text-decoration="none" x="0" y="180"></text><text fill="#eeeeee" stroke="none" font-family="Arial" font-size="24px" font-style="normal" font-weight="normal" text-decoration="none" x="0" y="210"></text><text fill="#eeeeee" stroke="none" font-family="Arial" font-size="24px" font-style="normal" font-weight="normal" text-decoration="none" x="0" y="240"></text><text fill="#eeeeee" stroke="none" font-family="Arial" font-size="24px" font-style="normal" font-weight="normal" text-decoration="none" x="0" y="270"></text><text fill="#eeeeee" stroke="none" font-family="Arial" font-size="24px" font-style="normal" font-weight="normal" text-decoration="none" x="0" y="300"></text><text fill="#eeeeee" stroke="none" font-family="Arial" font-size="24px" font-style="normal" font-weight="normal" text-decoration="none" x="0" y="330"></text><text fill="#eeeeee" stroke="none" font-family="Arial" font-size="24px" font-style="normal" font-weight="normal" text-decoration="none" x="200" y="0"></text><text fill="#eeeeee" stroke="none" font-family="Arial" font-size="24px" font-style="normal" font-weight="normal" text-decoration="none" x="200" y="30"></text><text fill="#eeeeee" stroke="none" font-family="Arial" font-size="24px" font-style="normal" font-weight="normal" text-decoration="none" x="200" y="60"></text><text fill="#eeeeee" stroke="none" font-family="Arial" font-size="24px" font-style="normal" font-weight="normal" text-decoration="none" x="200" y="90"></text><text fill="#eeeeee" stroke="none" font-family="Arial" font-size="24px" font-style="normal" font-weight="normal" text-decoration="none" x="200" y="120"></text><text fill="#eeeeee" stroke="none" font-family="Arial" font-size="24px" font-style="normal" font-weight="normal" text-decoration="none" x="200" y="150"></text><text fill="#eeeeee" stroke="none" font-family="Arial" font-size="24px" font-style="normal" font-weight="normal" text-decoration="none" x="200" y="180"></text><text fill="#eeeeee" stroke="none" font-family="Arial" font-size="24px" font-style="normal" font-weight="normal" text-decoration="none" x="200" y="210"></text><text fill="#eeeeee" stroke="none" font-family="Arial" font-size="24px" font-style="normal" font-weight="normal" text-decoration="none" x="200" y="240"></text><text fill="#eeeeee" stroke="none" font-family="Arial" font-size="24px" font-style="normal" font-weight="normal" text-decoration="none" x="200" y="270"></text><text fill="#eeeeee" stroke="none" font-family="Arial" font-size="24px" font-style="normal" font-weight="normal" text-decoration="none" x="200" y="300"></text><text fill="#eeeeee" stroke="none" font-family="Arial" font-size="24px" font-style="normal" font-weight="normal" text-decoration="none" x="200" y="330"></text><text fill="#eeeeee" stroke="none" font-family="Arial" font-size="24px" font-style="normal" font-weight="normal" text-decoration="none" x="400" y="0"></text><text fill="#eeeeee" stroke="none" font-family="Arial" font-size="24px" font-style="normal" font-weight="normal" text-decoration="none" x="400" y="30"></text><text fill="#eeeeee" stroke="none" font-family="Arial" font-size="24px" font-style="normal" font-weight="normal" text-decoration="none" x="400" y="60"></text><text fill="#eeeeee" stroke="none" font-family="Arial" font-size="24px" font-style="normal" font-weight="normal" text-decoration="none" x="400" y="90"></text><text fill="#eeeeee" stroke="none" font-family="Arial" font-size="24px" font-style="normal" font-weight="normal" text-decoration="none" x="400" y="120"></text><text fill="#eeeeee" stroke="none" font-family="Arial" font-size="24px" font-style="normal" font-weight="normal" text-decoration="none" x="400" y="150"></text><text fill="#eeeeee" stroke="none" font-family="Arial" font-size="24px" font-style="normal" font-weight="normal" text-decoration="none" x="400" y="180"></text><text fill="#eeeeee" stroke="none" font-family="Arial" font-size="24px" font-style="normal" font-weight="normal" text-decoration="none" x="400" y="210"></text><text fill="#eeeeee" stroke="none" font-family="Arial" font-size="24px" font-style="normal" font-weight="normal" text-decoration="none" x="400" y="240"></text><text fill="#eeeeee" stroke="none" font-family="Arial" font-size="24px" font-style="normal" font-weight="normal" text-decoration="none" x="400" y="270"></text><text fill="#eeeeee" stroke="none" font-family="Arial" font-size="24px" font-style="normal" font-weight="normal" text-decoration="none" x="400" y="300"></text><text fill="#eeeeee" stroke="none" font-family="Arial" font-size="24px" font-style="normal" font-weight="normal" text-decoration="none" x="400" y="330"></text><text fill="#eeeeee" stroke="none" font-family="Arial" font-size="24px" font-style="normal" font-weight="normal" text-decoration="none" x="600" y="0"></text><text fill="#eeeeee" stroke="none" font-family="Arial" font-size="24px" font-style="normal" font-weight="normal" text-decoration="none" x="600" y="30"></text><text fill="#eeeeee" stroke="none" font-family="Arial" font-size="24px" font-style="normal" font-weight="normal" text-decoration="none" x="600" y="60"></text><text fill="#eeeeee" stroke="none" font-family="Arial" font-size="24px" font-style="normal" font-weight="normal" text-decoration="none" x="600" y="90"></text><text fill="#eeeeee" stroke="none" font-family="Arial" font-size="24px" font-style="normal" font-weight="normal" text-decoration="none" x="600" y="120"></text><text fill="#eeeeee" stroke="none" font-family="Arial" font-size="24px" font-style="normal" font-weight="normal" text-decoration="none" x="600" y="150"></text><text fill="#eeeeee" stroke="none" font-family="Arial" font-size="24px" font-style="normal" font-weight="normal" text-decoration="none" x="600" y="180"></text><text fill="#eeeeee" stroke="none" font-family="Arial" font-size="24px" font-style="normal" font-weight="normal" text-decoration="none" x="600" y="210"></text><text fill="#eeeeee" stroke="none" font-family="Arial" font-size="24px" font-style="normal" font-weight="normal" text-decoration="none" x="600" y="240"></text><text fill="#eeeeee" stroke="none" font-family="Arial" font-size="24px" font-style="normal" font-weight="normal" text-decoration="none" x="600" y="270"></text><text fill="#eeeeee" stroke="none" font-family="Arial" font-size="24px" font-style="normal" font-weight="normal" text-decoration="none" x="600" y="300"></text><text fill="#eeeeee" stroke="none" font-family="Arial" font-size="24px" font-style="normal" font-weight="normal" text-decoration="none" x="600" y="330"></text><g transform="translate(-214,-150) scale(1,1)"><rect fill="#C0C0C0" stroke="none" x="231" y="167" width="246.39999999999998" height="15" opacity="0.2"/></g><g transform="translate(-214,-150) scale(1,1)"><rect fill="#C0C0C0" stroke="none" x="231" y="181" width="616" height="298" opacity="0.2"/></g><g transform="translate(-214,-150) scale(1,1)"><rect fill="#ffffff" stroke="none" x="224" y="175" width="616" height="297"/></g><g transform="translate(-214,-150) scale(1,1)"><path fill="none" stroke="#000000" d="M 224 175 L 840 175 L 840 472 L 224 472 L 224 175 Z Z" stroke-miterlimit="10"/></g><g transform="translate(-214,-150) scale(1,1)"><rect fill="#ffffff" stroke="none" x="224" y="160" width="246.39999999999998" height="15"/></g><g transform="translate(-214,-150) scale(1,1)"><path fill="none" stroke="#000000" d="M 224 160 L 470.4 160 L 470.4 175 L 224 175 L 224 160 Z Z" stroke-miterlimit="10"/></g><g transform="translate(-214,-150) scale(1,1)"><rect fill="#ffffff" stroke="none" x="224" y="174" width="616" height="298"/></g><g transform="translate(-214,-150) scale(1,1)"><path fill="none" stroke="#000000" d="M 224 174 L 840 174 L 840 472 L 224 472 L 224 174 Z Z" stroke-miterlimit="10"/></g><g transform="translate(-214,-150) scale(1,1)"><g><path fill="none" stroke="none"/><text fill="#000000" stroke="none" font-family="Arial" font-size="13px" font-style="normal" font-weight="bold" text-decoration="none" x="498.0400390625" y="194.5">Persistance</text></g></g><g transform="translate(-214,-150) scale(1,1)"><rect fill="#C0C0C0" stroke="none" x="263" y="255" width="212.4169921875" height="60" opacity="0.2"/></g><g transform="translate(-214,-150) scale(1,1)"><rect fill="#ffffff" stroke="none" x="256" y="248" width="212.4169921875" height="60"/></g><g transform="translate(-214,-150) scale(1,1)"><path fill="none" stroke="#000000" d="M 256 248 L 468.4169921875 248 L 468.4169921875 308 L 256 308 L 256 248 Z Z" stroke-miterlimit="10"/></g><g transform="translate(-214,-150) scale(1,1)"><path fill="none" stroke="#000000" d="M 256 286 L 468.4169921875 286" stroke-miterlimit="10"/></g><g transform="translate(-214,-150) scale(1,1)"><g><path fill="none" stroke="none"/><text fill="#000000" stroke="none" font-family="Arial" font-size="13px" font-style="normal" font-weight="normal" text-decoration="none" x="330.048095703125" y="265.5">«interface»</text></g></g><g transform="translate(-214,-150) scale(1,1)"><g><path fill="none" stroke="none"/><text fill="#000000" stroke="none" font-family="Arial" font-size="13px" font-style="normal" font-weight="bold" text-decoration="none" x="330.7685546875" y="280.5">LoadScore</text></g></g><g transform="translate(-214,-150) scale(1,1)"><g><path fill="none" stroke="none"/><text fill="#000000" stroke="none" font-family="Arial" font-size="13px" font-style="normal" font-weight="normal" text-decoration="none" x="261" y="303.5">+LoadScore(): List&lt;ResultatScore&gt;</text></g></g><g transform="translate(-214,-150) scale(1,1)"><rect fill="#C0C0C0" stroke="none" x="511" y="239" width="304.89599609375" height="60" opacity="0.2"/></g><g transform="translate(-214,-150) scale(1,1)"><rect fill="#ffffff" stroke="none" x="504" y="232" width="304.89599609375" height="60"/></g><g transform="translate(-214,-150) scale(1,1)"><path fill="none" stroke="#000000" d="M 504 232 L 808.89599609375 232 L 808.89599609375 292 L 504 292 L 504 232 Z Z" stroke-miterlimit="10"/></g><g transform="translate(-214,-150) scale(1,1)"><path fill="none" stroke="#000000" d="M 504 270 L 808.89599609375 270" stroke-miterlimit="10"/></g><g transform="translate(-214,-150) scale(1,1)"><g><path fill="none" stroke="none"/><text fill="#000000" stroke="none" font-family="Arial" font-size="13px" font-style="normal" font-weight="normal" text-decoration="none" x="624.28759765625" y="249.5">«interface»</text></g></g><g transform="translate(-214,-150) scale(1,1)"><g><path fill="none" stroke="none"/><text fill="#000000" stroke="none" font-family="Arial" font-size="13px" font-style="normal" font-weight="bold" text-decoration="none" x="624.652587890625" y="264.5">SaveScore</text></g></g><g transform="translate(-214,-150) scale(1,1)"><g><path fill="none" stroke="none"/><text fill="#000000" stroke="none" font-family="Arial" font-size="13px" font-style="normal" font-weight="normal" text-decoration="none" x="509" y="287.5">+SaveScore(allScores: SortedList&lt;ResultatScore&gt;)</text></g></g><g transform="translate(-214,-150) scale(1,1)"><rect fill="#C0C0C0" stroke="none" x="263" y="391" width="212.4169921875" height="57" opacity="0.2"/></g><g transform="translate(-214,-150) scale(1,1)"><rect fill="#ffffff" stroke="none" x="256" y="384" width="212.4169921875" height="57"/></g><g transform="translate(-214,-150) scale(1,1)"><path fill="none" stroke="#000000" d="M 256 384 L 468.4169921875 384 L 468.4169921875 441 L 256 441 L 256 384 Z Z" stroke-miterlimit="10"/></g><g transform="translate(-214,-150) scale(1,1)"><path fill="none" stroke="#000000" d="M 256 409 L 468.4169921875 409" stroke-miterlimit="10"/></g><g transform="translate(-214,-150) scale(1,1)"><path fill="none" stroke="#000000" d="M 256 419 L 468.4169921875 419" stroke-miterlimit="10"/></g><g transform="translate(-214,-150) scale(1,1)"><g><path fill="none" stroke="none"/><text fill="#000000" stroke="none" font-family="Arial" font-size="13px" font-style="normal" font-weight="bold" text-decoration="none" x="295.361328125" y="403.5">LoadScoreSerialization</text></g></g><g transform="translate(-214,-150) scale(1,1)"><g><path fill="none" stroke="none"/><text fill="#000000" stroke="none" font-family="Arial" font-size="13px" font-style="normal" font-weight="normal" text-decoration="none" x="261" y="436.5">+LoadScore(): List&lt;ResultatScore&gt;</text></g></g><g transform="translate(-214,-150) scale(1,1)"><rect fill="#C0C0C0" stroke="none" x="511" y="383" width="304.89599609375" height="57" opacity="0.2"/></g><g transform="translate(-214,-150) scale(1,1)"><rect fill="#ffffff" stroke="none" x="504" y="376" width="304.89599609375" height="57"/></g><g transform="translate(-214,-150) scale(1,1)"><path fill="none" stroke="#000000" d="M 504 376 L 808.89599609375 376 L 808.89599609375 433 L 504 433 L 504 376 Z Z" stroke-miterlimit="10"/></g><g transform="translate(-214,-150) scale(1,1)"><path fill="none" stroke="#000000" d="M 504 401 L 808.89599609375 401" stroke-miterlimit="10"/></g><g transform="translate(-214,-150) scale(1,1)"><path fill="none" stroke="#000000" d="M 504 411 L 808.89599609375 411" stroke-miterlimit="10"/></g><g transform="translate(-214,-150) scale(1,1)"><g><path fill="none" stroke="none"/><text fill="#000000" stroke="none" font-family="Arial" font-size="13px" font-style="normal" font-weight="bold" text-decoration="none" x="589.245361328125" y="395.5">SaveScoreSerialization</text></g></g><g transform="translate(-214,-150) scale(1,1)"><g><path fill="none" stroke="none"/><text fill="#000000" stroke="none" font-family="Arial" font-size="13px" font-style="normal" font-weight="normal" text-decoration="none" x="509" y="428.5">+SaveScore(allScores: SortedList&lt;ResultatScore&gt;)</text></g></g><g transform="translate(-214,-150) scale(1,1)"><path fill="none" stroke="#000000" d="M 362 383 L 362 309" stroke-miterlimit="10"/></g><g transform="translate(-214,-150) scale(1,1)"><path fill="#FFFFFF" stroke="none" d="M 370.419035512032 329.3253497152483 L 362 309 L 353.580964487968 329.3253497152483"/></g><g transform="translate(-214,-150) scale(1,1)"><path fill="none" stroke="#000000" d="M 370.419035512032 329.3253497152483 L 362 309 L 353.580964487968 329.3253497152483 L 370.419035512032 329.3253497152483" stroke-miterlimit="10"/></g><g transform="translate(-214,-150) scale(1,1)"><path fill="none" stroke="#000000" d="M 656 375 L 656 293" stroke-miterlimit="10"/></g><g transform="translate(-214,-150) scale(1,1)"><path fill="#FFFFFF" stroke="none" d="M 664.419035512032 313.3253497152483 L 656 293 L 647.580964487968 313.3253497152483"/></g><g transform="translate(-214,-150) scale(1,1)"><path fill="none" stroke="#000000" d="M 664.419035512032 313.3253497152483 L 656 293 L 647.580964487968 313.3253497152483 L 664.419035512032 313.3253497152483" stroke-miterlimit="10"/></g></g></svg>