<svg version="1.1" xmlns="http://www.w3.org/2000/svg" xmlns:xlink="http://www.w3.org/1999/xlink" width="697.5908203125" height="484"><defs/><g><text fill="#eeeeee" stroke="none" font-family="Arial" font-size="24px" font-style="normal" font-weight="normal" text-decoration="none" x="0" y="0"></text><text fill="#eeeeee" stroke="none" font-family="Arial" font-size="24px" font-style="normal" font-weight="normal" text-decoration="none" x="0" y="30"></text><text fill="#eeeeee" stroke="none" font-family="Arial" font-size="24px" font-style="normal" font-weight="normal" text-decoration="none" x="0" y="60"></text><text fill="#eeeeee" stroke="none" font-family="Arial" font-size="24px" font-style="normal" font-weight="normal" text-decoration="none" x="0" y="90"></text><text fill="#eeeeee" stroke="none" font-family="Arial" font-size="24px" font-style="normal" font-weight="normal" text-decoration="none" x="0" y="120"></text><text fill="#eeeeee" stroke="none" font-family="Arial" font-size="24px" font-style="normal" font-weight="normal" text-decoration="none" x="0" y="150"></text><text fill="#eeeeee" stroke="none" font-family="Arial" font-size="24px" font-style="normal" font-weight="normal" text-decoration="none" x="0" y="180"></text><text fill="#eeeeee" stroke="none" font-family="Arial" font-size="24px" font-style="normal" font-weight="normal" text-decoration="none" x="0" y="210"></text><text fill="#eeeeee" stroke="none" font-family="Arial" font-size="24px" font-style="normal" font-weight="normal" text-decoration="none" x="0" y="240"></text><text fill="#eeeeee" stroke="none" font-family="Arial" font-size="24px" font-style="normal" font-weight="normal" text-decoration="none" x="0" y="270"></text><text fill="#eeeeee" stroke="none" font-family="Arial" font-size="24px" font-style="normal" font-weight="normal" text-decoration="none" x="0" y="300"></text><text fill="#eeeeee" stroke="none" font-family="Arial" font-size="24px" font-style="normal" font-weight="normal" text-decoration="none" x="0" y="330"></text><text fill="#eeeeee" stroke="none" font-family="Arial" font-size="24px" font-style="normal" font-weight="normal" text-decoration="none" x="0" y="360"></text><text fill="#eeeeee" stroke="none" font-family="Arial" font-size="24px" font-style="normal" font-weight="normal" text-decoration="none" x="0" y="390"></text><text fill="#eeeeee" stroke="none" font-family="Arial" font-size="24px" font-style="normal" font-weight="normal" text-decoration="none" x="0" y="420"></text><text fill="#eeeeee" stroke="none" font-family="Arial" font-size="24px" font-style="normal" font-weight="normal" text-decoration="none" x="0" y="450"></text><text fill="#eeeeee" stroke="none" font-family="Arial" font-size="24px" font-style="normal" font-weight="normal" text-decoration="none" x="0" y="480"></text><text fill="#eeeeee" stroke="none" font-family="Arial" font-size="24px" font-style="normal" font-weight="normal" text-decoration="none" x="200" y="0"></text><text fill="#eeeeee" stroke="none" font-family="Arial" font-size="24px" font-style="normal" font-weight="normal" text-decoration="none" x="200" y="30"></text><text fill="#eeeeee" stroke="none" font-family="Arial" font-size="24px" font-style="normal" font-weight="normal" text-decoration="none" x="200" y="60"></text><text fill="#eeeeee" stroke="none" font-family="Arial" font-size="24px" font-style="normal" font-weight="normal" text-decoration="none" x="200" y="90"></text><text fill="#eeeeee" stroke="none" font-family="Arial" font-size="24px" font-style="normal" font-weight="normal" text-decoration="none" x="200" y="120"></text><text fill="#eeeeee" stroke="none" font-family="Arial" font-size="24px" font-style="normal" font-weight="normal" text-decoration="none" x="200" y="150"></text><text fill="#eeeeee" stroke="none" font-family="Arial" font-size="24px" font-style="normal" font-weight="normal" text-decoration="none" x="200" y="180"></text><text fill="#eeeeee" stroke="none" font-family="Arial" font-size="24px" font-style="normal" font-weight="normal" text-decoration="none" x="200" y="210"></text><text fill="#eeeeee" stroke="none" font-family="Arial" font-size="24px" font-style="normal" font-weight="normal" text-decoration="none" x="200" y="240"></text><text fill="#eeeeee" stroke="none" font-family="Arial" font-size="24px" font-style="normal" font-weight="normal" text-decoration="none" x="200" y="270"></text><text fill="#eeeeee" stroke="none" font-family="Arial" font-size="24px" font-style="normal" font-weight="normal" text-decoration="none" x="200" y="300"></text><text fill="#eeeeee" stroke="none" font-family="Arial" font-size="24px" font-style="normal" font-weight="normal" text-decoration="none" x="200" y="330"></text><text fill="#eeeeee" stroke="none" font-family="Arial" font-size="24px" font-style="normal" font-weight="normal" text-decoration="none" x="200" y="360"></text><text fill="#eeeeee" stroke="none" font-family="Arial" font-size="24px" font-style="normal" font-weight="normal" text-decoration="none" x="200" y="390"></text><text fill="#eeeeee" stroke="none" font-family="Arial" font-size="24px" font-style="normal" font-weight="normal" text-decoration="none" x="200" y="420"></text><text fill="#eeeeee" stroke="none" font-family="Arial" font-size="24px" font-style="normal" font-weight="normal" text-decoration="none" x="200" y="450"></text><text fill="#eeeeee" stroke="none" font-family="Arial" font-size="24px" font-style="normal" font-weight="normal" text-decoration="none" x="200" y="480"></text><text fill="#eeeeee" stroke="none" font-family="Arial" font-size="24px" font-style="normal" font-weight="normal" text-decoration="none" x="400" y="0"></text><text fill="#eeeeee" stroke="none" font-family="Arial" font-size="24px" font-style="normal" font-weight="normal" text-decoration="none" x="400" y="30"></text><text fill="#eeeeee" stroke="none" font-family="Arial" font-size="24px" font-style="normal" font-weight="normal" text-decoration="none" x="400" y="60"></text><text fill="#eeeeee" stroke="none" font-family="Arial" font-size="24px" font-style="normal" font-weight="normal" text-decoration="none" x="400" y="90"></text><text fill="#eeeeee" stroke="none" font-family="Arial" font-size="24px" font-style="normal" font-weight="normal" text-decoration="none" x="400" y="120"></text><text fill="#eeeeee" stroke="none" font-family="Arial" font-size="24px" font-style="normal" font-weight="normal" text-decoration="none" x="400" y="150"></text><text fill="#eeeeee" stroke="none" font-family="Arial" font-size="24px" font-style="normal" font-weight="normal" text-decoration="none" x="400" y="180"></text><text fill="#eeeeee" stroke="none" font-family="Arial" font-size="24px" font-style="normal" font-weight="normal" text-decoration="none" x="400" y="210"></text><text fill="#eeeeee" stroke="none" font-family="Arial" font-size="24px" font-style="normal" font-weight="normal" text-decoration="none" x="400" y="240"></text><text fill="#eeeeee" stroke="none" font-family="Arial" font-size="24px" font-style="normal" font-weight="normal" text-decoration="none" x="400" y="270"></text><text fill="#eeeeee" stroke="none" font-family="Arial" font-size="24px" font-style="normal" font-weight="normal" text-decoration="none" x="400" y="300"></text><text fill="#eeeeee" stroke="none" font-family="Arial" font-size="24px" font-style="normal" font-weight="normal" text-decoration="none" x="400" y="330"></text><text fill="#eeeeee" stroke="none" font-family="Arial" font-size="24px" font-style="normal" font-weight="normal" text-decoration="none" x="400" y="360"></text><text fill="#eeeeee" stroke="none" font-family="Arial" font-size="24px" font-style="normal" font-weight="normal" text-decoration="none" x="400" y="390"></text><text fill="#eeeeee" stroke="none" font-family="Arial" font-size="24px" font-style="normal" font-weight="normal" text-decoration="none" x="400" y="420"></text><text fill="#eeeeee" stroke="none" font-family="Arial" font-size="24px" font-style="normal" font-weight="normal" text-decoration="none" x="400" y="450"></text><text fill="#eeeeee" stroke="none" font-family="Arial" font-size="24px" font-style="normal" font-weight="normal" text-decoration="none" x="400" y="480"></text><text fill="#eeeeee" stroke="none" font-family="Arial" font-size="24px" font-style="normal" font-weight="normal" text-decoration="none" x="600" y="0"></text><text fill="#eeeeee" stroke="none" font-family="Arial" font-size="24px" font-style="normal" font-weight="normal" text-decoration="none" x="600" y="30"></text><text fill="#eeeeee" stroke="none" font-family="Arial" font-size="24px" font-style="normal" font-weight="normal" text-decoration="none" x="600" y="60"></text><text fill="#eeeeee" stroke="none" font-family="Arial" font-size="24px" font-style="normal" font-weight="normal" text-decoration="none" x="600" y="90"></text><text fill="#eeeeee" stroke="none" font-family="Arial" font-size="24px" font-style="normal" font-weight="normal" text-decoration="none" x="600" y="120"></text><text fill="#eeeeee" stroke="none" font-family="Arial" font-size="24px" font-style="normal" font-weight="normal" text-decoration="none" x="600" y="150"></text><text fill="#eeeeee" stroke="none" font-family="Arial" font-size="24px" font-style="normal" font-weight="normal" text-decoration="none" x="600" y="180"></text><text fill="#eeeeee" stroke="none" font-family="Arial" font-size="24px" font-style="normal" font-weight="normal" text-decoration="none" x="600" y="210"></text><text fill="#eeeeee" stroke="none" font-family="Arial" font-size="24px" font-style="normal" font-weight="normal" text-decoration="none" x="600" y="240"></text><text fill="#eeeeee" stroke="none" font-family="Arial" font-size="24px" font-style="normal" font-weight="normal" text-decoration="none" x="600" y="270"></text><text fill="#eeeeee" stroke="none" font-family="Arial" font-size="24px" font-style="normal" font-weight="normal" text-decoration="none" x="600" y="300"></text><text fill="#eeeeee" stroke="none" font-family="Arial" font-size="24px" font-style="normal" font-weight="normal" text-decoration="none" x="600" y="330"></text><text fill="#eeeeee" stroke="none" font-family="Arial" font-size="24px" font-style="normal" font-weight="normal" text-decoration="none" x="600" y="360"></text><text fill="#eeeeee" stroke="none" font-family="Arial" font-size="24px" font-style="normal" font-weight="normal" text-decoration="none" x="600" y="390"></text><text fill="#eeeeee" stroke="none" font-family="Arial" font-size="24px" font-style="normal" font-weight="normal" text-decoration="none" x="600" y="420"></text><text fill="#eeeeee" stroke="none" font-family="Arial" font-size="24px" font-style="normal" font-weight="normal" text-decoration="none" x="600" y="450"></text><text fill="#eeeeee" stroke="none" font-family="Arial" font-size="24px" font-style="normal" font-weight="normal" text-decoration="none" x="600" y="480"></text><g transform="translate(-62,-62) scale(1,1)"><rect fill="#C0C0C0" stroke="none" x="79" y="79" width="214.39999999999998" height="15" opacity="0.2"/></g><g transform="translate(-62,-62) scale(1,1)"><rect fill="#C0C0C0" stroke="none" x="79" y="93" width="536" height="338" opacity="0.2"/></g><g transform="translate(-62,-62) scale(1,1)"><rect fill="#ffffff" stroke="none" x="72" y="87" width="536" height="337"/></g><g transform="translate(-62,-62) scale(1,1)"><path fill="none" stroke="#000000" d="M 72 87 L 608 87 L 608 424 L 72 424 L 72 87 Z Z" stroke-miterlimit="10"/></g><g transform="translate(-62,-62) scale(1,1)"><rect fill="#ffffff" stroke="none" x="72" y="72" width="214.39999999999998" height="15"/></g><g transform="translate(-62,-62) scale(1,1)"><path fill="none" stroke="#000000" d="M 72 72 L 286.4 72 L 286.4 87 L 72 87 L 72 72 Z Z" stroke-miterlimit="10"/></g><g transform="translate(-62,-62) scale(1,1)"><rect fill="#ffffff" stroke="none" x="72" y="86" width="536" height="338"/></g><g transform="translate(-62,-62) scale(1,1)"><path fill="none" stroke="#000000" d="M 72 86 L 608 86 L 608 424 L 72 424 L 72 86 Z Z" stroke-miterlimit="10"/></g><g transform="translate(-62,-62) scale(1,1)"><g><path fill="none" stroke="none"/><text fill="#000000" stroke="none" font-family="Arial" font-size="13px" font-style="normal" font-weight="bold" text-decoration="none" x="323.02001953125" y="106.5">Score</text></g></g><g transform="translate(-62,-62) scale(1,1)"><rect fill="#C0C0C0" stroke="none" x="111" y="151" width="260.82421875" height="100" opacity="0.2"/></g><g transform="translate(-62,-62) scale(1,1)"><rect fill="#ffffff" stroke="none" x="104" y="144" width="260.82421875" height="100"/></g><g transform="translate(-62,-62) scale(1,1)"><path fill="none" stroke="#000000" d="M 104 144 L 364.82421875 144 L 364.82421875 244 L 104 244 L 104 144 Z Z" stroke-miterlimit="10"/></g><g transform="translate(-62,-62) scale(1,1)"><path fill="none" stroke="#000000" d="M 104 169 L 364.82421875 169" stroke-miterlimit="10"/></g><g transform="translate(-62,-62) scale(1,1)"><path fill="none" stroke="#000000" d="M 104 207 L 364.82421875 207" stroke-miterlimit="10"/></g><g transform="translate(-62,-62) scale(1,1)"><g><path fill="none" stroke="none"/><text fill="#000000" stroke="none" font-family="Arial" font-size="13px" font-style="normal" font-weight="bold" text-decoration="none" x="180.57763671875" y="163.5">GestionnaireScore</text></g></g><g transform="translate(-62,-62) scale(1,1)"><g><path fill="none" stroke="none"/><text fill="#000000" stroke="none" font-family="Arial" font-size="13px" font-style="normal" font-weight="normal" text-decoration="none" x="109" y="186.5">-allScores: ObservableList&lt;ResultatScore&gt;</text></g></g><g transform="translate(-62,-62) scale(1,1)"><g><path fill="none" stroke="none"/><text fill="#000000" stroke="none" font-family="Arial" font-size="13px" font-style="normal" font-weight="normal" text-decoration="none" x="109" y="201.5">-currentPlayer: String</text></g></g><g transform="translate(-62,-62) scale(1,1)"><g><path fill="none" stroke="none"/><text fill="#000000" stroke="none" font-family="Arial" font-size="13px" font-style="normal" font-weight="normal" text-decoration="none" x="109" y="224.5">+GestionnaireScore(b: Boucleur)</text></g></g><g transform="translate(-62,-62) scale(1,1)"><g><path fill="none" stroke="none"/><text fill="#000000" stroke="none" font-family="Arial" font-size="13px" font-style="normal" font-weight="normal" text-decoration="none" x="109" y="239.5">+SauvegarderScore()</text></g></g><g transform="translate(-62,-62) scale(1,1)"><path fill="none" stroke="#000000" d="M 366 194 L 487 194" stroke-miterlimit="10"/></g><g transform="translate(-62,-62) scale(1,1)"><path fill="none" stroke="#000000" d="M 476.83732514237585 198.209517756016 L 487 194 L 476.83732514237585 189.790482243984" stroke-miterlimit="10"/></g><g transform="translate(-62,-62) scale(1,1)"><g><path fill="none" stroke="none"/><text fill="#000000" stroke="none" font-family="Arial" font-size="13px" font-style="normal" font-weight="normal" text-decoration="none" x="439.13134765625" y="186.5">-currentScore</text></g></g><g transform="translate(-62,-62) scale(1,1)"><rect fill="#C0C0C0" stroke="none" x="671" y="135" width="85.5908203125" height="48" opacity="0.2"/></g><g transform="translate(-62,-62) scale(1,1)"><rect fill="#ffffff" stroke="none" x="664" y="128" width="85.5908203125" height="48"/></g><g transform="translate(-62,-62) scale(1,1)"><path fill="none" stroke="#000000" d="M 664 128 L 749.5908203125 128 L 749.5908203125 176 L 664 176 L 664 128 Z Z" stroke-miterlimit="10"/></g><g transform="translate(-62,-62) scale(1,1)"><g><path fill="none" stroke="none"/><text fill="#000000" stroke="none" font-family="Arial" font-size="13px" font-style="normal" font-weight="normal" text-decoration="none" x="674.635009765625" y="145.5">«interface»</text></g></g><g transform="translate(-62,-62) scale(1,1)"><g><path fill="none" stroke="none"/><text fill="#000000" stroke="none" font-family="Arial" font-size="13px" font-style="normal" font-weight="bold" text-decoration="none" x="671.029541015625" y="160.5">Observateur</text></g></g><g transform="translate(-62,-62) scale(1,1)"><path fill="none" stroke="#000000" d="M 579 183 L 663 162" stroke-miterlimit="10" stroke-dasharray="3"/></g><g transform="translate(-62,-62) scale(1,1)"><path fill="#FFFFFF" stroke="none" d="M 645.3234304510346 175.09728555772483 L 663 162 L 641.239598370807 158.76195723681477"/></g><g transform="translate(-62,-62) scale(1,1)"><path fill="none" stroke="#000000" d="M 645.3234304510346 175.09728555772483 L 663 162 L 641.239598370807 158.76195723681477 L 645.3234304510346 175.09728555772483" stroke-miterlimit="10"/></g><g transform="translate(-62,-62) scale(1,1)"><rect fill="#C0C0C0" stroke="none" x="239" y="303" width="283.93603515625" height="100" opacity="0.2"/></g><g transform="translate(-62,-62) scale(1,1)"><rect fill="#ffffff" stroke="none" x="232" y="296" width="283.93603515625" height="100"/></g><g transform="translate(-62,-62) scale(1,1)"><path fill="none" stroke="#000000" d="M 232 296 L 515.93603515625 296 L 515.93603515625 396 L 232 396 L 232 296 Z Z" stroke-miterlimit="10"/></g><g transform="translate(-62,-62) scale(1,1)"><path fill="none" stroke="#000000" d="M 232 321 L 515.93603515625 321" stroke-miterlimit="10"/></g><g transform="translate(-62,-62) scale(1,1)"><path fill="none" stroke="#000000" d="M 232 374 L 515.93603515625 374" stroke-miterlimit="10"/></g><g transform="translate(-62,-62) scale(1,1)"><g><path fill="none" stroke="none"/><text fill="#000000" stroke="none" font-family="Arial" font-size="13px" font-style="normal" font-weight="bold" text-decoration="none" x="333.14306640625" y="315.5">ResultatScore</text></g></g><g transform="translate(-62,-62) scale(1,1)"><g><path fill="none" stroke="none"/><text fill="#000000" stroke="none" font-family="Arial" font-size="13px" font-style="normal" font-weight="normal" text-decoration="none" x="237" y="338.5">-/score: long</text></g></g><g transform="translate(-62,-62) scale(1,1)"><g><path fill="none" stroke="none"/><text fill="#000000" stroke="none" font-family="Arial" font-size="13px" font-style="normal" font-weight="normal" text-decoration="none" x="237" y="353.5">-/nomJoueur: String</text></g></g><g transform="translate(-62,-62) scale(1,1)"><g><path fill="none" stroke="none"/><text fill="#000000" stroke="none" font-family="Arial" font-size="13px" font-style="normal" font-weight="normal" text-decoration="none" x="237" y="368.5">-serialVersionUID: long</text></g></g><g transform="translate(-62,-62) scale(1,1)"><g><path fill="none" stroke="none"/><text fill="#000000" stroke="none" font-family="Arial" font-size="13px" font-style="normal" font-weight="normal" text-decoration="none" x="237" y="391.5">+ResultatScore(score: long, nomJoueur: String)</text></g></g><g transform="translate(-62,-62) scale(1,1)"><rect fill="#C0C0C0" stroke="none" x="295" y="495" width="124.6162109375" height="48" opacity="0.2"/></g><g transform="translate(-62,-62) scale(1,1)"><rect fill="#ffffff" stroke="none" x="288" y="488" width="124.6162109375" height="48"/></g><g transform="translate(-62,-62) scale(1,1)"><path fill="none" stroke="#000000" d="M 288 488 L 412.6162109375 488 L 412.6162109375 536 L 288 536 L 288 488 Z Z" stroke-miterlimit="10"/></g><g transform="translate(-62,-62) scale(1,1)"><g><path fill="none" stroke="none"/><text fill="#000000" stroke="none" font-family="Arial" font-size="13px" font-style="normal" font-weight="normal" text-decoration="none" x="318.147705078125" y="505.5">«interface»</text></g></g><g transform="translate(-62,-62) scale(1,1)"><g><path fill="none" stroke="none"/><text fill="#000000" stroke="none" font-family="Arial" font-size="13px" font-style="normal" font-weight="bold" text-decoration="none" x="296.11181640625" y="520.5">java.io.Serializable</text></g></g><g transform="translate(-62,-62) scale(1,1)"><path fill="none" stroke="#000000" d="M 366 397 L 353 487" stroke-miterlimit="10" stroke-dasharray="3"/></g><g transform="translate(-62,-62) scale(1,1)"><path fill="#FFFFFF" stroke="none" d="M 347.57316931299204 465.67983328642697 L 353 487 L 364.23828568006064 468.0870167616702"/></g><g transform="translate(-62,-62) scale(1,1)"><path fill="none" stroke="#000000" d="M 347.57316931299204 465.67983328642697 L 353 487 L 364.23828568006064 468.0870167616702 L 347.57316931299204 465.67983328642697" stroke-miterlimit="10"/></g><g transform="translate(-62,-62) scale(1,1)"><rect fill="#C0C0C0" stroke="none" x="495" y="159" width="89.57080078125" height="85" opacity="0.2"/></g><g transform="translate(-62,-62) scale(1,1)"><rect fill="#ffffff" stroke="none" x="488" y="152" width="89.57080078125" height="85"/></g><g transform="translate(-62,-62) scale(1,1)"><path fill="none" stroke="#000000" d="M 488 152 L 577.57080078125 152 L 577.57080078125 237 L 488 237 L 488 152 Z Z" stroke-miterlimit="10"/></g><g transform="translate(-62,-62) scale(1,1)"><path fill="none" stroke="#000000" d="M 488 177 L 577.57080078125 177" stroke-miterlimit="10"/></g><g transform="translate(-62,-62) scale(1,1)"><path fill="none" stroke="#000000" d="M 488 200 L 577.57080078125 200" stroke-miterlimit="10"/></g><g transform="translate(-62,-62) scale(1,1)"><g><path fill="none" stroke="none"/><text fill="#000000" stroke="none" font-family="Arial" font-size="13px" font-style="normal" font-weight="bold" text-decoration="none" x="515.805419921875" y="171.5">Score</text></g></g><g transform="translate(-62,-62) scale(1,1)"><g><path fill="none" stroke="none"/><text fill="#000000" stroke="none" font-family="Arial" font-size="13px" font-style="normal" font-weight="normal" text-decoration="none" x="493" y="194.5">-/score: long</text></g></g><g transform="translate(-62,-62) scale(1,1)"><g><path fill="none" stroke="none"/><text fill="#000000" stroke="none" font-family="Arial" font-size="13px" font-style="normal" font-weight="normal" text-decoration="none" x="493" y="217.5">+Score()</text></g></g><g transform="translate(-62,-62) scale(1,1)"><g><path fill="none" stroke="none"/><text fill="#000000" stroke="none" font-family="Arial" font-size="13px" font-style="normal" font-weight="normal" text-decoration="none" x="493" y="232.5">+update()</text></g></g></g></svg>