<svg version="1.1" xmlns="http://www.w3.org/2000/svg" xmlns:xlink="http://www.w3.org/1999/xlink" width="948" height="451"><defs/><g><text fill="#eeeeee" stroke="none" font-family="Arial" font-size="24px" font-style="normal" font-weight="normal" text-decoration="none" x="0" y="0"></text><text fill="#eeeeee" stroke="none" font-family="Arial" font-size="24px" font-style="normal" font-weight="normal" text-decoration="none" x="0" y="30"></text><text fill="#eeeeee" stroke="none" font-family="Arial" font-size="24px" font-style="normal" font-weight="normal" text-decoration="none" x="0" y="60"></text><text fill="#eeeeee" stroke="none" font-family="Arial" font-size="24px" font-style="normal" font-weight="normal" text-decoration="none" x="0" y="90"></text><text fill="#eeeeee" stroke="none" font-family="Arial" font-size="24px" font-style="normal" font-weight="normal" text-decoration="none" x="0" y="120"></text><text fill="#eeeeee" stroke="none" font-family="Arial" font-size="24px" font-style="normal" font-weight="normal" text-decoration="none" x="0" y="150"></text><text fill="#eeeeee" stroke="none" font-family="Arial" font-size="24px" font-style="normal" font-weight="normal" text-decoration="none" x="0" y="180"></text><text fill="#eeeeee" stroke="none" font-family="Arial" font-size="24px" font-style="normal" font-weight="normal" text-decoration="none" x="0" y="210"></text><text fill="#eeeeee" stroke="none" font-family="Arial" font-size="24px" font-style="normal" font-weight="normal" text-decoration="none" x="0" y="240"></text><text fill="#eeeeee" stroke="none" font-family="Arial" font-size="24px" font-style="normal" font-weight="normal" text-decoration="none" x="0" y="270"></text><text fill="#eeeeee" stroke="none" font-family="Arial" font-size="24px" font-style="normal" font-weight="normal" text-decoration="none" x="0" y="300"></text><text fill="#eeeeee" stroke="none" font-family="Arial" font-size="24px" font-style="normal" font-weight="normal" text-decoration="none" x="0" y="330"></text><text fill="#eeeeee" stroke="none" font-family="Arial" font-size="24px" font-style="normal" font-weight="normal" text-decoration="none" x="0" y="360"></text><text fill="#eeeeee" stroke="none" font-family="Arial" font-size="24px" font-style="normal" font-weight="normal" text-decoration="none" x="0" y="390"></text><text fill="#eeeeee" stroke="none" font-family="Arial" font-size="24px" font-style="normal" font-weight="normal" text-decoration="none" x="0" y="420"></text><text fill="#eeeeee" stroke="none" font-family="Arial" font-size="24px" font-style="normal" font-weight="normal" text-decoration="none" x="0" y="450"></text><text fill="#eeeeee" stroke="none" font-family="Arial" font-size="24px" font-style="normal" font-weight="normal" text-decoration="none" x="200" y="0"></text><text fill="#eeeeee" stroke="none" font-family="Arial" font-size="24px" font-style="normal" font-weight="normal" text-decoration="none" x="200" y="30"></text><text fill="#eeeeee" stroke="none" font-family="Arial" font-size="24px" font-style="normal" font-weight="normal" text-decoration="none" x="200" y="60"></text><text fill="#eeeeee" stroke="none" font-family="Arial" font-size="24px" font-style="normal" font-weight="normal" text-decoration="none" x="200" y="90"></text><text fill="#eeeeee" stroke="none" font-family="Arial" font-size="24px" font-style="normal" font-weight="normal" text-decoration="none" x="200" y="120"></text><text fill="#eeeeee" stroke="none" font-family="Arial" font-size="24px" font-style="normal" font-weight="normal" text-decoration="none" x="200" y="150"></text><text fill="#eeeeee" stroke="none" font-family="Arial" font-size="24px" font-style="normal" font-weight="normal" text-decoration="none" x="200" y="180"></text><text fill="#eeeeee" stroke="none" font-family="Arial" font-size="24px" font-style="normal" font-weight="normal" text-decoration="none" x="200" y="210"></text><text fill="#eeeeee" stroke="none" font-family="Arial" font-size="24px" font-style="normal" font-weight="normal" text-decoration="none" x="200" y="240"></text><text fill="#eeeeee" stroke="none" font-family="Arial" font-size="24px" font-style="normal" font-weight="normal" text-decoration="none" x="200" y="270"></text><text fill="#eeeeee" stroke="none" font-family="Arial" font-size="24px" font-style="normal" font-weight="normal" text-decoration="none" x="200" y="300"></text><text fill="#eeeeee" stroke="none" font-family="Arial" font-size="24px" font-style="normal" font-weight="normal" text-decoration="none" x="200" y="330"></text><text fill="#eeeeee" stroke="none" font-family="Arial" font-size="24px" font-style="normal" font-weight="normal" text-decoration="none" x="200" y="360"></text><text fill="#eeeeee" stroke="none" font-family="Arial" font-size="24px" font-style="normal" font-weight="normal" text-decoration="none" x="200" y="390"></text><text fill="#eeeeee" stroke="none" font-family="Arial" font-size="24px" font-style="normal" font-weight="normal" text-decoration="none" x="200" y="420"></text><text fill="#eeeeee" stroke="none" font-family="Arial" font-size="24px" font-style="normal" font-weight="normal" text-decoration="none" x="200" y="450"></text><text fill="#eeeeee" stroke="none" font-family="Arial" font-size="24px" font-style="normal" font-weight="normal" text-decoration="none" x="400" y="0"></text><text fill="#eeeeee" stroke="none" font-family="Arial" font-size="24px" font-style="normal" font-weight="normal" text-decoration="none" x="400" y="30"></text><text fill="#eeeeee" stroke="none" font-family="Arial" font-size="24px" font-style="normal" font-weight="normal" text-decoration="none" x="400" y="60"></text><text fill="#eeeeee" stroke="none" font-family="Arial" font-size="24px" font-style="normal" font-weight="normal" text-decoration="none" x="400" y="90"></text><text fill="#eeeeee" stroke="none" font-family="Arial" font-size="24px" font-style="normal" font-weight="normal" text-decoration="none" x="400" y="120"></text><text fill="#eeeeee" stroke="none" font-family="Arial" font-size="24px" font-style="normal" font-weight="normal" text-decoration="none" x="400" y="150"></text><text fill="#eeeeee" stroke="none" font-family="Arial" font-size="24px" font-style="normal" font-weight="normal" text-decoration="none" x="400" y="180"></text><text fill="#eeeeee" stroke="none" font-family="Arial" font-size="24px" font-style="normal" font-weight="normal" text-decoration="none" x="400" y="210"></text><text fill="#eeeeee" stroke="none" font-family="Arial" font-size="24px" font-style="normal" font-weight="normal" text-decoration="none" x="400" y="240"></text><text fill="#eeeeee" stroke="none" font-family="Arial" font-size="24px" font-style="normal" font-weight="normal" text-decoration="none" x="400" y="270"></text><text fill="#eeeeee" stroke="none" font-family="Arial" font-size="24px" font-style="normal" font-weight="normal" text-decoration="none" x="400" y="300"></text><text fill="#eeeeee" stroke="none" font-family="Arial" font-size="24px" font-style="normal" font-weight="normal" text-decoration="none" x="400" y="330"></text><text fill="#eeeeee" stroke="none" font-family="Arial" font-size="24px" font-style="normal" font-weight="normal" text-decoration="none" x="400" y="360"></text><text fill="#eeeeee" stroke="none" font-family="Arial" font-size="24px" font-style="normal" font-weight="normal" text-decoration="none" x="400" y="390"></text><text fill="#eeeeee" stroke="none" font-family="Arial" font-size="24px" font-style="normal" font-weight="normal" text-decoration="none" x="400" y="420"></text><text fill="#eeeeee" stroke="none" font-family="Arial" font-size="24px" font-style="normal" font-weight="normal" text-decoration="none" x="400" y="450"></text><text fill="#eeeeee" stroke="none" font-family="Arial" font-size="24px" font-style="normal" font-weight="normal" text-decoration="none" x="600" y="0"></text><text fill="#eeeeee" stroke="none" font-family="Arial" font-size="24px" font-style="normal" font-weight="normal" text-decoration="none" x="600" y="30"></text><text fill="#eeeeee" stroke="none" font-family="Arial" font-size="24px" font-style="normal" font-weight="normal" text-decoration="none" x="600" y="60"></text><text fill="#eeeeee" stroke="none" font-family="Arial" font-size="24px" font-style="normal" font-weight="normal" text-decoration="none" x="600" y="90"></text><text fill="#eeeeee" stroke="none" font-family="Arial" font-size="24px" font-style="normal" font-weight="normal" text-decoration="none" x="600" y="120"></text><text fill="#eeeeee" stroke="none" font-family="Arial" font-size="24px" font-style="normal" font-weight="normal" text-decoration="none" x="600" y="150"></text><text fill="#eeeeee" stroke="none" font-family="Arial" font-size="24px" font-style="normal" font-weight="normal" text-decoration="none" x="600" y="180"></text><text fill="#eeeeee" stroke="none" font-family="Arial" font-size="24px" font-style="normal" font-weight="normal" text-decoration="none" x="600" y="210"></text><text fill="#eeeeee" stroke="none" font-family="Arial" font-size="24px" font-style="normal" font-weight="normal" text-decoration="none" x="600" y="240"></text><text fill="#eeeeee" stroke="none" font-family="Arial" font-size="24px" font-style="normal" font-weight="normal" text-decoration="none" x="600" y="270"></text><text fill="#eeeeee" stroke="none" font-family="Arial" font-size="24px" font-style="normal" font-weight="normal" text-decoration="none" x="600" y="300"></text><text fill="#eeeeee" stroke="none" font-family="Arial" font-size="24px" font-style="normal" font-weight="normal" text-decoration="none" x="600" y="330"></text><text fill="#eeeeee" stroke="none" font-family="Arial" font-size="24px" font-style="normal" font-weight="normal" text-decoration="none" x="600" y="360"></text><text fill="#eeeeee" stroke="none" font-family="Arial" font-size="24px" font-style="normal" font-weight="normal" text-decoration="none" x="600" y="390"></text><text fill="#eeeeee" stroke="none" font-family="Arial" font-size="24px" font-style="normal" font-weight="normal" text-decoration="none" x="600" y="420"></text><text fill="#eeeeee" stroke="none" font-family="Arial" font-size="24px" font-style="normal" font-weight="normal" text-decoration="none" x="600" y="450"></text><text fill="#eeeeee" stroke="none" font-family="Arial" font-size="24px" font-style="normal" font-weight="normal" text-decoration="none" x="800" y="0"></text><text fill="#eeeeee" stroke="none" font-family="Arial" font-size="24px" font-style="normal" font-weight="normal" text-decoration="none" x="800" y="30"></text><text fill="#eeeeee" stroke="none" font-family="Arial" font-size="24px" font-style="normal" font-weight="normal" text-decoration="none" x="800" y="60"></text><text fill="#eeeeee" stroke="none" font-family="Arial" font-size="24px" font-style="normal" font-weight="normal" text-decoration="none" x="800" y="90"></text><text fill="#eeeeee" stroke="none" font-family="Arial" font-size="24px" font-style="normal" font-weight="normal" text-decoration="none" x="800" y="120"></text><text fill="#eeeeee" stroke="none" font-family="Arial" font-size="24px" font-style="normal" font-weight="normal" text-decoration="none" x="800" y="150"></text><text fill="#eeeeee" stroke="none" font-family="Arial" font-size="24px" font-style="normal" font-weight="normal" text-decoration="none" x="800" y="180"></text><text fill="#eeeeee" stroke="none" font-family="Arial" font-size="24px" font-style="normal" font-weight="normal" text-decoration="none" x="800" y="210"></text><text fill="#eeeeee" stroke="none" font-family="Arial" font-size="24px" font-style="normal" font-weight="normal" text-decoration="none" x="800" y="240"></text><text fill="#eeeeee" stroke="none" font-family="Arial" font-size="24px" font-style="normal" font-weight="normal" text-decoration="none" x="800" y="270"></text><text fill="#eeeeee" stroke="none" font-family="Arial" font-size="24px" font-style="normal" font-weight="normal" text-decoration="none" x="800" y="300"></text><text fill="#eeeeee" stroke="none" font-family="Arial" font-size="24px" font-style="normal" font-weight="normal" text-decoration="none" x="800" y="330"></text><text fill="#eeeeee" stroke="none" font-family="Arial" font-size="24px" font-style="normal" font-weight="normal" text-decoration="none" x="800" y="360"></text><text fill="#eeeeee" stroke="none" font-family="Arial" font-size="24px" font-style="normal" font-weight="normal" text-decoration="none" x="800" y="390"></text><text fill="#eeeeee" stroke="none" font-family="Arial" font-size="24px" font-style="normal" font-weight="normal" text-decoration="none" x="800" y="420"></text><text fill="#eeeeee" stroke="none" font-family="Arial" font-size="24px" font-style="normal" font-weight="normal" text-decoration="none" x="800" y="450"></text><g transform="translate(-22,-6) scale(1,1)"><rect fill="#C0C0C0" stroke="none" x="263" y="31" width="281.6" height="15" opacity="0.2"/></g><g transform="translate(-22,-6) scale(1,1)"><rect fill="#C0C0C0" stroke="none" x="263" y="45" width="704" height="330" opacity="0.2"/></g><g transform="translate(-22,-6) scale(1,1)"><rect fill="#ffffff" stroke="none" x="256" y="39" width="704" height="329"/></g><g transform="translate(-22,-6) scale(1,1)"><path fill="none" stroke="#000000" d="M 256 39 L 960 39 L 960 368 L 256 368 L 256 39 Z Z" stroke-miterlimit="10"/></g><g transform="translate(-22,-6) scale(1,1)"><rect fill="#ffffff" stroke="none" x="256" y="24" width="281.6" height="15"/></g><g transform="translate(-22,-6) scale(1,1)"><path fill="none" stroke="#000000" d="M 256 24 L 537.6 24 L 537.6 39 L 256 39 L 256 24 Z Z" stroke-miterlimit="10"/></g><g transform="translate(-22,-6) scale(1,1)"><rect fill="#ffffff" stroke="none" x="256" y="38" width="704" height="330"/></g><g transform="translate(-22,-6) scale(1,1)"><path fill="none" stroke="#000000" d="M 256 38 L 960 38 L 960 368 L 256 368 L 256 38 Z Z" stroke-miterlimit="10"/></g><g transform="translate(-22,-6) scale(1,1)"><g><path fill="none" stroke="none"/><text fill="#000000" stroke="none" font-family="Arial" font-size="13px" font-style="normal" font-weight="bold" text-decoration="none" x="594.02880859375" y="58.5">View</text></g></g><g transform="translate(-22,-6) scale(1,1)"><rect fill="#C0C0C0" stroke="none" x="39" y="23" width="73.6" height="15" opacity="0.2"/></g><g transform="translate(-22,-6) scale(1,1)"><rect fill="#C0C0C0" stroke="none" x="39" y="37" width="184" height="266" opacity="0.2"/></g><g transform="translate(-22,-6) scale(1,1)"><rect fill="#ffffff" stroke="none" x="32" y="31" width="184" height="265"/></g><g transform="translate(-22,-6) scale(1,1)"><path fill="none" stroke="#000000" d="M 32 31 L 216 31 L 216 296 L 32 296 L 32 31 Z Z" stroke-miterlimit="10"/></g><g transform="translate(-22,-6) scale(1,1)"><rect fill="#ffffff" stroke="none" x="32" y="16" width="73.6" height="15"/></g><g transform="translate(-22,-6) scale(1,1)"><path fill="none" stroke="#000000" d="M 32 16 L 105.6 16 L 105.6 31 L 32 31 L 32 16 Z Z" stroke-miterlimit="10"/></g><g transform="translate(-22,-6) scale(1,1)"><rect fill="#ffffff" stroke="none" x="32" y="30" width="184" height="266"/></g><g transform="translate(-22,-6) scale(1,1)"><path fill="none" stroke="#000000" d="M 32 30 L 216 30 L 216 296 L 32 296 L 32 30 Z Z" stroke-miterlimit="10"/></g><g transform="translate(-22,-6) scale(1,1)"><g><path fill="none" stroke="none"/><text fill="#000000" stroke="none" font-family="Arial" font-size="13px" font-style="normal" font-weight="bold" text-decoration="none" x="75.221435546875" y="50.5">Modele.Manager</text></g></g><g transform="translate(-22,-6) scale(1,1)"><rect fill="#C0C0C0" stroke="none" x="95" y="111" width="62.4599609375" height="44" opacity="0.2"/></g><g transform="translate(-22,-6) scale(1,1)"><rect fill="#ffffff" stroke="none" x="88" y="104" width="62.4599609375" height="44"/></g><g transform="translate(-22,-6) scale(1,1)"><path fill="none" stroke="#000000" d="M 88 104 L 150.4599609375 104 L 150.4599609375 148 L 88 148 L 88 104 Z Z" stroke-miterlimit="10"/></g><g transform="translate(-22,-6) scale(1,1)"><path fill="none" stroke="#000000" d="M 88 129 L 150.4599609375 129" stroke-miterlimit="10"/></g><g transform="translate(-22,-6) scale(1,1)"><path fill="none" stroke="#000000" d="M 88 139 L 150.4599609375 139" stroke-miterlimit="10"/></g><g transform="translate(-22,-6) scale(1,1)"><g><path fill="none" stroke="none"/><text fill="#000000" stroke="none" font-family="Arial" font-size="13px" font-style="normal" font-weight="bold" text-decoration="none" x="93.575927734375" y="123.5">Manager</text></g></g><g transform="translate(-22,-6) scale(1,1)"><rect fill="#C0C0C0" stroke="none" x="311" y="103" width="250.71875" height="205" opacity="0.2"/></g><g transform="translate(-22,-6) scale(1,1)"><rect fill="#ffffff" stroke="none" x="304" y="96" width="250.71875" height="205"/></g><g transform="translate(-22,-6) scale(1,1)"><path fill="none" stroke="#000000" d="M 304 96 L 554.71875 96 L 554.71875 301 L 304 301 L 304 96 Z Z" stroke-miterlimit="10"/></g><g transform="translate(-22,-6) scale(1,1)"><path fill="none" stroke="#000000" d="M 304 121 L 554.71875 121" stroke-miterlimit="10"/></g><g transform="translate(-22,-6) scale(1,1)"><path fill="none" stroke="#000000" d="M 304 234 L 554.71875 234" stroke-miterlimit="10"/></g><g transform="translate(-22,-6) scale(1,1)"><g><path fill="none" stroke="none"/><text fill="#000000" stroke="none" font-family="Arial" font-size="13px" font-style="normal" font-weight="bold" text-decoration="none" x="396.478515625" y="115.5">FenetreJeu</text></g></g><g transform="translate(-22,-6) scale(1,1)"><g><path fill="none" stroke="none"/><text fill="#000000" stroke="none" font-family="Arial" font-size="13px" font-style="normal" font-weight="normal" text-decoration="none" x="309" y="138.5">+fenetreJeu: AnchorPane</text></g></g><g transform="translate(-22,-6) scale(1,1)"><g><path fill="none" stroke="none"/><text fill="#000000" stroke="none" font-family="Arial" font-size="13px" font-style="normal" font-weight="normal" text-decoration="none" x="309" y="153.5">+controledep: TextField</text></g></g><g transform="translate(-22,-6) scale(1,1)"><g><path fill="none" stroke="none"/><text fill="#000000" stroke="none" font-family="Arial" font-size="13px" font-style="normal" font-weight="normal" text-decoration="none" x="309" y="168.5">+dinoView: ImageView</text></g></g><g transform="translate(-22,-6) scale(1,1)"><g><path fill="none" stroke="none"/><text fill="#000000" stroke="none" font-family="Arial" font-size="13px" font-style="normal" font-weight="normal" text-decoration="none" x="309" y="183.5">+pointVie: Text</text></g></g><g transform="translate(-22,-6) scale(1,1)"><g><path fill="none" stroke="none"/><text fill="#000000" stroke="none" font-family="Arial" font-size="13px" font-style="normal" font-weight="normal" text-decoration="none" x="309" y="198.5">+pdvBox: Hbox</text></g></g><g transform="translate(-22,-6) scale(1,1)"><g><path fill="none" stroke="none"/><text fill="#000000" stroke="none" font-family="Arial" font-size="13px" font-style="normal" font-weight="normal" text-decoration="none" x="309" y="213.5">+nb_pets: Label</text></g></g><g transform="translate(-22,-6) scale(1,1)"><g><path fill="none" stroke="none"/><text fill="#000000" stroke="none" font-family="Arial" font-size="13px" font-style="normal" font-weight="normal" text-decoration="none" x="309" y="228.5">+sol: ImageView</text></g></g><g transform="translate(-22,-6) scale(1,1)"><g><path fill="none" stroke="none"/><text fill="#000000" stroke="none" font-family="Arial" font-size="13px" font-style="normal" font-weight="normal" text-decoration="none" x="309" y="251.5">+initialize()</text></g></g><g transform="translate(-22,-6) scale(1,1)"><g><path fill="none" stroke="none"/><text fill="#000000" stroke="none" font-family="Arial" font-size="13px" font-style="normal" font-weight="normal" text-decoration="none" x="309" y="266.5">+handleKeyPressed(keyEvent: KeyEvent)</text></g></g><g transform="translate(-22,-6) scale(1,1)"><g><path fill="none" stroke="none"/><text fill="#000000" stroke="none" font-family="Arial" font-size="13px" font-style="normal" font-weight="normal" text-decoration="none" x="309" y="281.5">+getScene()</text></g></g><g transform="translate(-22,-6) scale(1,1)"><g><path fill="none" stroke="none"/><text fill="#000000" stroke="none" font-family="Arial" font-size="13px" font-style="normal" font-weight="normal" text-decoration="none" x="309" y="296.5">+creerUIElement(entite: Entite)</text></g></g><g transform="translate(-22,-6) scale(1,1)"><path fill="none" stroke="#000000" d="M 303 169 L 151 134" stroke-miterlimit="10"/></g><g transform="translate(-22,-6) scale(1,1)"><path fill="none" stroke="#000000" d="M 161.84809682122776 132.17824388095767 L 151 134 L 159.9589389307013 140.38258671981546" stroke-miterlimit="10"/></g><g transform="translate(-22,-6) scale(1,1)"><g><path fill="none" stroke="none"/><text fill="#000000" stroke="none" font-family="Arial" font-size="13px" font-style="normal" font-weight="normal" text-decoration="none" x="153.5" y="129.5">-manager</text></g></g><g transform="translate(-22,-6) scale(1,1)"><path fill="#ffffff" stroke="none" d="M 296 408 L 383.49169921875 408 L 393.49169921875 418 L 393.49169921875 446 L 296 446 L 296 408"/></g><g transform="translate(-22,-6) scale(1,1)"><path fill="none" stroke="#000000" d="M 296 408 L 383.49169921875 408 L 393.49169921875 418 L 393.49169921875 446 L 296 446 L 296 408 L 296 408" stroke-miterlimit="10"/></g><g transform="translate(-22,-6) scale(1,1)"><path fill="none" stroke="#000000" d="M 383.49169921875 408 L 383.49169921875 418 L 393.49169921875 418 L 383.49169921875 408" stroke-miterlimit="10"/></g><g transform="translate(-22,-6) scale(1,1)"><g><path fill="none" stroke="none"/><text fill="#000000" stroke="none" font-family="Arial" font-size="13px" font-style="normal" font-weight="normal" text-decoration="none" x="301" y="426">Implémente</text><text fill="#000000" stroke="none" font-family="Arial" font-size="13px" font-style="normal" font-weight="normal" text-decoration="none" x="301" y="439">EventListener</text></g></g><g transform="translate(-22,-6) scale(1,1)"><path fill="none" stroke="#000000" d="M 352 407 L 391 302" stroke-miterlimit="10" stroke-dasharray="3"/></g><g transform="translate(-22,-6) scale(1,1)"><rect fill="#C0C0C0" stroke="none" x="623" y="103" width="301.779296875" height="220" opacity="0.2"/></g><g transform="translate(-22,-6) scale(1,1)"><rect fill="#ffffff" stroke="none" x="616" y="96" width="301.779296875" height="220"/></g><g transform="translate(-22,-6) scale(1,1)"><path fill="none" stroke="#000000" d="M 616 96 L 917.779296875 96 L 917.779296875 316 L 616 316 L 616 96 Z Z" stroke-miterlimit="10"/></g><g transform="translate(-22,-6) scale(1,1)"><path fill="none" stroke="#000000" d="M 616 121 L 917.779296875 121" stroke-miterlimit="10"/></g><g transform="translate(-22,-6) scale(1,1)"><path fill="none" stroke="#000000" d="M 616 264 L 917.779296875 264" stroke-miterlimit="10"/></g><g transform="translate(-22,-6) scale(1,1)"><g><path fill="none" stroke="none"/><text fill="#000000" stroke="none" font-family="Arial" font-size="13px" font-style="normal" font-weight="bold" text-decoration="none" x="728.229248046875" y="115.5">FenetreMenu</text></g></g><g transform="translate(-22,-6) scale(1,1)"><g><path fill="none" stroke="none"/><text fill="#000000" stroke="none" font-family="Arial" font-size="13px" font-style="normal" font-weight="normal" text-decoration="none" x="621" y="138.5">+titre: Text</text></g></g><g transform="translate(-22,-6) scale(1,1)"><g><path fill="none" stroke="none"/><text fill="#000000" stroke="none" font-family="Arial" font-size="13px" font-style="normal" font-weight="normal" text-decoration="none" x="621" y="153.5">+mainAnchor: AnchorPane</text></g></g><g transform="translate(-22,-6) scale(1,1)"><g><path fill="none" stroke="none"/><text fill="#000000" stroke="none" font-family="Arial" font-size="13px" font-style="normal" font-weight="normal" text-decoration="none" x="621" y="168.5">+vBox: VBox</text></g></g><g transform="translate(-22,-6) scale(1,1)"><g><path fill="none" stroke="none"/><text fill="#000000" stroke="none" font-family="Arial" font-size="13px" font-style="normal" font-weight="normal" text-decoration="none" x="621" y="183.5">+playButton: Button</text></g></g><g transform="translate(-22,-6) scale(1,1)"><g><path fill="none" stroke="none"/><text fill="#000000" stroke="none" font-family="Arial" font-size="13px" font-style="normal" font-weight="normal" text-decoration="none" x="621" y="198.5">+tableScore: GridPane</text></g></g><g transform="translate(-22,-6) scale(1,1)"><g><path fill="none" stroke="none"/><text fill="#000000" stroke="none" font-family="Arial" font-size="13px" font-style="normal" font-weight="normal" text-decoration="none" x="621" y="213.5">+nomJoueurTF: TextField</text></g></g><g transform="translate(-22,-6) scale(1,1)"><g><path fill="none" stroke="none"/><text fill="#000000" stroke="none" font-family="Arial" font-size="13px" font-style="normal" font-weight="normal" text-decoration="none" x="621" y="228.5">+difficultyButton: Button</text></g></g><g transform="translate(-22,-6) scale(1,1)"><g><path fill="none" stroke="none"/><text fill="#000000" stroke="none" font-family="Arial" font-size="13px" font-style="normal" font-weight="normal" text-decoration="none" x="621" y="243.5">#/nomJoueur: StringProperty</text></g></g><g transform="translate(-22,-6) scale(1,1)"><g><path fill="none" stroke="none"/><text fill="#000000" stroke="none" font-family="Arial" font-size="13px" font-style="normal" font-weight="normal" text-decoration="none" x="621" y="258.5">+shadow: Shadow</text></g></g><g transform="translate(-22,-6) scale(1,1)"><g><path fill="none" stroke="none"/><text fill="#000000" stroke="none" font-family="Arial" font-size="13px" font-style="normal" font-weight="normal" text-decoration="none" x="621" y="281.5">+initialize()</text></g></g><g transform="translate(-22,-6) scale(1,1)"><g><path fill="none" stroke="none"/><text fill="#000000" stroke="none" font-family="Arial" font-size="13px" font-style="normal" font-weight="normal" text-decoration="none" x="621" y="296.5">+playButonPressed(actionEvent: ActionEvent)</text></g></g><g transform="translate(-22,-6) scale(1,1)"><g><path fill="none" stroke="none"/><text fill="#000000" stroke="none" font-family="Arial" font-size="13px" font-style="normal" font-weight="normal" text-decoration="none" x="621" y="311.5">+difficultyButtonPressed(actionEvent: ActionEvent)</text></g></g><g transform="translate(-22,-6) scale(1,1)"><rect fill="#C0C0C0" stroke="none" x="79" y="215" width="96.40087890625" height="44" opacity="0.2"/></g><g transform="translate(-22,-6) scale(1,1)"><rect fill="#ffffff" stroke="none" x="72" y="208" width="96.40087890625" height="44"/></g><g transform="translate(-22,-6) scale(1,1)"><path fill="none" stroke="#000000" d="M 72 208 L 168.40087890625 208 L 168.40087890625 252 L 72 252 L 72 208 Z Z" stroke-miterlimit="10"/></g><g transform="translate(-22,-6) scale(1,1)"><path fill="none" stroke="#000000" d="M 72 233 L 168.40087890625 233" stroke-miterlimit="10"/></g><g transform="translate(-22,-6) scale(1,1)"><path fill="none" stroke="#000000" d="M 72 243 L 168.40087890625 243" stroke-miterlimit="10"/></g><g transform="translate(-22,-6) scale(1,1)"><g><path fill="none" stroke="none"/><text fill="#000000" stroke="none" font-family="Arial" font-size="13px" font-style="normal" font-weight="bold" text-decoration="none" x="78.286865234375" y="227.5">ManagerMenu</text></g></g><g transform="translate(-22,-6) scale(1,1)"><path fill="none" stroke="#000000" d="M 638 317 L 616 336 L 192 336 L 136 253" stroke-miterlimit="10"/></g><g transform="translate(-22,-6) scale(1,1)"><path fill="none" stroke="#000000" d="M 145.1735378932781 259.07010729069845 L 136 253 L 138.19445682402593 263.7788848795915" stroke-miterlimit="10"/></g><g transform="translate(-22,-6) scale(1,1)"><g><path fill="none" stroke="none"/><text fill="#000000" stroke="none" font-family="Arial" font-size="13px" font-style="normal" font-weight="normal" text-decoration="none" x="80.13134765625" y="268.5">-manager</text></g></g></g></svg>