<svg version="1.1" xmlns="http://www.w3.org/2000/svg" xmlns:xlink="http://www.w3.org/1999/xlink" width="884" height="636"><defs/><g><text fill="#eeeeee" stroke="none" font-family="Arial" font-size="24px" font-style="normal" font-weight="normal" text-decoration="none" x="0" y="0"></text><text fill="#eeeeee" stroke="none" font-family="Arial" font-size="24px" font-style="normal" font-weight="normal" text-decoration="none" x="0" y="30"></text><text fill="#eeeeee" stroke="none" font-family="Arial" font-size="24px" font-style="normal" font-weight="normal" text-decoration="none" x="0" y="60"></text><text fill="#eeeeee" stroke="none" font-family="Arial" font-size="24px" font-style="normal" font-weight="normal" text-decoration="none" x="0" y="90"></text><text fill="#eeeeee" stroke="none" font-family="Arial" font-size="24px" font-style="normal" font-weight="normal" text-decoration="none" x="0" y="120"></text><text fill="#eeeeee" stroke="none" font-family="Arial" font-size="24px" font-style="normal" font-weight="normal" text-decoration="none" x="0" y="150"></text><text fill="#eeeeee" stroke="none" font-family="Arial" font-size="24px" font-style="normal" font-weight="normal" text-decoration="none" x="0" y="180"></text><text fill="#eeeeee" stroke="none" font-family="Arial" font-size="24px" font-style="normal" font-weight="normal" text-decoration="none" x="0" y="210"></text><text fill="#eeeeee" stroke="none" font-family="Arial" font-size="24px" font-style="normal" font-weight="normal" text-decoration="none" x="0" y="240"></text><text fill="#eeeeee" stroke="none" font-family="Arial" font-size="24px" font-style="normal" font-weight="normal" text-decoration="none" x="0" y="270"></text><text fill="#eeeeee" stroke="none" font-family="Arial" font-size="24px" font-style="normal" font-weight="normal" text-decoration="none" x="0" y="300"></text><text fill="#eeeeee" stroke="none" font-family="Arial" font-size="24px" font-style="normal" font-weight="normal" text-decoration="none" x="0" y="330"></text><text fill="#eeeeee" stroke="none" font-family="Arial" font-size="24px" font-style="normal" font-weight="normal" text-decoration="none" x="0" y="360"></text><text fill="#eeeeee" stroke="none" font-family="Arial" font-size="24px" font-style="normal" font-weight="normal" text-decoration="none" x="0" y="390"></text><text fill="#eeeeee" stroke="none" font-family="Arial" font-size="24px" font-style="normal" font-weight="normal" text-decoration="none" x="0" y="420"></text><text fill="#eeeeee" stroke="none" font-family="Arial" font-size="24px" font-style="normal" font-weight="normal" text-decoration="none" x="0" y="450"></text><text fill="#eeeeee" stroke="none" font-family="Arial" font-size="24px" font-style="normal" font-weight="normal" text-decoration="none" x="0" y="480"></text><text fill="#eeeeee" stroke="none" font-family="Arial" font-size="24px" font-style="normal" font-weight="normal" text-decoration="none" x="0" y="510"></text><text fill="#eeeeee" stroke="none" font-family="Arial" font-size="24px" font-style="normal" font-weight="normal" text-decoration="none" x="0" y="540"></text><text fill="#eeeeee" stroke="none" font-family="Arial" font-size="24px" font-style="normal" font-weight="normal" text-decoration="none" x="0" y="570"></text><text fill="#eeeeee" stroke="none" font-family="Arial" font-size="24px" font-style="normal" font-weight="normal" text-decoration="none" x="0" y="600"></text><text fill="#eeeeee" stroke="none" font-family="Arial" font-size="24px" font-style="normal" font-weight="normal" text-decoration="none" x="0" y="630"></text><text fill="#eeeeee" stroke="none" font-family="Arial" font-size="24px" font-style="normal" font-weight="normal" text-decoration="none" x="200" y="0"></text><text fill="#eeeeee" stroke="none" font-family="Arial" font-size="24px" font-style="normal" font-weight="normal" text-decoration="none" x="200" y="30"></text><text fill="#eeeeee" stroke="none" font-family="Arial" font-size="24px" font-style="normal" font-weight="normal" text-decoration="none" x="200" y="60"></text><text fill="#eeeeee" stroke="none" font-family="Arial" font-size="24px" font-style="normal" font-weight="normal" text-decoration="none" x="200" y="90"></text><text fill="#eeeeee" stroke="none" font-family="Arial" font-size="24px" font-style="normal" font-weight="normal" text-decoration="none" x="200" y="120"></text><text fill="#eeeeee" stroke="none" font-family="Arial" font-size="24px" font-style="normal" font-weight="normal" text-decoration="none" x="200" y="150"></text><text fill="#eeeeee" stroke="none" font-family="Arial" font-size="24px" font-style="normal" font-weight="normal" text-decoration="none" x="200" y="180"></text><text fill="#eeeeee" stroke="none" font-family="Arial" font-size="24px" font-style="normal" font-weight="normal" text-decoration="none" x="200" y="210"></text><text fill="#eeeeee" stroke="none" font-family="Arial" font-size="24px" font-style="normal" font-weight="normal" text-decoration="none" x="200" y="240"></text><text fill="#eeeeee" stroke="none" font-family="Arial" font-size="24px" font-style="normal" font-weight="normal" text-decoration="none" x="200" y="270"></text><text fill="#eeeeee" stroke="none" font-family="Arial" font-size="24px" font-style="normal" font-weight="normal" text-decoration="none" x="200" y="300"></text><text fill="#eeeeee" stroke="none" font-family="Arial" font-size="24px" font-style="normal" font-weight="normal" text-decoration="none" x="200" y="330"></text><text fill="#eeeeee" stroke="none" font-family="Arial" font-size="24px" font-style="normal" font-weight="normal" text-decoration="none" x="200" y="360"></text><text fill="#eeeeee" stroke="none" font-family="Arial" font-size="24px" font-style="normal" font-weight="normal" text-decoration="none" x="200" y="390"></text><text fill="#eeeeee" stroke="none" font-family="Arial" font-size="24px" font-style="normal" font-weight="normal" text-decoration="none" x="200" y="420"></text><text fill="#eeeeee" stroke="none" font-family="Arial" font-size="24px" font-style="normal" font-weight="normal" text-decoration="none" x="200" y="450"></text><text fill="#eeeeee" stroke="none" font-family="Arial" font-size="24px" font-style="normal" font-weight="normal" text-decoration="none" x="200" y="480"></text><text fill="#eeeeee" stroke="none" font-family="Arial" font-size="24px" font-style="normal" font-weight="normal" text-decoration="none" x="200" y="510"></text><text fill="#eeeeee" stroke="none" font-family="Arial" font-size="24px" font-style="normal" font-weight="normal" text-decoration="none" x="200" y="540"></text><text fill="#eeeeee" stroke="none" font-family="Arial" font-size="24px" font-style="normal" font-weight="normal" text-decoration="none" x="200" y="570"></text><text fill="#eeeeee" stroke="none" font-family="Arial" font-size="24px" font-style="normal" font-weight="normal" text-decoration="none" x="200" y="600"></text><text fill="#eeeeee" stroke="none" font-family="Arial" font-size="24px" font-style="normal" font-weight="normal" text-decoration="none" x="200" y="630"></text><text fill="#eeeeee" stroke="none" font-family="Arial" font-size="24px" font-style="normal" font-weight="normal" text-decoration="none" x="400" y="0"></text><text fill="#eeeeee" stroke="none" font-family="Arial" font-size="24px" font-style="normal" font-weight="normal" text-decoration="none" x="400" y="30"></text><text fill="#eeeeee" stroke="none" font-family="Arial" font-size="24px" font-style="normal" font-weight="normal" text-decoration="none" x="400" y="60"></text><text fill="#eeeeee" stroke="none" font-family="Arial" font-size="24px" font-style="normal" font-weight="normal" text-decoration="none" x="400" y="90"></text><text fill="#eeeeee" stroke="none" font-family="Arial" font-size="24px" font-style="normal" font-weight="normal" text-decoration="none" x="400" y="120"></text><text fill="#eeeeee" stroke="none" font-family="Arial" font-size="24px" font-style="normal" font-weight="normal" text-decoration="none" x="400" y="150"></text><text fill="#eeeeee" stroke="none" font-family="Arial" font-size="24px" font-style="normal" font-weight="normal" text-decoration="none" x="400" y="180"></text><text fill="#eeeeee" stroke="none" font-family="Arial" font-size="24px" font-style="normal" font-weight="normal" text-decoration="none" x="400" y="210"></text><text fill="#eeeeee" stroke="none" font-family="Arial" font-size="24px" font-style="normal" font-weight="normal" text-decoration="none" x="400" y="240"></text><text fill="#eeeeee" stroke="none" font-family="Arial" font-size="24px" font-style="normal" font-weight="normal" text-decoration="none" x="400" y="270"></text><text fill="#eeeeee" stroke="none" font-family="Arial" font-size="24px" font-style="normal" font-weight="normal" text-decoration="none" x="400" y="300"></text><text fill="#eeeeee" stroke="none" font-family="Arial" font-size="24px" font-style="normal" font-weight="normal" text-decoration="none" x="400" y="330"></text><text fill="#eeeeee" stroke="none" font-family="Arial" font-size="24px" font-style="normal" font-weight="normal" text-decoration="none" x="400" y="360"></text><text fill="#eeeeee" stroke="none" font-family="Arial" font-size="24px" font-style="normal" font-weight="normal" text-decoration="none" x="400" y="390"></text><text fill="#eeeeee" stroke="none" font-family="Arial" font-size="24px" font-style="normal" font-weight="normal" text-decoration="none" x="400" y="420"></text><text fill="#eeeeee" stroke="none" font-family="Arial" font-size="24px" font-style="normal" font-weight="normal" text-decoration="none" x="400" y="450"></text><text fill="#eeeeee" stroke="none" font-family="Arial" font-size="24px" font-style="normal" font-weight="normal" text-decoration="none" x="400" y="480"></text><text fill="#eeeeee" stroke="none" font-family="Arial" font-size="24px" font-style="normal" font-weight="normal" text-decoration="none" x="400" y="510"></text><text fill="#eeeeee" stroke="none" font-family="Arial" font-size="24px" font-style="normal" font-weight="normal" text-decoration="none" x="400" y="540"></text><text fill="#eeeeee" stroke="none" font-family="Arial" font-size="24px" font-style="normal" font-weight="normal" text-decoration="none" x="400" y="570"></text><text fill="#eeeeee" stroke="none" font-family="Arial" font-size="24px" font-style="normal" font-weight="normal" text-decoration="none" x="400" y="600"></text><text fill="#eeeeee" stroke="none" font-family="Arial" font-size="24px" font-style="normal" font-weight="normal" text-decoration="none" x="400" y="630"></text><text fill="#eeeeee" stroke="none" font-family="Arial" font-size="24px" font-style="normal" font-weight="normal" text-decoration="none" x="600" y="0"></text><text fill="#eeeeee" stroke="none" font-family="Arial" font-size="24px" font-style="normal" font-weight="normal" text-decoration="none" x="600" y="30"></text><text fill="#eeeeee" stroke="none" font-family="Arial" font-size="24px" font-style="normal" font-weight="normal" text-decoration="none" x="600" y="60"></text><text fill="#eeeeee" stroke="none" font-family="Arial" font-size="24px" font-style="normal" font-weight="normal" text-decoration="none" x="600" y="90"></text><text fill="#eeeeee" stroke="none" font-family="Arial" font-size="24px" font-style="normal" font-weight="normal" text-decoration="none" x="600" y="120"></text><text fill="#eeeeee" stroke="none" font-family="Arial" font-size="24px" font-style="normal" font-weight="normal" text-decoration="none" x="600" y="150"></text><text fill="#eeeeee" stroke="none" font-family="Arial" font-size="24px" font-style="normal" font-weight="normal" text-decoration="none" x="600" y="180"></text><text fill="#eeeeee" stroke="none" font-family="Arial" font-size="24px" font-style="normal" font-weight="normal" text-decoration="none" x="600" y="210"></text><text fill="#eeeeee" stroke="none" font-family="Arial" font-size="24px" font-style="normal" font-weight="normal" text-decoration="none" x="600" y="240"></text><text fill="#eeeeee" stroke="none" font-family="Arial" font-size="24px" font-style="normal" font-weight="normal" text-decoration="none" x="600" y="270"></text><text fill="#eeeeee" stroke="none" font-family="Arial" font-size="24px" font-style="normal" font-weight="normal" text-decoration="none" x="600" y="300"></text><text fill="#eeeeee" stroke="none" font-family="Arial" font-size="24px" font-style="normal" font-weight="normal" text-decoration="none" x="600" y="330"></text><text fill="#eeeeee" stroke="none" font-family="Arial" font-size="24px" font-style="normal" font-weight="normal" text-decoration="none" x="600" y="360"></text><text fill="#eeeeee" stroke="none" font-family="Arial" font-size="24px" font-style="normal" font-weight="normal" text-decoration="none" x="600" y="390"></text><text fill="#eeeeee" stroke="none" font-family="Arial" font-size="24px" font-style="normal" font-weight="normal" text-decoration="none" x="600" y="420"></text><text fill="#eeeeee" stroke="none" font-family="Arial" font-size="24px" font-style="normal" font-weight="normal" text-decoration="none" x="600" y="450"></text><text fill="#eeeeee" stroke="none" font-family="Arial" font-size="24px" font-style="normal" font-weight="normal" text-decoration="none" x="600" y="480"></text><text fill="#eeeeee" stroke="none" font-family="Arial" font-size="24px" font-style="normal" font-weight="normal" text-decoration="none" x="600" y="510"></text><text fill="#eeeeee" stroke="none" font-family="Arial" font-size="24px" font-style="normal" font-weight="normal" text-decoration="none" x="600" y="540"></text><text fill="#eeeeee" stroke="none" font-family="Arial" font-size="24px" font-style="normal" font-weight="normal" text-decoration="none" x="600" y="570"></text><text fill="#eeeeee" stroke="none" font-family="Arial" font-size="24px" font-style="normal" font-weight="normal" text-decoration="none" x="600" y="600"></text><text fill="#eeeeee" stroke="none" font-family="Arial" font-size="24px" font-style="normal" font-weight="normal" text-decoration="none" x="600" y="630"></text><text fill="#eeeeee" stroke="none" font-family="Arial" font-size="24px" font-style="normal" font-weight="normal" text-decoration="none" x="800" y="0"></text><text fill="#eeeeee" stroke="none" font-family="Arial" font-size="24px" font-style="normal" font-weight="normal" text-decoration="none" x="800" y="30"></text><text fill="#eeeeee" stroke="none" font-family="Arial" font-size="24px" font-style="normal" font-weight="normal" text-decoration="none" x="800" y="60"></text><text fill="#eeeeee" stroke="none" font-family="Arial" font-size="24px" font-style="normal" font-weight="normal" text-decoration="none" x="800" y="90"></text><text fill="#eeeeee" stroke="none" font-family="Arial" font-size="24px" font-style="normal" font-weight="normal" text-decoration="none" x="800" y="120"></text><text fill="#eeeeee" stroke="none" font-family="Arial" font-size="24px" font-style="normal" font-weight="normal" text-decoration="none" x="800" y="150"></text><text fill="#eeeeee" stroke="none" font-family="Arial" font-size="24px" font-style="normal" font-weight="normal" text-decoration="none" x="800" y="180"></text><text fill="#eeeeee" stroke="none" font-family="Arial" font-size="24px" font-style="normal" font-weight="normal" text-decoration="none" x="800" y="210"></text><text fill="#eeeeee" stroke="none" font-family="Arial" font-size="24px" font-style="normal" font-weight="normal" text-decoration="none" x="800" y="240"></text><text fill="#eeeeee" stroke="none" font-family="Arial" font-size="24px" font-style="normal" font-weight="normal" text-decoration="none" x="800" y="270"></text><text fill="#eeeeee" stroke="none" font-family="Arial" font-size="24px" font-style="normal" font-weight="normal" text-decoration="none" x="800" y="300"></text><text fill="#eeeeee" stroke="none" font-family="Arial" font-size="24px" font-style="normal" font-weight="normal" text-decoration="none" x="800" y="330"></text><text fill="#eeeeee" stroke="none" font-family="Arial" font-size="24px" font-style="normal" font-weight="normal" text-decoration="none" x="800" y="360"></text><text fill="#eeeeee" stroke="none" font-family="Arial" font-size="24px" font-style="normal" font-weight="normal" text-decoration="none" x="800" y="390"></text><text fill="#eeeeee" stroke="none" font-family="Arial" font-size="24px" font-style="normal" font-weight="normal" text-decoration="none" x="800" y="420"></text><text fill="#eeeeee" stroke="none" font-family="Arial" font-size="24px" font-style="normal" font-weight="normal" text-decoration="none" x="800" y="450"></text><text fill="#eeeeee" stroke="none" font-family="Arial" font-size="24px" font-style="normal" font-weight="normal" text-decoration="none" x="800" y="480"></text><text fill="#eeeeee" stroke="none" font-family="Arial" font-size="24px" font-style="normal" font-weight="normal" text-decoration="none" x="800" y="510"></text><text fill="#eeeeee" stroke="none" font-family="Arial" font-size="24px" font-style="normal" font-weight="normal" text-decoration="none" x="800" y="540"></text><text fill="#eeeeee" stroke="none" font-family="Arial" font-size="24px" font-style="normal" font-weight="normal" text-decoration="none" x="800" y="570"></text><text fill="#eeeeee" stroke="none" font-family="Arial" font-size="24px" font-style="normal" font-weight="normal" text-decoration="none" x="800" y="600"></text><text fill="#eeeeee" stroke="none" font-family="Arial" font-size="24px" font-style="normal" font-weight="normal" text-decoration="none" x="800" y="630"></text><g transform="translate(-270,-126) scale(1,1)"><rect fill="#C0C0C0" stroke="none" x="399" y="143" width="752" height="616" opacity="0.2"/></g><g transform="translate(-270,-126) scale(1,1)"><rect fill="#ffffff" stroke="none" x="392" y="136" width="752" height="616"/></g><g transform="translate(-270,-126) scale(1,1)"><path fill="none" stroke="#000000" d="M 392 136 L 1144 136 L 1144 752 L 392 752 L 392 136 Z Z" stroke-miterlimit="10"/></g><g transform="translate(-270,-126) scale(1,1)"><g><path fill="none" stroke="none"/><text fill="#000000" stroke="none" font-family="Arial" font-size="13px" font-style="normal" font-weight="bold" text-decoration="none" x="726.095947265625" y="155.5">MeteorSurvive</text></g></g><g transform="translate(-270,-126) scale(1,1)"><path fill="#ffffff" stroke="none" d="M 297.49162571022725 417.68 C 297.49162571022725 412.886167936 301.37746803517274 409 306.1708984375 409 C 310.96432883982726 409 314.85017116477275 412.886167936 314.85017116477275 417.68 C 314.85017116477275 422.473832064 310.96432883982726 426.36 306.1708984375 426.36 C 301.37746803517274 426.36 297.49162571022725 422.473832064 297.49162571022725 417.68 Z"/></g><g transform="translate(-270,-126) scale(1,1)"><path fill="none" stroke="#000000" d="M 297.49162571022725 417.68 C 297.49162571022725 412.886167936 301.37746803517274 409 306.1708984375 409 C 310.96432883982726 409 314.85017116477275 412.886167936 314.85017116477275 417.68 C 314.85017116477275 422.473832064 310.96432883982726 426.36 306.1708984375 426.36 C 301.37746803517274 426.36 297.49162571022725 422.473832064 297.49162571022725 417.68 Z" stroke-miterlimit="10"/></g><g transform="translate(-270,-126) scale(1,1)"><path fill="none" stroke="#000000" d="M 306.1708984375 426.36 L 306.1708984375 443.64" stroke-miterlimit="10"/></g><g transform="translate(-270,-126) scale(1,1)"><path fill="none" stroke="#000000" d="M 296.98108025568183 432.84 L 315.36071661931817 432.84" stroke-miterlimit="10"/></g><g transform="translate(-270,-126) scale(1,1)"><path fill="none" stroke="#000000" d="M 306.1708984375 443.64 L 293.40726207386365 461" stroke-miterlimit="10"/></g><g transform="translate(-270,-126) scale(1,1)"><path fill="none" stroke="#000000" d="M 306.1708984375 443.64 L 318.93453480113635 461" stroke-miterlimit="10"/></g><g transform="translate(-270,-126) scale(1,1)"><g><path fill="none" stroke="none"/><text fill="#000000" stroke="none" font-family="Arial" font-size="13px" font-style="normal" font-weight="bold" text-decoration="none" x="286.29638671875" y="481.5">Joueur</text></g></g><g transform="translate(-270,-126) scale(1,1)"><path fill="#C0C0C0" stroke="none" d="M 487 270.5 C 487 244.266472 527.0705104 223 576.5 223 C 625.9294896 223 666 244.266472 666 270.5 C 666 296.733528 625.9294896 318 576.5 318 C 527.0705104 318 487 296.733528 487 270.5 Z" opacity="0.2"/></g><g transform="translate(-270,-126) scale(1,1)"><path fill="#ffffff" stroke="none" d="M 480 263.5 C 480 237.266472 520.0705104 216 569.5 216 C 618.9294896 216 659 237.266472 659 263.5 C 659 289.733528 618.9294896 311 569.5 311 C 520.0705104 311 480 289.733528 480 263.5 Z"/></g><g transform="translate(-270,-126) scale(1,1)"><path fill="none" stroke="#000000" d="M 480 263.5 C 480 237.266472 520.0705104 216 569.5 216 C 618.9294896 216 659 237.266472 659 263.5 C 659 289.733528 618.9294896 311 569.5 311 C 520.0705104 311 480 289.733528 480 263.5 Z" stroke-miterlimit="10"/></g><g transform="translate(-270,-126) scale(1,1)"><g><path fill="none" stroke="none"/><text fill="#000000" stroke="none" font-family="Arial" font-size="13px" font-style="normal" font-weight="bold" text-decoration="none" x="514.224609375" y="270.5">Paramétrer son jeu</text></g></g><g transform="translate(-270,-126) scale(1,1)"><path fill="#C0C0C0" stroke="none" d="M 791 230.5 C 791 213.1030288 833.3090864 199 885.5 199 C 937.6909136 199 980 213.1030288 980 230.5 C 980 247.8969712 937.6909136 262 885.5 262 C 833.3090864 262 791 247.8969712 791 230.5 Z" opacity="0.2"/></g><g transform="translate(-270,-126) scale(1,1)"><path fill="#ffffff" stroke="none" d="M 784 223.5 C 784 206.1030288 826.3090864 192 878.5 192 C 930.6909136 192 973 206.1030288 973 223.5 C 973 240.8969712 930.6909136 255 878.5 255 C 826.3090864 255 784 240.8969712 784 223.5 Z"/></g><g transform="translate(-270,-126) scale(1,1)"><path fill="none" stroke="#000000" d="M 784 223.5 C 784 206.1030288 826.3090864 192 878.5 192 C 930.6909136 192 973 206.1030288 973 223.5 C 973 240.8969712 930.6909136 255 878.5 255 C 826.3090864 255 784 240.8969712 784 223.5 Z" stroke-miterlimit="10"/></g><g transform="translate(-270,-126) scale(1,1)"><g><path fill="none" stroke="none"/><text fill="#000000" stroke="none" font-family="Arial" font-size="13px" font-style="normal" font-weight="bold" text-decoration="none" x="821.16796875" y="230.5">Changer la difficulté</text></g></g><g transform="translate(-270,-126) scale(1,1)"><path fill="#C0C0C0" stroke="none" d="M 799 307 C 799 291.5360256 836.6080768 279 883 279 C 929.3919232 279 967 291.5360256 967 307 C 967 322.4639744 929.3919232 335 883 335 C 836.6080768 335 799 322.4639744 799 307 Z" opacity="0.2"/></g><g transform="translate(-270,-126) scale(1,1)"><path fill="#ffffff" stroke="none" d="M 792 300 C 792 284.5360256 829.6080768 272 876 272 C 922.3919232 272 960 284.5360256 960 300 C 960 315.4639744 922.3919232 328 876 328 C 829.6080768 328 792 315.4639744 792 300 Z"/></g><g transform="translate(-270,-126) scale(1,1)"><path fill="none" stroke="#000000" d="M 792 300 C 792 284.5360256 829.6080768 272 876 272 C 922.3919232 272 960 284.5360256 960 300 C 960 315.4639744 922.3919232 328 876 328 C 829.6080768 328 792 315.4639744 792 300 Z" stroke-miterlimit="10"/></g><g transform="translate(-270,-126) scale(1,1)"><g><path fill="none" stroke="none"/><text fill="#000000" stroke="none" font-family="Arial" font-size="13px" font-style="normal" font-weight="bold" text-decoration="none" x="835.530517578125" y="307">Couper le son</text></g></g><g transform="translate(-270,-126) scale(1,1)"><path fill="#C0C0C0" stroke="none" d="M 495 447 C 495 420.4903296 534.3989376 399 583 399 C 631.6010624 399 671 420.4903296 671 447 C 671 473.5096704 631.6010624 495 583 495 C 534.3989376 495 495 473.5096704 495 447 Z" opacity="0.2"/></g><g transform="translate(-270,-126) scale(1,1)"><path fill="#ffffff" stroke="none" d="M 488 440 C 488 413.4903296 527.3989376 392 576 392 C 624.6010624 392 664 413.4903296 664 440 C 664 466.5096704 624.6010624 488 576 488 C 527.3989376 488 488 466.5096704 488 440 Z"/></g><g transform="translate(-270,-126) scale(1,1)"><path fill="none" stroke="#000000" d="M 488 440 C 488 413.4903296 527.3989376 392 576 392 C 624.6010624 392 664 413.4903296 664 440 C 664 466.5096704 624.6010624 488 576 488 C 527.3989376 488 488 466.5096704 488 440 Z" stroke-miterlimit="10"/></g><g transform="translate(-270,-126) scale(1,1)"><g><path fill="none" stroke="none"/><text fill="#000000" stroke="none" font-family="Arial" font-size="13px" font-style="normal" font-weight="bold" text-decoration="none" x="559.740478515625" y="447">Jouer</text></g></g><g transform="translate(-270,-126) scale(1,1)"><path fill="#C0C0C0" stroke="none" d="M 751 386.5 C 751 371.312168 788.6080768 359 835 359 C 881.3919232 359 919 371.312168 919 386.5 C 919 401.687832 881.3919232 414 835 414 C 788.6080768 414 751 401.687832 751 386.5 Z" opacity="0.2"/></g><g transform="translate(-270,-126) scale(1,1)"><path fill="#ffffff" stroke="none" d="M 744 379.5 C 744 364.312168 781.6080768 352 828 352 C 874.3919232 352 912 364.312168 912 379.5 C 912 394.687832 874.3919232 407 828 407 C 781.6080768 407 744 394.687832 744 379.5 Z"/></g><g transform="translate(-270,-126) scale(1,1)"><path fill="none" stroke="#000000" d="M 744 379.5 C 744 364.312168 781.6080768 352 828 352 C 874.3919232 352 912 364.312168 912 379.5 C 912 394.687832 874.3919232 407 828 407 C 781.6080768 407 744 394.687832 744 379.5 Z" stroke-miterlimit="10"/></g><g transform="translate(-270,-126) scale(1,1)"><g><path fill="none" stroke="none"/><text fill="#000000" stroke="none" font-family="Arial" font-size="13px" font-style="normal" font-weight="bold" text-decoration="none" x="793.31005859375" y="386.5">Se déplacer</text></g></g><g transform="translate(-270,-126) scale(1,1)"><path fill="#C0C0C0" stroke="none" d="M 919 450.5 C 919 435.312168 954.817216 423 999 423 C 1043.182784 423 1079 435.312168 1079 450.5 C 1079 465.687832 1043.182784 478 999 478 C 954.817216 478 919 465.687832 919 450.5 Z" opacity="0.2"/></g><g transform="translate(-270,-126) scale(1,1)"><path fill="#ffffff" stroke="none" d="M 912 443.5 C 912 428.312168 947.817216 416 992 416 C 1036.182784 416 1072 428.312168 1072 443.5 C 1072 458.687832 1036.182784 471 992 471 C 947.817216 471 912 458.687832 912 443.5 Z"/></g><g transform="translate(-270,-126) scale(1,1)"><path fill="none" stroke="#000000" d="M 912 443.5 C 912 428.312168 947.817216 416 992 416 C 1036.182784 416 1072 428.312168 1072 443.5 C 1072 458.687832 1036.182784 471 992 471 C 947.817216 471 912 458.687832 912 443.5 Z" stroke-miterlimit="10"/></g><g transform="translate(-270,-126) scale(1,1)"><g><path fill="none" stroke="none"/><text fill="#000000" stroke="none" font-family="Arial" font-size="13px" font-style="normal" font-weight="bold" text-decoration="none" x="972.84912109375" y="450.5">Sauter</text></g></g><g transform="translate(-270,-126) scale(1,1)"><path fill="#C0C0C0" stroke="none" d="M 751 522.5 C 751 507.312168 792.8613712 495 844.5 495 C 896.1386288 495 938 507.312168 938 522.5 C 938 537.687832 896.1386288 550 844.5 550 C 792.8613712 550 751 537.687832 751 522.5 Z" opacity="0.2"/></g><g transform="translate(-270,-126) scale(1,1)"><path fill="#ffffff" stroke="none" d="M 744 515.5 C 744 500.312168 785.8613712 488 837.5 488 C 889.1386288 488 931 500.312168 931 515.5 C 931 530.687832 889.1386288 543 837.5 543 C 785.8613712 543 744 530.687832 744 515.5 Z"/></g><g transform="translate(-270,-126) scale(1,1)"><path fill="none" stroke="#000000" d="M 744 515.5 C 744 500.312168 785.8613712 488 837.5 488 C 889.1386288 488 931 500.312168 931 515.5 C 931 530.687832 889.1386288 543 837.5 543 C 785.8613712 543 744 530.687832 744 515.5 Z" stroke-miterlimit="10"/></g><g transform="translate(-270,-126) scale(1,1)"><g><path fill="none" stroke="none"/><text fill="#000000" stroke="none" font-family="Arial" font-size="13px" font-style="normal" font-weight="bold" text-decoration="none" x="781.028076171875" y="522.5">Tirer des projectiles</text></g></g><g transform="translate(-270,-126) scale(1,1)"><path fill="#C0C0C0" stroke="none" d="M 495 618.5 C 495 594.4756112 539.5476624 575 594.5 575 C 649.4523376 575 694 594.4756112 694 618.5 C 694 642.5243888 649.4523376 662 594.5 662 C 539.5476624 662 495 642.5243888 495 618.5 Z" opacity="0.2"/></g><g transform="translate(-270,-126) scale(1,1)"><path fill="#ffffff" stroke="none" d="M 488 611.5 C 488 587.4756112 532.5476624 568 587.5 568 C 642.4523376 568 687 587.4756112 687 611.5 C 687 635.5243888 642.4523376 655 587.5 655 C 532.5476624 655 488 635.5243888 488 611.5 Z"/></g><g transform="translate(-270,-126) scale(1,1)"><path fill="none" stroke="#000000" d="M 488 611.5 C 488 587.4756112 532.5476624 568 587.5 568 C 642.4523376 568 687 587.4756112 687 611.5 C 687 635.5243888 642.4523376 655 587.5 655 C 532.5476624 655 488 635.5243888 488 611.5 Z" stroke-miterlimit="10"/></g><g transform="translate(-270,-126) scale(1,1)"><g><path fill="none" stroke="none"/><text fill="#000000" stroke="none" font-family="Arial" font-size="13px" font-style="normal" font-weight="bold" text-decoration="none" x="530.421875" y="618.5">Surveiller son score</text></g></g><g transform="translate(-270,-126) scale(1,1)"><path fill="#C0C0C0" stroke="none" d="M 767 618.5 C 767 603.312168 813.1146656 591 870 591 C 926.8853344 591 973 603.312168 973 618.5 C 973 633.687832 926.8853344 646 870 646 C 813.1146656 646 767 633.687832 767 618.5 Z" opacity="0.2"/></g><g transform="translate(-270,-126) scale(1,1)"><path fill="#ffffff" stroke="none" d="M 760 611.5 C 760 596.312168 806.1146656 584 863 584 C 919.8853344 584 966 596.312168 966 611.5 C 966 626.687832 919.8853344 639 863 639 C 806.1146656 639 760 626.687832 760 611.5 Z"/></g><g transform="translate(-270,-126) scale(1,1)"><path fill="none" stroke="#000000" d="M 760 611.5 C 760 596.312168 806.1146656 584 863 584 C 919.8853344 584 966 596.312168 966 611.5 C 966 626.687832 919.8853344 639 863 639 C 806.1146656 639 760 626.687832 760 611.5 Z" stroke-miterlimit="10"/></g><g transform="translate(-270,-126) scale(1,1)"><g><path fill="none" stroke="none"/><text fill="#000000" stroke="none" font-family="Arial" font-size="13px" font-style="normal" font-weight="bold" text-decoration="none" x="799.044189453125" y="618.5">Sauvegarder son nom</text></g></g><g transform="translate(-270,-126) scale(1,1)"><path fill="none" stroke="#000000" d="M 783 235 L 660 251" stroke-miterlimit="10" stroke-dasharray="3"/></g><g transform="translate(-270,-126) scale(1,1)"><path fill="none" stroke="#000000" d="M 669.5347641479336 245.51472219087503 L 660 251 L 670.6207735215427 253.8634192504939" stroke-miterlimit="10"/></g><g transform="translate(-270,-126) scale(1,1)"><g><path fill="none" stroke="none"/><text fill="#000000" stroke="none" font-family="Arial" font-size="13px" font-style="normal" font-weight="normal" text-decoration="none" x="697.5" y="278.5">«extend»</text></g></g><g transform="translate(-270,-126) scale(1,1)"><path fill="none" stroke="#000000" d="M 791 290 L 660 274" stroke-miterlimit="10" stroke-dasharray="3"/></g><g transform="translate(-270,-126) scale(1,1)"><path fill="none" stroke="#000000" d="M 670.5980585439563 271.05362000093766 L 660 274 L 669.5773643411329 279.41055378655415" stroke-miterlimit="10"/></g><g transform="translate(-270,-126) scale(1,1)"><g><path fill="none" stroke="none"/><text fill="#000000" stroke="none" font-family="Arial" font-size="13px" font-style="normal" font-weight="normal" text-decoration="none" x="694.5" y="317.5">«extend»</text></g></g><g transform="translate(-270,-126) scale(1,1)"><path fill="none" stroke="#000000" d="M 743 488 L 665 466" stroke-miterlimit="10" stroke-dasharray="3"/></g><g transform="translate(-270,-126) scale(1,1)"><path fill="none" stroke="#000000" d="M 675.9237795085859 464.707312393577 L 665 466 L 673.6383467391652 472.8102103942502" stroke-miterlimit="10"/></g><g transform="translate(-270,-126) scale(1,1)"><g><path fill="none" stroke="none"/><text fill="#000000" stroke="none" font-family="Arial" font-size="13px" font-style="normal" font-weight="normal" text-decoration="none" x="668.5" y="511.5">«extend»</text></g></g><g transform="translate(-270,-126) scale(1,1)"><path fill="none" stroke="#000000" d="M 911 442 L 665 441" stroke-miterlimit="10" stroke-dasharray="3"/></g><g transform="translate(-270,-126) scale(1,1)"><path fill="none" stroke="#000000" d="M 675.1797026112381 436.8318283688466 L 665 441 L 675.1454791724069 445.2507943213309" stroke-miterlimit="10"/></g><g transform="translate(-270,-126) scale(1,1)"><g><path fill="none" stroke="none"/><text fill="#000000" stroke="none" font-family="Arial" font-size="13px" font-style="normal" font-weight="normal" text-decoration="none" x="760.5" y="477.5">«extend»</text></g></g><g transform="translate(-270,-126) scale(1,1)"><path fill="none" stroke="#000000" d="M 333 428 L 499 312" stroke-miterlimit="10"/></g><g transform="translate(-270,-126) scale(1,1)"><path fill="none" stroke="#000000" d="M 333 446 L 487 442" stroke-miterlimit="10"/></g><g transform="translate(-270,-126) scale(1,1)"><path fill="none" stroke="#000000" d="M 333 463 L 512 567" stroke-miterlimit="10"/></g><g transform="translate(-270,-126) scale(1,1)"><path fill="none" stroke="#000000" d="M 743 400 L 665 418" stroke-miterlimit="10" stroke-dasharray="3"/></g><g transform="translate(-270,-126) scale(1,1)"><path fill="none" stroke="#000000" d="M 673.9558708199186 411.61310890519263 L 665 418 L 675.8489709920335 419.8165429843569" stroke-miterlimit="10"/></g><g transform="translate(-270,-126) scale(1,1)"><g><path fill="none" stroke="none"/><text fill="#000000" stroke="none" font-family="Arial" font-size="13px" font-style="normal" font-weight="normal" text-decoration="none" x="655.5" y="395.5">«extend»</text></g></g><g transform="translate(-270,-126) scale(1,1)"><path fill="none" stroke="#000000" d="M 791 583 L 712 552 L 636 489" stroke-miterlimit="10" stroke-dasharray="3"/></g><g transform="translate(-270,-126) scale(1,1)"><path fill="none" stroke="#000000" d="M 646.5105033721003 492.24489119464243 L 636 489 L 641.137563640152 498.7265327760404" stroke-miterlimit="10"/></g><g transform="translate(-270,-126) scale(1,1)"><g><path fill="none" stroke="none"/><text fill="#000000" stroke="none" font-family="Arial" font-size="13px" font-style="normal" font-weight="normal" text-decoration="none" x="665.5" y="581.5">«extend»</text></g></g></g></svg>