<svg version="1.1" xmlns="http://www.w3.org/2000/svg" xmlns:xlink="http://www.w3.org/1999/xlink" width="884" height="636"><defs/><g><g transform="translate(-270,-126) scale(1,1)"><rect fill="#C0C0C0" stroke="none" x="399" y="143" width="752" height="616" opacity="0.2"/></g><g transform="translate(-270,-126) scale(1,1)"><rect fill="#ffffff" stroke="none" x="392" y="136" width="752" height="616"/></g><g transform="translate(-270,-126) scale(1,1)"><path fill="none" stroke="#000000" d="M 392 136 L 1144 136 L 1144 752 L 392 752 L 392 136 Z Z" stroke-miterlimit="10"/></g><g transform="translate(-270,-126) scale(1,1)"><g><path fill="none" stroke="none"/><text fill="#000000" stroke="none" font-family="Arial" font-size="13px" font-style="normal" font-weight="bold" text-decoration="none" x="726.095947265625" y="155.5">MeteorSurvive</text></g></g><g transform="translate(-270,-126) scale(1,1)"><path fill="#ffffff" stroke="none" d="M 297.49162571022725 417.68 C 297.49162571022725 412.886167936 301.37746803517274 409 306.1708984375 409 C 310.96432883982726 409 314.85017116477275 412.886167936 314.85017116477275 417.68 C 314.85017116477275 422.473832064 310.96432883982726 426.36 306.1708984375 426.36 C 301.37746803517274 426.36 297.49162571022725 422.473832064 297.49162571022725 417.68 Z"/></g><g transform="translate(-270,-126) scale(1,1)"><path fill="none" stroke="#000000" d="M 297.49162571022725 417.68 C 297.49162571022725 412.886167936 301.37746803517274 409 306.1708984375 409 C 310.96432883982726 409 314.85017116477275 412.886167936 314.85017116477275 417.68 C 314.85017116477275 422.473832064 310.96432883982726 426.36 306.1708984375 426.36 C 301.37746803517274 426.36 297.49162571022725 422.473832064 297.49162571022725 417.68 Z" stroke-miterlimit="10"/></g><g transform="translate(-270,-126) scale(1,1)"><path fill="none" stroke="#000000" d="M 306.1708984375 426.36 L 306.1708984375 443.64" stroke-miterlimit="10"/></g><g transform="translate(-270,-126) scale(1,1)"><path fill="none" stroke="#000000" d="M 296.98108025568183 432.84 L 315.36071661931817 432.84" stroke-miterlimit="10"/></g><g transform="translate(-270,-126) scale(1,1)"><path fill="none" stroke="#000000" d="M 306.1708984375 443.64 L 293.40726207386365 461" stroke-miterlimit="10"/></g><g transform="translate(-270,-126) scale(1,1)"><path fill="none" stroke="#000000" d="M 306.1708984375 443.64 L 318.93453480113635 461" stroke-miterlimit="10"/></g><g transform="translate(-270,-126) scale(1,1)"><g><path fill="none" stroke="none"/><text fill="#000000" stroke="none" font-family="Arial" font-size="13px" font-style="normal" font-weight="bold" text-decoration="none" x="286.29638671875" y="481.5">Joueur</text></g></g><g transform="translate(-270,-126) scale(1,1)"><path fill="#C0C0C0" stroke="none" d="M 551 214.5 C 551 197.1030288 593.3090864 183 645.5 183 C 697.6909136 183 740 197.1030288 740 214.5 C 740 231.8969712 697.6909136 246 645.5 246 C 593.3090864 246 551 231.8969712 551 214.5 Z" opacity="0.2"/></g><g transform="translate(-270,-126) scale(1,1)"><path fill="#ffffff" stroke="none" d="M 544 207.5 C 544 190.1030288 586.3090864 176 638.5 176 C 690.6909136 176 733 190.1030288 733 207.5 C 733 224.8969712 690.6909136 239 638.5 239 C 586.3090864 239 544 224.8969712 544 207.5 Z"/></g><g transform="translate(-270,-126) scale(1,1)"><path fill="none" stroke="#000000" d="M 544 207.5 C 544 190.1030288 586.3090864 176 638.5 176 C 690.6909136 176 733 190.1030288 733 207.5 C 733 224.8969712 690.6909136 239 638.5 239 C 586.3090864 239 544 224.8969712 544 207.5 Z" stroke-miterlimit="10"/></g><g transform="translate(-270,-126) scale(1,1)"><g><path fill="none" stroke="none"/><text fill="#000000" stroke="none" font-family="Arial" font-size="13px" font-style="normal" font-weight="bold" text-decoration="none" x="581.16796875" y="214.5">Changer la difficulté</text></g></g><g transform="translate(-270,-126) scale(1,1)"><path fill="#C0C0C0" stroke="none" d="M 479 543 C 479 516.4903296 518.3989376 495 567 495 C 615.6010624 495 655 516.4903296 655 543 C 655 569.5096704 615.6010624 591 567 591 C 518.3989376 591 479 569.5096704 479 543 Z" opacity="0.2"/></g><g transform="translate(-270,-126) scale(1,1)"><path fill="#ffffff" stroke="none" d="M 472 536 C 472 509.4903296 511.3989376 488 560 488 C 608.6010624 488 648 509.4903296 648 536 C 648 562.5096704 608.6010624 584 560 584 C 511.3989376 584 472 562.5096704 472 536 Z"/></g><g transform="translate(-270,-126) scale(1,1)"><path fill="none" stroke="#000000" d="M 472 536 C 472 509.4903296 511.3989376 488 560 488 C 608.6010624 488 648 509.4903296 648 536 C 648 562.5096704 608.6010624 584 560 584 C 511.3989376 584 472 562.5096704 472 536 Z" stroke-miterlimit="10"/></g><g transform="translate(-270,-126) scale(1,1)"><g><path fill="none" stroke="none"/><text fill="#000000" stroke="none" font-family="Arial" font-size="13px" font-style="normal" font-weight="bold" text-decoration="none" x="509.4091796875" y="543">Lancer une partie</text></g></g><g transform="translate(-270,-126) scale(1,1)"><path fill="#C0C0C0" stroke="none" d="M 743 410.5 C 743 395.312168 780.6080768 383 827 383 C 873.3919232 383 911 395.312168 911 410.5 C 911 425.687832 873.3919232 438 827 438 C 780.6080768 438 743 425.687832 743 410.5 Z" opacity="0.2"/></g><g transform="translate(-270,-126) scale(1,1)"><path fill="#ffffff" stroke="none" d="M 736 403.5 C 736 388.312168 773.6080768 376 820 376 C 866.3919232 376 904 388.312168 904 403.5 C 904 418.687832 866.3919232 431 820 431 C 773.6080768 431 736 418.687832 736 403.5 Z"/></g><g transform="translate(-270,-126) scale(1,1)"><path fill="none" stroke="#000000" d="M 736 403.5 C 736 388.312168 773.6080768 376 820 376 C 866.3919232 376 904 388.312168 904 403.5 C 904 418.687832 866.3919232 431 820 431 C 773.6080768 431 736 418.687832 736 403.5 Z" stroke-miterlimit="10"/></g><g transform="translate(-270,-126) scale(1,1)"><g><path fill="none" stroke="none"/><text fill="#000000" stroke="none" font-family="Arial" font-size="13px" font-style="normal" font-weight="bold" text-decoration="none" x="785.31005859375" y="410.5">Se déplacer</text></g></g><g transform="translate(-270,-126) scale(1,1)"><path fill="#C0C0C0" stroke="none" d="M 863 514.5 C 863 499.312168 898.817216 487 943 487 C 987.182784 487 1023 499.312168 1023 514.5 C 1023 529.687832 987.182784 542 943 542 C 898.817216 542 863 529.687832 863 514.5 Z" opacity="0.2"/></g><g transform="translate(-270,-126) scale(1,1)"><path fill="#ffffff" stroke="none" d="M 856 507.5 C 856 492.312168 891.817216 480 936 480 C 980.182784 480 1016 492.312168 1016 507.5 C 1016 522.687832 980.182784 535 936 535 C 891.817216 535 856 522.687832 856 507.5 Z"/></g><g transform="translate(-270,-126) scale(1,1)"><path fill="none" stroke="#000000" d="M 856 507.5 C 856 492.312168 891.817216 480 936 480 C 980.182784 480 1016 492.312168 1016 507.5 C 1016 522.687832 980.182784 535 936 535 C 891.817216 535 856 522.687832 856 507.5 Z" stroke-miterlimit="10"/></g><g transform="translate(-270,-126) scale(1,1)"><g><path fill="none" stroke="none"/><text fill="#000000" stroke="none" font-family="Arial" font-size="13px" font-style="normal" font-weight="bold" text-decoration="none" x="916.84912109375" y="514.5">Sauter</text></g></g><g transform="translate(-270,-126) scale(1,1)"><path fill="#C0C0C0" stroke="none" d="M 751 642.5 C 751 627.312168 792.8613712 615 844.5 615 C 896.1386288 615 938 627.312168 938 642.5 C 938 657.687832 896.1386288 670 844.5 670 C 792.8613712 670 751 657.687832 751 642.5 Z" opacity="0.2"/></g><g transform="translate(-270,-126) scale(1,1)"><path fill="#ffffff" stroke="none" d="M 744 635.5 C 744 620.312168 785.8613712 608 837.5 608 C 889.1386288 608 931 620.312168 931 635.5 C 931 650.687832 889.1386288 663 837.5 663 C 785.8613712 663 744 650.687832 744 635.5 Z"/></g><g transform="translate(-270,-126) scale(1,1)"><path fill="none" stroke="#000000" d="M 744 635.5 C 744 620.312168 785.8613712 608 837.5 608 C 889.1386288 608 931 620.312168 931 635.5 C 931 650.687832 889.1386288 663 837.5 663 C 785.8613712 663 744 650.687832 744 635.5 Z" stroke-miterlimit="10"/></g><g transform="translate(-270,-126) scale(1,1)"><g><path fill="none" stroke="none"/><text fill="#000000" stroke="none" font-family="Arial" font-size="13px" font-style="normal" font-weight="bold" text-decoration="none" x="821.964111328125" y="642.5">Peter</text></g></g><g transform="translate(-270,-126) scale(1,1)"><path fill="none" stroke="#000000" d="M 759 607 L 649 568" stroke-miterlimit="10" stroke-dasharray="3"/></g><g transform="translate(-270,-126) scale(1,1)"><path fill="none" stroke="#000000" d="M 659.9851424333308 567.4284707186538 L 649 568 L 657.1718009373949 575.3635364764217" stroke-miterlimit="10"/></g><g transform="translate(-270,-126) scale(1,1)"><g><path fill="none" stroke="none"/><text fill="#000000" stroke="none" font-family="Arial" font-size="13px" font-style="normal" font-weight="normal" text-decoration="none" x="667.5" y="621.5">«extend»</text></g></g><g transform="translate(-270,-126) scale(1,1)"><path fill="none" stroke="#000000" d="M 855 513 L 649 529" stroke-miterlimit="10" stroke-dasharray="3"/></g><g transform="translate(-270,-126) scale(1,1)"><path fill="none" stroke="#000000" d="M 658.8061880243413 524.0161584664775 L 649 529 L 659.458130194315 532.4099139048891" stroke-miterlimit="10"/></g><g transform="translate(-270,-126) scale(1,1)"><g><path fill="none" stroke="none"/><text fill="#000000" stroke="none" font-family="Arial" font-size="13px" font-style="normal" font-weight="normal" text-decoration="none" x="727.5" y="556.5">«extend»</text></g></g><g transform="translate(-270,-126) scale(1,1)"><path fill="none" stroke="#000000" d="M 333 457 L 471 505" stroke-miterlimit="10"/></g><g transform="translate(-270,-126) scale(1,1)"><path fill="none" stroke="#000000" d="M 763 432 L 649 490" stroke-miterlimit="10" stroke-dasharray="3"/></g><g transform="translate(-270,-126) scale(1,1)"><path fill="none" stroke="#000000" d="M 656.1489325153327 481.6398107741978 L 649 490 L 659.9666051534042 489.1435121662694" stroke-miterlimit="10"/></g><g transform="translate(-270,-126) scale(1,1)"><g><path fill="none" stroke="none"/><text fill="#000000" stroke="none" font-family="Arial" font-size="13px" font-style="normal" font-weight="normal" text-decoration="none" x="653.5" y="453.5">«extend»</text></g></g><g transform="translate(-270,-126) scale(1,1)"><path fill="#C0C0C0" stroke="none" d="M 551 315 C 551 303.954304 605.845112 295 673.5 295 C 741.154888 295 796 303.954304 796 315 C 796 326.045696 741.154888 335 673.5 335 C 605.845112 335 551 326.045696 551 315 Z" opacity="0.2"/></g><g transform="translate(-270,-126) scale(1,1)"><path fill="#ffffff" stroke="none" d="M 544 308 C 544 296.954304 598.845112 288 666.5 288 C 734.154888 288 789 296.954304 789 308 C 789 319.045696 734.154888 328 666.5 328 C 598.845112 328 544 319.045696 544 308 Z"/></g><g transform="translate(-270,-126) scale(1,1)"><path fill="none" stroke="#000000" d="M 544 308 C 544 296.954304 598.845112 288 666.5 288 C 734.154888 288 789 296.954304 789 308 C 789 319.045696 734.154888 328 666.5 328 C 598.845112 328 544 319.045696 544 308 Z" stroke-miterlimit="10"/></g><g transform="translate(-270,-126) scale(1,1)"><g><path fill="none" stroke="none"/><text fill="#000000" stroke="none" font-family="Arial" font-size="13px" font-style="normal" font-weight="bold" text-decoration="none" x="589.53466796875" y="315">Changer le nom de Joueur</text></g></g><g transform="translate(-270,-126) scale(1,1)"><path fill="none" stroke="#000000" d="M 333 427 L 592 240" stroke-miterlimit="10"/></g><g transform="translate(-270,-126) scale(1,1)"><path fill="none" stroke="#000000" d="M 333 436 L 612 329" stroke-miterlimit="10"/></g></g></svg>